<?xml version="1.0" encoding="utf-8"?>
<!-- Generator: Adobe Illustrator 18.0.0, SVG Export Plug-In . SVG Version: 6.00 Build 0)  -->
<!DOCTYPE svg PUBLIC "-//W3C//DTD SVG 1.1//EN" "http://www.w3.org/Graphics/SVG/1.1/DTD/svg11.dtd">
<svg version="1.1" id="Layer_1" xmlns="http://www.w3.org/2000/svg" xmlns:xlink="http://www.w3.org/1999/xlink" x="0px" y="0px"
	 viewBox="0 0 960 560" enable-background="new 0 0 960 560" xml:space="preserve">
<rect x="133.7" y="-268" fill="none" width="1964.3" height="270.3"/>
<g enable-background="new    ">
	<path d="M1940.8-240.9c-1.4,0-2.7,0-3.9,0c-1.1,0-2.3-0.1-3.3-0.2c-1.1-0.1-2.1-0.3-3.2-0.6s-2.3-0.7-3.5-1.2
		c0.4-1.2,0.8-2.4,1.3-3.5c0.4-1.2,0.8-2.4,1.3-3.6c1.4,0.4,2.6,0.8,3.6,1c1.1,0.2,2.1,0.4,3.1,0.5c1,0.1,2.1,0.2,3.2,0.2
		c1.1,0,2.4,0,3.9,0h26.1c0.3,0.9,0.5,1.7,0.6,2.4c0.1,0.7,0.3,1.3,0.4,1.9c0.2,1.1,0.3,2.1,0.3,3.2c0.1,1.1,0.1,2.2,0.1,3.4v6.9
		c0,1.7-0.1,3.2-0.2,4.7c-0.1,1.5-0.4,2.9-0.8,4.3c-0.4,1.4-0.9,2.7-1.6,4c-0.7,1.3-1.6,2.6-2.8,4c-2.4,2.8-4.8,5.5-7.1,8
		c-2.3,2.5-4.7,5.1-7,7.7l-6.5-5.9l5.5-5.8c1.5-1.6,2.9-3.1,4.4-4.7c1.4-1.6,2.7-3,3.9-4.4c0.9-1.1,1.6-2.2,2.1-3.2
		c0.5-1.1,0.9-2.2,1.1-3.3c0.2-1.1,0.4-2.3,0.4-3.6c0-1.3,0.1-2.7,0.1-4.2c0-1.3,0-2.6,0-3.9c0-1.3-0.1-2.6-0.1-4H1940.8z
		 M1928.1-215.7c0-1.4,0-2.7,0-3.8s0.1-2.3,0.1-3.3c0.1-1.1,0.2-2.1,0.4-3.2c0.2-1,0.4-2.1,0.6-3.3c1.4,0.2,2.8,0.4,4.2,0.6
		c1.4,0.2,2.8,0.4,4.2,0.6c-0.2,1.2-0.4,2.2-0.5,3.2c-0.1,0.9-0.3,1.9-0.3,2.8c-0.1,0.9-0.1,1.9-0.2,3c0,1,0,2.2,0,3.6v33.8h-8.5
		V-215.7z"/>
	<path d="M1985.1-224.7c0-1.6,0-3.1,0.1-4.5c0-1.4,0.2-2.7,0.4-4s0.5-2.6,0.8-3.9c0.4-1.3,0.9-2.7,1.5-4.2c-1.1-0.1-2.2-0.3-3.3-0.6
		c-1.1-0.3-2.3-0.7-3.6-1.2c0.4-1.2,0.8-2.4,1.3-3.5c0.4-1.2,0.8-2.4,1.3-3.6c1.4,0.4,2.6,0.8,3.6,1c1.1,0.2,2.1,0.4,3.1,0.5
		c1,0.1,2.1,0.2,3.2,0.2c1.1,0,2.4,0,3.9,0h12.2c2.1,0,4.1,0.2,6.1,0.7c2,0.5,3.8,1.3,5.4,2.6c1.6,1.2,2.9,3,3.9,5.2
		c1,2.2,1.5,5.1,1.5,8.6v34.1h-8.5v-32.8c0-2.1-0.1-3.8-0.4-5.2c-0.3-1.4-0.8-2.5-1.6-3.3c-0.8-0.8-1.8-1.4-3.1-1.8
		c-1.3-0.3-2.9-0.5-4.8-0.5h-11.8c-0.7,1.4-1.2,2.7-1.5,4.1c-0.3,1.4-0.6,2.7-0.7,4c-0.1,1.3-0.2,2.6-0.2,3.9c0,1.3,0,2.5,0,3.7v28
		h-8.5V-224.7z"/>
	<path d="M2056.2-248.4v51.2h-8.5v-43.7h-8.6v-7.5H2056.2z"/>
	<path d="M2114.7-240.9c-1.4,0-2.7,0-3.9,0c-1.1,0-2.3-0.1-3.3-0.2c-1.1-0.1-2.1-0.3-3.2-0.6c-1.1-0.3-2.3-0.7-3.5-1.2
		c0.4-1.2,0.8-2.4,1.3-3.5c0.4-1.2,0.8-2.4,1.3-3.6c1.4,0.4,2.6,0.8,3.6,1c1.1,0.2,2.1,0.4,3.1,0.5c1,0.1,2.1,0.2,3.2,0.2
		c1.1,0,2.4,0,3.9,0h3c2,0,4,0.3,5.9,0.8c2,0.5,3.7,1.4,5.3,2.7c1.6,1.3,2.9,3.1,3.9,5.3c1,2.2,1.6,5.1,1.8,8.6
		c0.1,1.8,0.2,3.7,0.2,5.5c0,1.8,0.1,3.7,0.1,5.6c0,1.9,0,4,0,6.1c0,2.1,0,4.4,0,6.8c0,0.8,0,1.5,0,2.1c0,0.6-0.1,1.3-0.2,2
		c-0.1,0.7-0.2,1.5-0.4,2.4c-0.2,0.9-0.4,1.9-0.7,3.2h-37.6v-7.5h30.6c0-4,0-8.2-0.1-12.5c-0.1-4.3-0.2-8.6-0.3-12.8
		c-0.1-2.1-0.3-3.8-0.6-5.2c-0.3-1.4-0.8-2.5-1.6-3.3c-0.7-0.8-1.7-1.4-3-1.8c-1.3-0.4-2.9-0.5-4.9-0.5H2114.7z"/>
	<path d="M2149.1-196.8c0.5-3.2,1-6.1,1.4-8.5s0.8-4.6,1.1-6.4c0.3-1.9,0.6-3.6,0.9-5c0.2-1.5,0.5-3,0.7-4.4
		c0.2-1.4,0.5-2.9,0.7-4.4c0.2-1.5,0.5-3.2,0.8-5.1c0.2-1.6,0.2-3,0.1-4.2c-0.1-1.1-0.4-2.2-0.8-3.3c-0.4-1.1-1.1-2.2-1.8-3.4
		c-0.8-1.2-1.8-2.7-2.9-4.5c0.7-0.4,1.2-0.8,1.8-1.1c0.5-0.3,1.1-0.7,1.6-1c0.6-0.3,1.2-0.7,1.8-1.1c0.6-0.4,1.4-0.8,2.3-1.4
		c0.8,1.1,1.4,2,1.9,2.8c0.5,0.8,1,1.5,1.5,2.2c0.4,0.7,0.8,1.3,1.1,2c0.3,0.7,0.7,1.3,1,2.1c1.4-1.3,2.7-2.4,4-3.4
		c1.3-1,2.6-1.8,3.9-2.5c1.3-0.7,2.7-1.2,4.2-1.6c1.5-0.4,3.1-0.5,4.9-0.5c4.3,0,7.9,1.1,10.8,3.4c2.9,2.2,4.8,5.7,5.8,10.4
		c0.3,1.3,0.5,2.9,0.6,4.9c0.1,2,0.2,4,0.2,6.1c0,2.1,0.1,4.1,0,6.1c0,2,0,3.7,0,5.1c0,2.3-0.1,4.4-0.1,6.5
		c-0.1,2.1-0.1,3.8-0.2,5.2c-0.1,0.7-0.1,1.5-0.2,2.3c-0.1,0.8-0.2,1.6-0.3,2.5h-24.3v-7.5h16.5c0-0.6,0.1-1.2,0.1-1.8
		c0-0.7,0.1-1.5,0.1-2.6c0-1.1,0-2.5,0-4.3c0-1.8,0-4,0-6.8c0-1.2,0-2.5,0-3.8c0-1.3-0.1-2.5-0.1-3.7c-0.1-1.2-0.2-2.3-0.3-3.4
		c-0.1-1-0.3-2-0.4-2.7c-0.3-1.2-0.7-2.3-1.1-3.3c-0.5-1-1.1-1.8-1.8-2.5c-0.7-0.7-1.6-1.2-2.6-1.6c-1-0.4-2.2-0.6-3.5-0.6
		c-1.4,0-2.8,0.2-4.2,0.7c-1.3,0.5-2.6,1.1-3.8,1.8c-1.2,0.8-2.4,1.7-3.5,2.7c-1.1,1-2.2,2.1-3.2,3.2c-0.6,3.6-1.1,6.9-1.6,9.6
		c-0.4,2.8-0.8,5.3-1.2,7.5c-0.4,2.2-0.7,4.2-1,5.9c-0.3,1.7-0.5,3.3-0.8,4.8c-0.3,1.5-0.5,3-0.7,4.4c-0.2,1.4-0.5,2.9-0.7,4.4
		H2149.1z"/>
	<path d="M2223.6-240.9c-1.4,0-2.7,0-3.9,0c-1.1,0-2.3-0.1-3.3-0.2c-1.1-0.1-2.1-0.3-3.2-0.6c-1.1-0.3-2.3-0.7-3.5-1.2
		c0.4-1.2,0.8-2.4,1.3-3.5s0.8-2.4,1.3-3.6c1.4,0.4,2.6,0.8,3.6,1c1,0.2,2.1,0.4,3.1,0.5c1,0.1,2.1,0.2,3.2,0.2c1.1,0,2.4,0,3.9,0
		h9.6c2.1,0,4.1,0.2,6.1,0.7c2,0.5,3.8,1.3,5.4,2.7c1.6,1.2,2.9,3,3.8,5.3c1,2.3,1.5,5.2,1.5,8.8v33.8h-8.5v-32.8
		c0-2.1-0.1-3.8-0.4-5.2c-0.3-1.4-0.8-2.5-1.5-3.3c-0.7-0.8-1.8-1.4-3.1-1.8c-1.3-0.4-2.9-0.5-4.9-0.5H2223.6z M2210.4-212.7
		c0-1.5,0-2.8,0-3.9c0-1.1,0.1-2.2,0.2-3.2c0.1-1,0.2-2,0.4-3.1c0.2-1,0.4-2.2,0.7-3.4c1.4,0.2,2.8,0.4,4.2,0.6
		c1.4,0.2,2.8,0.4,4.2,0.6c-0.2,1.2-0.4,2.2-0.5,3.2s-0.3,1.9-0.3,2.8c-0.1,0.9-0.1,1.9-0.2,3c0,1,0,2.2,0,3.6v15.3h-8.5V-212.7z"/>
	<path d="M2296.6-224.2c-0.3-3.1-0.5-5.7-0.6-7.9s-0.3-4-0.4-5.6c-0.2-1.6-0.4-3.1-0.8-4.4c-0.3-1.3-0.8-2.7-1.5-4.3
		c1.1-0.7,2.4-1.2,3.6-1.8c1.3-0.5,2.5-1,3.8-1.5c0.6,1.2,1.1,2.3,1.6,3.4c0.4,1.1,0.7,2.3,1,3.6c0.3,1.3,0.5,2.7,0.6,4.4
		c0.2,1.6,0.3,3.6,0.5,5.9l2.1,27.5c1.2,0.1,2.3,0.1,3.4,0.1c5.6,0,10.5-0.9,14.6-2.6c4.2-1.7,7.6-4.1,10.4-7.2
		c2.8-3.1,4.8-6.8,6.2-11c1.4-4.2,2-8.9,2-14c0-1.4,0-2.8-0.1-4.2s-0.2-2.8-0.4-4.2c1.4-0.4,2.7-0.7,4.1-1c1.3-0.3,2.8-0.5,4.3-0.8
		c0.3,1.4,0.5,2.9,0.6,4.4c0.1,1.5,0.2,3.1,0.2,4.7c0,7.2-1,13.5-3,19c-2,5.4-4.8,10-8.5,13.6c-3.7,3.6-8.2,6.4-13.5,8.2
		c-5.3,1.8-11.3,2.8-18,2.8c-1.6,0-3.2,0-4.9-0.1c-1.7-0.1-3.4-0.2-5.1-0.5L2296.6-224.2z M2326.4-249.5c0.5,1.6,0.7,3.1,0.7,4.7
		c0,1-0.1,1.9-0.2,2.9c-0.1,1-0.4,1.9-0.6,2.9c-0.5,1.6-1,3.3-1.7,4.9c-0.7,1.6-1.4,3.3-2.1,4.9l-5.5,12l-7.3-3.2l5.4-12
		c0.9-2.1,1.6-3.8,2.2-5.1c0.5-1.3,0.9-2.6,1.2-3.6c0.2-1,0.3-2,0.3-3.1c0-1-0.1-2.3-0.3-3.7L2326.4-249.5z"/>
	<path d="M2386-248.4l0.2,1.7c0.1,1.1,0.3,2.6,0.5,4.6c0.2,1.9,0.5,4.2,0.7,6.7c0.3,2.6,0.5,5.4,0.9,8.3c0.3,3,0.6,6.1,1,9.3
		c0.3,3.2,0.6,6.4,0.9,9.6c0.1,1.4,0.2,2.6,0.3,3.5c0.1,0.9,0.1,1.7,0.1,2.5c0,0.7,0,1.5-0.1,2.2c-0.1,0.7-0.2,1.6-0.3,2.7h-29.3
		v-7.5h21.3l-3.8-36.2h-12v-7.5H2386z"/>
	<path d="M2421.7-248.4v16c0,1.8,0,3.2,0,4.4c0,1.2-0.1,2.3-0.2,3.2c-0.1,1-0.2,1.9-0.4,2.9c-0.2,0.9-0.4,1.9-0.6,3.1l-8.3-1.2
		c0.2-1,0.3-1.9,0.4-2.7c0.1-0.8,0.2-1.7,0.3-2.6c0.1-0.9,0.2-2,0.2-3.1c0-1.1,0.1-2.5,0.1-4.1v-8.3h-11.3v-7.5H2421.7z"/>
	<path d="M2452.4-248.4v51.2h-8.5v-43.7h-8.6v-7.5H2452.4z"/>
	<path d="M2475.1-204.6c-1.1-3.2-1.9-6.2-2.4-9.1c-0.6-2.9-0.8-5.7-0.8-8.5c0-3.2,0.4-6.4,1.2-9.5c0.8-3.1,2.1-6.2,4-9.3
		c-0.9,0-1.7-0.1-2.4-0.2c-0.8-0.1-1.6-0.2-2.3-0.3c-0.8-0.1-1.6-0.3-2.4-0.6c-0.8-0.2-1.7-0.5-2.7-0.9c0.4-1.2,0.8-2.4,1.3-3.5
		c0.4-1.2,0.8-2.4,1.3-3.6c1.4,0.4,2.6,0.8,3.6,1c1.1,0.2,2.1,0.4,3.1,0.5c1,0.1,2.1,0.2,3.2,0.2c1.1,0,2.4,0,3.9,0h12.8
		c2.1,0,4.1,0.2,6.1,0.7c2,0.5,3.8,1.3,5.5,2.7c1.6,1.2,2.9,3,3.9,5.3c1,2.3,1.5,5.2,1.5,8.8v33.8h-8.5v-32.8c0-2-0.1-3.7-0.4-5.1
		c-0.3-1.4-0.8-2.5-1.5-3.3c-0.7-0.8-1.7-1.4-3-1.8c-1.2-0.4-2.9-0.5-4.8-0.5h-9.6c-1.8,2.5-3.1,5.3-3.9,8.4
		c-0.7,3.1-1.1,6.3-1.1,9.6c0,2.7,0.2,5.3,0.6,7.9c0.4,2.6,0.9,5,1.6,7.4l1.6,5.3c-0.1,0.9-0.1,1.7-0.2,2.5s-0.2,1.7-0.3,2.7h-19.5
		v-7.3H2475.1z"/>
	<path d="M2571.3-248.4v51.2h-8.5v-43.7h-8.6v-7.5H2571.3z"/>
	<path d="M2614.1-248.4c3,0,5.6,0.4,7.7,1.1c2.1,0.7,3.9,1.9,5.3,3.5c1,1.1,1.7,2.4,2.3,3.9s1,3.1,1.4,4.8c0.3,1.7,0.5,3.5,0.7,5.2
		c0.1,1.8,0.2,3.5,0.2,5.2c0,2.6-0.1,5.2-0.4,7.9c-0.4,3.3-1.2,6.2-2.3,8.8c-1.1,2.6-2.6,4.7-4.4,6.5c-1.8,1.8-3.9,3.1-6.4,4
		c-2.4,0.9-5.2,1.4-8.1,1.4c-3.8,0-7.1-0.6-9.8-1.9s-4.9-3-6.6-5.2c-1.7-2.2-3-4.8-3.7-7.8c-0.8-3-1.2-6.2-1.2-9.7c0-2,0.1-4,0.3-6
		c0.2-2.1,0.7-4.2,1.3-6.5c0.4-1.4,0.9-2.7,1.5-4c0.5-1.3,1.2-2.5,1.9-3.7c-1.5-0.1-2.9-0.3-4.2-0.6c-1.3-0.3-2.9-0.7-4.5-1.4
		c0.4-1.2,0.8-2.4,1.3-3.5c0.4-1.2,0.8-2.4,1.3-3.6c1.4,0.4,2.6,0.8,3.6,1c1,0.2,2.1,0.4,3.1,0.5c1,0.1,2.1,0.2,3.2,0.2
		c1.1,0,2.4,0,3.9,0H2614.1z M2602.1-240.9c-1.5,2.2-2.6,4.6-3.3,7.1c-0.8,2.5-1.2,5-1.4,7.5c-0.1,1-0.1,2-0.2,3c0,1-0.1,2-0.1,3
		c0,2.2,0.2,4.3,0.5,6.4c0.3,2,1,3.8,2,5.3c1,1.6,2.4,2.9,4.1,3.8c1.7,0.9,3.7,1.4,6,1.4c1.7,0,3.3-0.3,4.7-0.8
		c1.4-0.5,2.7-1.3,3.8-2.4c1.1-1.1,2-2.3,2.7-3.9c0.7-1.5,1.2-3.3,1.5-5.3c0.2-1.5,0.3-2.8,0.4-4.1c0.1-1.3,0.1-2.5,0.1-3.7
		c0-1.7-0.1-3.4-0.2-5s-0.4-3.2-0.6-4.9c-0.2-1.4-0.5-2.5-0.9-3.5c-0.4-0.9-1-1.7-1.7-2.3c-0.7-0.6-1.7-1-2.8-1.2
		c-1.1-0.2-2.6-0.4-4.3-0.4H2602.1z"/>
	<path d="M2652.8-250.6c0.7,0.1,1.6,0.3,2.7,0.5c1.1,0.2,2.4,0.5,3.7,0.7s2.8,0.6,4.2,0.9c1.5,0.3,2.9,0.6,4.3,1
		c1.4,0.3,2.6,0.7,3.8,1c1.1,0.3,2.1,0.6,2.8,0.9c1.8,0.7,3.2,1.5,4.4,2.4c1.1,0.9,2,2,2.7,3.2c0.7,1.2,1.1,2.5,1.4,4
		c0.2,1.4,0.4,3,0.4,4.7v24.5c0,0.8,0,1.5-0.1,2.2c0,0.7-0.1,1.4-0.2,2.2c-0.1,0.8-0.3,1.6-0.5,2.4c-0.2,0.9-0.4,1.8-0.7,2.9H2641
		v-7.4h33.6v-25.6c0-1.7-0.1-3.1-0.3-4.2c-0.2-1.1-0.6-2-1.2-2.7c-0.6-0.7-1.3-1.3-2.2-1.7c-0.9-0.4-2.1-0.8-3.6-1.2
		c-1.4-0.4-2.9-0.7-4.5-1.1c-1.6-0.4-3.1-0.7-4.6-1l-5.6,12.7l9.9,5.9l-4,6.5l-16.2-9.6L2652.8-250.6z"/>
	<path d="M2709-240.9c-1.4,0-2.7,0-3.9,0c-1.1,0-2.3-0.1-3.3-0.2c-1.1-0.1-2.1-0.3-3.2-0.6s-2.3-0.7-3.5-1.2
		c0.4-1.2,0.8-2.4,1.3-3.5c0.4-1.2,0.8-2.4,1.3-3.6c1.4,0.4,2.6,0.8,3.6,1c1,0.2,2.1,0.4,3.1,0.5c1,0.1,2.1,0.2,3.2,0.2
		c1.1,0,2.4,0,3.9,0h4.6c2.1,0,4.1,0.2,6.1,0.7c2,0.5,3.8,1.3,5.4,2.6c1.6,1.3,2.9,3.1,3.9,5.3c1,2.3,1.5,5.2,1.5,8.8v33.8h-8.5
		v-32.8c0-2-0.1-3.7-0.4-5.1c-0.3-1.4-0.8-2.5-1.6-3.3s-1.8-1.4-3.1-1.8c-1.3-0.4-2.9-0.5-4.9-0.5H2709z"/>
	<path d="M2762.8-248.4v51.2h-8.5v-43.7h-8.6v-7.5H2762.8z"/>
	<path d="M2814.4-262.4v14h28.4c0.3,1.1,0.5,2,0.7,2.7c0.2,0.7,0.3,1.4,0.4,1.9c0.1,0.6,0.1,1.1,0.1,1.6c0,0.5,0,1.1,0,1.6v10.6
		c0,3.9-0.8,7.5-2.3,11c-1.6,3.4-3.9,6.9-7,10.3l-12.1,13.2l-6-5.4l11.3-12.6c1.1-1.2,2.1-2.5,3-3.6c0.9-1.2,1.7-2.4,2.4-3.7
		c0.7-1.3,1.2-2.6,1.6-4.1c0.4-1.5,0.6-3.1,0.6-4.8v-11.4h-29.6v-21.5H2814.4z"/>
	<path d="M2858.2-224.7c0-1.6,0-3.1,0.1-4.5c0-1.4,0.2-2.7,0.4-4s0.5-2.6,0.8-3.9c0.4-1.3,0.9-2.7,1.5-4.2c-1.1-0.1-2.2-0.3-3.3-0.6
		c-1.1-0.3-2.3-0.7-3.6-1.2c0.4-1.2,0.8-2.4,1.3-3.5c0.4-1.2,0.8-2.4,1.3-3.6c1.4,0.4,2.6,0.8,3.6,1c1.1,0.2,2.1,0.4,3.1,0.5
		c1,0.1,2.1,0.2,3.2,0.2c1.1,0,2.4,0,3.9,0h12.2c2.1,0,4.1,0.2,6.1,0.7c2,0.5,3.8,1.3,5.4,2.6c1.6,1.2,2.9,3,3.9,5.2
		c1,2.2,1.5,5.1,1.5,8.6v34.1h-8.5v-32.8c0-2.1-0.1-3.8-0.4-5.2c-0.3-1.4-0.8-2.5-1.6-3.3c-0.8-0.8-1.8-1.4-3.1-1.8
		c-1.3-0.3-2.9-0.5-4.8-0.5h-11.8c-0.7,1.4-1.2,2.7-1.5,4.1c-0.3,1.4-0.6,2.7-0.7,4c-0.1,1.3-0.2,2.6-0.2,3.9c0,1.3,0,2.5,0,3.7v28
		h-8.5V-224.7z"/>
	<path d="M2927.6-240.9c-1.4,0-2.7,0-3.9,0c-1.1,0-2.3-0.1-3.3-0.2c-1.1-0.1-2.1-0.3-3.2-0.6c-1.1-0.3-2.3-0.7-3.5-1.2
		c0.4-1.2,0.8-2.4,1.3-3.5c0.4-1.2,0.8-2.4,1.3-3.6c1.4,0.4,2.6,0.8,3.6,1c1.1,0.2,2.1,0.4,3.1,0.5c1,0.1,2.1,0.2,3.2,0.2
		c1.1,0,2.4,0,3.9,0h1.4c2.1,0,4.1,0.2,6.1,0.7c2,0.5,3.8,1.3,5.4,2.6c1.6,1.2,2.9,3,3.8,5.2c1,2.2,1.5,5.1,1.5,8.6v26.6h9.1v7.5
		h-46.6v-7.5h29v-25.4c0-2-0.1-3.7-0.4-5.1c-0.3-1.4-0.8-2.5-1.6-3.3s-1.7-1.4-3-1.8c-1.3-0.4-2.9-0.5-4.9-0.5H2927.6z"/>
	<path d="M2980.4-240.9c-1.4,0-2.7,0-3.9,0c-1.1,0-2.3-0.1-3.3-0.2c-1.1-0.1-2.1-0.3-3.2-0.6s-2.3-0.7-3.5-1.2
		c0.4-1.2,0.8-2.4,1.3-3.5c0.4-1.2,0.8-2.4,1.3-3.6c1.4,0.4,2.6,0.8,3.6,1c1,0.2,2.1,0.4,3.1,0.5c1,0.1,2.1,0.2,3.2,0.2
		c1.1,0,2.4,0,3.9,0h4.6c2.1,0,4.1,0.2,6.1,0.7c2,0.5,3.8,1.3,5.4,2.6c1.6,1.3,2.9,3.1,3.9,5.3c1,2.3,1.5,5.2,1.5,8.8v33.8h-8.5
		v-32.8c0-2-0.1-3.7-0.4-5.1c-0.3-1.4-0.8-2.5-1.6-3.3s-1.8-1.4-3.1-1.8c-1.3-0.4-2.9-0.5-4.9-0.5H2980.4z"/>
	<path d="M3035.9-248.4v16c0,1.8,0,3.2,0,4.4c0,1.2-0.1,2.3-0.2,3.2c-0.1,1-0.2,1.9-0.4,2.9c-0.2,0.9-0.4,1.9-0.6,3.1l-8.3-1.2
		c0.2-1,0.3-1.9,0.4-2.7c0.1-0.8,0.2-1.7,0.3-2.6c0.1-0.9,0.2-2,0.2-3.1c0-1.1,0.1-2.5,0.1-4.1v-8.3h-11.3v-7.5H3035.9z"/>
	<path d="M3064.3-240.9c-1.4,0-2.7,0-3.9,0c-1.1,0-2.3-0.1-3.3-0.2c-1.1-0.1-2.1-0.3-3.2-0.6c-1.1-0.3-2.3-0.7-3.5-1.2
		c0.4-1.2,0.8-2.4,1.3-3.5c0.4-1.2,0.8-2.4,1.3-3.6c1.4,0.4,2.6,0.8,3.6,1c1.1,0.2,2.1,0.4,3.1,0.5c1,0.1,2.1,0.2,3.2,0.2
		c1.1,0,2.4,0,3.9,0h3c2,0,4,0.3,5.9,0.8c2,0.5,3.7,1.4,5.3,2.7c1.6,1.3,2.9,3.1,3.9,5.3c1,2.2,1.6,5.1,1.8,8.6
		c0.1,1.8,0.2,3.7,0.2,5.5c0,1.8,0.1,3.7,0.1,5.6c0,1.9,0,4,0,6.1c0,2.1,0,4.4,0,6.8c0,0.8,0,1.5,0,2.1c0,0.6-0.1,1.3-0.2,2
		c-0.1,0.7-0.2,1.5-0.4,2.4c-0.2,0.9-0.4,1.9-0.7,3.2h-37.6v-7.5h30.6c0-4,0-8.2-0.1-12.5c-0.1-4.3-0.2-8.6-0.3-12.8
		c-0.1-2.1-0.3-3.8-0.6-5.2c-0.3-1.4-0.8-2.5-1.6-3.3c-0.7-0.8-1.7-1.4-3-1.8c-1.3-0.4-2.9-0.5-4.9-0.5H3064.3z"/>
	<path d="M3101.5-224.7c0-1.6,0-3.1,0.1-4.5c0-1.4,0.2-2.7,0.4-4c0.2-1.3,0.5-2.6,0.8-3.9c0.4-1.3,0.9-2.7,1.5-4.2
		c-1.1-0.1-2.2-0.3-3.3-0.6s-2.3-0.7-3.6-1.2c0.4-1.2,0.8-2.4,1.3-3.5s0.8-2.4,1.3-3.6c1.4,0.4,2.6,0.8,3.6,1c1,0.2,2.1,0.4,3.1,0.5
		c1,0.1,2.1,0.2,3.2,0.2c1.1,0,2.4,0,3.9,0h13.3c2.1,0,4.1,0.2,6.1,0.7c2,0.5,3.8,1.3,5.4,2.6c1.6,1.2,2.9,3,3.9,5.2
		c1,2.2,1.5,5.1,1.5,8.6v34.1h-42.3V-224.7z M3135.4-230.1c0-2.1-0.1-3.8-0.4-5.2c-0.3-1.4-0.8-2.5-1.6-3.3
		c-0.8-0.8-1.8-1.4-3.1-1.8c-1.3-0.3-2.9-0.5-4.8-0.5h-12.9c-0.7,1.4-1.2,2.7-1.5,4.1c-0.3,1.4-0.6,2.7-0.7,4
		c-0.1,1.3-0.2,2.6-0.2,3.9c0,1.3,0,2.5,0,3.7v20.5h25.3V-230.1z"/>
	<path d="M3213-242.4c0.3-1.2,0.7-2.5,1-3.7c0.3-1.2,0.7-2.4,1.1-3.7l14.5,3.8c0.1,1.1,0.2,2.3,0.2,3.4c0.1,1.1,0.1,2.3,0.1,3.4
		c-0.3,2.8-0.8,5.5-1.5,8.1c-0.6,2.6-1.5,5.2-2.5,7.7c-1,2.5-2.3,4.9-3.7,7.2c-1.5,2.3-3.2,4.5-5.1,6.6c-2.1,2.2-4.4,4.1-7,5.9
		c-2.6,1.8-5.4,3.4-8.5,4.8c-2.2,1.1-4.6,2-7,2.9s-5.1,1.7-7.9,2.5l-2.4-7.6c2.6-0.8,5.2-1.6,7.9-2.5c2.7-0.9,5.5-2,8.2-3.3
		c-1.8-4.6-3.5-9.2-5.2-13.8c-1.7-4.6-3.5-9.2-5.2-13.8c-0.5-1.2-0.9-2.1-1.2-2.8c-0.3-0.7-0.8-1.3-1.4-1.9
		c-0.6-0.6-1.4-1.1-2.3-1.6c-1-0.5-2.3-1.1-3.9-1.9c0.6-1.2,1.2-2.4,1.8-3.5c0.6-1.2,1.3-2.4,1.9-3.5c1.8,0.7,3.3,1.4,4.6,2
		s2.4,1.2,3.3,2c0.9,0.7,1.7,1.4,2.3,2.3c0.6,0.9,1.2,2,1.8,3.4c0.3,0.9,0.7,1.7,1,2.6s0.7,1.8,1.1,2.9c0.4,1.1,0.8,2.3,1.3,3.6
		c0.5,1.4,1.1,3,1.7,4.8c0.7,1.9,1.4,4,2.3,6.5c0.9,2.5,1.9,5.3,3.1,8.6c2.2-1.6,4-3.4,5.6-5.5c1.6-2.1,2.9-4.3,4-6.8
		c1.1-2.5,2-5.1,2.7-7.9c0.7-2.8,1.2-5.8,1.6-9.1L3213-242.4z"/>
	<path d="M3248-262.4v14h28.4c0.3,1.1,0.5,2,0.7,2.7c0.2,0.7,0.3,1.4,0.4,1.9c0.1,0.6,0.1,1.1,0.1,1.6c0,0.5,0,1.1,0,1.6v10.6
		c0,3.9-0.8,7.5-2.3,11c-1.6,3.4-3.9,6.9-7,10.3l-12.1,13.2l-6-5.4l11.3-12.6c1.1-1.2,2.1-2.5,3-3.6c0.9-1.2,1.7-2.4,2.4-3.7
		c0.7-1.3,1.2-2.6,1.6-4.1c0.4-1.5,0.6-3.1,0.6-4.8v-11.4h-29.6v-21.5H3248z"/>
	<path d="M3321.3-224.2c-0.3-3.1-0.5-5.7-0.6-7.9s-0.3-4-0.4-5.6c-0.2-1.6-0.4-3.1-0.8-4.4c-0.3-1.3-0.8-2.7-1.5-4.3
		c1.1-0.7,2.4-1.2,3.6-1.8c1.3-0.5,2.5-1,3.8-1.5c0.6,1.2,1.1,2.3,1.6,3.4c0.4,1.1,0.7,2.3,1,3.6c0.3,1.3,0.5,2.7,0.6,4.4
		c0.2,1.6,0.3,3.6,0.5,5.9l2.1,27.5c1.2,0.1,2.3,0.1,3.4,0.1c5.6,0,10.5-0.9,14.6-2.6c4.2-1.7,7.6-4.1,10.4-7.2
		c2.8-3.1,4.8-6.8,6.2-11c1.4-4.2,2-8.9,2-14c0-1.4,0-2.8-0.1-4.2s-0.2-2.8-0.4-4.2c1.4-0.4,2.7-0.7,4.1-1c1.3-0.3,2.8-0.5,4.3-0.8
		c0.3,1.4,0.5,2.9,0.6,4.4c0.1,1.5,0.2,3.1,0.2,4.7c0,7.2-1,13.5-3,19c-2,5.4-4.8,10-8.5,13.6c-3.7,3.6-8.2,6.4-13.5,8.2
		c-5.3,1.8-11.3,2.8-18,2.8c-1.6,0-3.2,0-4.9-0.1c-1.7-0.1-3.4-0.2-5.1-0.5L3321.3-224.2z M3351.2-249.5c0.5,1.6,0.7,3.1,0.7,4.7
		c0,1-0.1,1.9-0.2,2.9c-0.1,1-0.4,1.9-0.6,2.9c-0.5,1.6-1,3.3-1.7,4.9c-0.7,1.6-1.4,3.3-2.1,4.9l-5.5,12l-7.3-3.2l5.4-12
		c0.9-2.1,1.6-3.8,2.2-5.1c0.5-1.3,0.9-2.6,1.2-3.6c0.2-1,0.3-2,0.3-3.1c0-1-0.1-2.3-0.3-3.7L3351.2-249.5z"/>
	<path d="M3403.8-240.9c-1.4,0-2.7,0-3.9,0c-1.1,0-2.3-0.1-3.3-0.2c-1.1-0.1-2.1-0.3-3.2-0.6c-1.1-0.3-2.3-0.7-3.5-1.2
		c0.4-1.2,0.8-2.4,1.3-3.5c0.4-1.2,0.8-2.4,1.3-3.6c1.4,0.4,2.6,0.8,3.6,1c1.1,0.2,2.1,0.4,3.1,0.5c1,0.1,2.1,0.2,3.2,0.2
		c1.1,0,2.4,0,3.9,0h1.4c2.1,0,4.1,0.2,6.1,0.7c2,0.5,3.8,1.3,5.4,2.6c1.6,1.2,2.9,3,3.8,5.2c1,2.2,1.5,5.1,1.5,8.6v26.6h9.1v7.5
		h-46.6v-7.5h29v-25.4c0-2-0.1-3.7-0.4-5.1c-0.3-1.4-0.8-2.5-1.6-3.3s-1.7-1.4-3-1.8c-1.3-0.4-2.9-0.5-4.9-0.5H3403.8z"/>
	<path d="M3460.7-248.4v51.2h-8.5v-43.7h-8.6v-7.5H3460.7z"/>
	<path d="M3503.5-248.4c3,0,5.6,0.4,7.7,1.1c2.1,0.7,3.9,1.9,5.3,3.5c1,1.1,1.7,2.4,2.3,3.9s1,3.1,1.4,4.8c0.3,1.7,0.5,3.5,0.7,5.2
		c0.1,1.8,0.2,3.5,0.2,5.2c0,2.6-0.1,5.2-0.4,7.9c-0.4,3.3-1.2,6.2-2.3,8.8c-1.1,2.6-2.6,4.7-4.4,6.5c-1.8,1.8-3.9,3.1-6.4,4
		c-2.4,0.9-5.2,1.4-8.1,1.4c-3.8,0-7.1-0.6-9.8-1.9s-4.9-3-6.6-5.2c-1.7-2.2-3-4.8-3.7-7.8c-0.8-3-1.2-6.2-1.2-9.7c0-2,0.1-4,0.3-6
		c0.2-2.1,0.7-4.2,1.3-6.5c0.4-1.4,0.9-2.7,1.5-4c0.5-1.3,1.2-2.5,1.9-3.7c-1.5-0.1-2.9-0.3-4.2-0.6c-1.3-0.3-2.9-0.7-4.5-1.4
		c0.4-1.2,0.8-2.4,1.3-3.5c0.4-1.2,0.8-2.4,1.3-3.6c1.4,0.4,2.6,0.8,3.6,1c1,0.2,2.1,0.4,3.1,0.5c1,0.1,2.1,0.2,3.2,0.2
		c1.1,0,2.4,0,3.9,0H3503.5z M3491.5-240.9c-1.5,2.2-2.6,4.6-3.3,7.1c-0.8,2.5-1.2,5-1.4,7.5c-0.1,1-0.1,2-0.2,3c0,1-0.1,2-0.1,3
		c0,2.2,0.2,4.3,0.5,6.4c0.3,2,1,3.8,2,5.3c1,1.6,2.4,2.9,4.1,3.8c1.7,0.9,3.7,1.4,6,1.4c1.7,0,3.3-0.3,4.7-0.8
		c1.4-0.5,2.7-1.3,3.8-2.4c1.1-1.1,2-2.3,2.7-3.9c0.7-1.5,1.2-3.3,1.5-5.3c0.2-1.5,0.3-2.8,0.4-4.1c0.1-1.3,0.1-2.5,0.1-3.7
		c0-1.7-0.1-3.4-0.2-5s-0.4-3.2-0.6-4.9c-0.2-1.4-0.5-2.5-0.9-3.5c-0.4-0.9-1-1.7-1.7-2.3c-0.7-0.6-1.7-1-2.8-1.2
		c-1.1-0.2-2.6-0.4-4.3-0.4H3491.5z"/>
</g>
<g>
	<g id="XMLID_34_">
		<path fill="#1E1E1E" d="M759.6,262.9c0.4,5.8,0.4,11.2,0.4,17.1c0,20.6-2.3,40.7-6.6,59.7L615,201.3c0-5.4,0.4-10.5,1.9-14.3
			c14,0,28.3,0,42.3,0c0-7.8,0-15.1,0-22.9l0.8-0.8L759.6,262.9z"/>
		<path fill="#383838" d="M615.7,119.1l-0.8,0.8c-7.8,0-15.1,0-22.9,0c0,14.7,0,29.5,0,43.8c-5,0-9.7,0-14.7,0l-48.5-48.5
			c-79.1-2.3-171.4-7.8-182.7,60.1c-8.9,55.8,30.2,88.4,79.9,89.6c-8.5,16.3,2.7,34.9,6.6,42.3c-59.3,3.1-114,18.2-109.4,76.8
			c0.8,11.2,5.4,21.3,12.4,29.5c1.9,2.3,4.3,4.7,7,7l0,0L482.3,560c-0.8,0-1.6,0-2.7,0C325.3,560,200,434.7,200,280S325.3,0,480,0
			c148.9,0,270.7,116.3,279.6,262.9l-99.7-99.7L615.7,119.1z"/>
		<path fill="#1E1E1E" d="M615,201.3l138.8,138.8c-3.1,14-7,27.5-12,40.7L592.5,231.5l0.4-0.4c7.8,0,15.1,0,22.9,0
			C615.7,221.4,615,210.6,615,201.3z"/>
		<path fill="#1E1E1E" d="M547.9,186.9l43.8,43.8L741,380.1c-39.9,104.3-140.8,178.4-258.7,179.6L342.7,420
			c43,36.8,144.3,33,177.6-10.5c17.5-22.5,15.9-61.7,0-83c-13.6-18.6-56.6-35.7-55.1-58.2c1.6-22.9,43.8-31.8,47.3-70.2
			c2.3-27.5-12.4-49.6-24.4-60.1c7,0,14,0,21.3,0c5.8-6.6,23.3-17.8,19.4-22.9l48.9,48.9c-9.7,0-19.4,0-29.5,0
			C548.3,171.4,548.3,179.2,547.9,186.9L547.9,186.9z"/>
		<path fill="#FFFFFF" d="M659.2,164c0,7.8,0,15.1,0,22.9c-14,0-28.3,0-42.3,0c-1.2,4.3-1.9,8.9-1.9,14.3l-18.6-18.6L577.7,164
			c5,0,9.7,0,14.7,0c0-14.7,0-29.5,0-43.8c7.8,0,15.1,0,22.9,0c0,14,0,28.3,0,42.3C626.6,166,645.2,162.9,659.2,164z"/>
		<path fill="#1E1E1E" d="M659.2,164c-14-1.2-32.6,2.3-43.8-1.6c0-14,0-28.3,0-42.3l0.8-0.8l43.8,43.8L659.2,164z"/>
		<path fill="#FFFFFF" d="M615,201.3c0,9.7,0.8,20.6,0.4,29.5c-7.8,0-15.1,0-22.9,0c0-14.7,0-29.5,0-43.8l4.3-4.3L615,201.3z"/>
		<path fill="#FFFFFF" d="M596.3,182.7l-4.3,4.3c-14.7,0-29.5,0-43.8,0c0-7.8,0-15.1,0-22.9c9.7,0,19.4,0,29.5,0L596.3,182.7z"/>
		<path fill="#1E1E1E" d="M592.5,186.5c0,14.7,0,29.5,0,43.8l-0.4,0.4l-44.2-43.8l0.4-0.4C563,186.5,577.7,186.5,592.5,186.5z"/>
		<path fill="#FFFFFF" d="M528.9,115.2c3.5,5-14,16.3-19.4,22.9c-7,0-14,0-21.3,0c12,10.5,27.1,33,24.4,60.1
			c-3.5,38.4-45.8,47.3-47.3,70.2c-1.6,22.5,41.5,39.6,55.5,58.6c15.9,21.7,17.5,60.5,0,83c-33.4,43.4-134.6,47.3-177.6,10.5l0,0
			l-7-7c-7-8.1-11.6-17.8-12.4-29.5c-5-58.6,49.6-73.7,109-76.8c-3.9-7.8-15.1-26-6.6-42.3c-49.6-1.6-89.2-33.7-79.9-89.6
			C357.5,107,449.8,112.9,528.9,115.2z M497.8,392.1c17.8-48.1-31-75.2-73.3-71.7c-31.4,2.7-58.6,15.5-63.6,42.3
			C346.2,439.4,477.7,446,497.8,392.1z M470.3,230.7c20.6-43-16.3-107.4-58.6-97.7c-57.8,12.8-27.5,127.2,37.6,115.6
			C455.2,247.4,466.8,237.7,470.3,230.7z"/>
		<path fill="#1E1E1E" d="M424.5,320.3c42.3-3.5,91.1,23.3,73.3,71.7c-20.2,53.9-151.6,47.3-136.9-29.5
			C366,335.8,393.1,323,424.5,320.3z"/>
		<path fill="#1E1E1E" d="M411.4,133c42.3-9.7,79.5,54.7,58.9,97.7c-3.5,7-15.1,16.7-21.3,17.8C383.8,260.2,354,145.8,411.4,133z"/>
		<path fill="#FFFFFF" d="M335.7,413.4l7,7C340.4,418.1,338.1,415.7,335.7,413.4z"/>
	</g>
</g>
</svg>
