<?xml version="1.0" encoding="utf-8"?>
<!-- Generator: Adobe Illustrator 18.0.0, SVG Export Plug-In . SVG Version: 6.00 Build 0)  -->
<!DOCTYPE svg PUBLIC "-//W3C//DTD SVG 1.1//EN" "http://www.w3.org/Graphics/SVG/1.1/DTD/svg11.dtd">
<svg version="1.1" id="Layer_1" xmlns="http://www.w3.org/2000/svg" xmlns:xlink="http://www.w3.org/1999/xlink" x="0px" y="0px"
	 viewBox="0 0 80 80" enable-background="new 0 0 80 80" xml:space="preserve">
<rect x="-872" y="-116" fill="#515151" width="1660" height="361"/>
<g>
	<path opacity="0.62" fill="#FFFFFF" d="M80,65c0,8.3-6.7,15-15,15H15C6.7,80,0,73.3,0,65V15C0,6.7,6.7,0,15,0h50
		c8.3,0,15,6.7,15,15V65z"/>
	<path id="path3002_1_" inkscape:connector-curvature="0" sodipodi:nodetypes="ccccccccccccccccc" fill="#515151" d="M37,80V45.5H26
		V33.1h11V22.5c0-10.5,6.7-17.1,17-17.1c6.2,0,10.6,0.5,10.6,0.5v12h-7c-4.4,0-6.8,1.4-6.8,6.1v9.1h13.3l-1.7,12.4H50.8V80H37z"/>
</g>
</svg>
