<?xml version="1.0" encoding="utf-8"?>
<!-- Generator: Adobe Illustrator 18.0.0, SVG Export Plug-In . SVG Version: 6.00 Build 0)  -->
<!DOCTYPE svg PUBLIC "-//W3C//DTD SVG 1.1//EN" "http://www.w3.org/Graphics/SVG/1.1/DTD/svg11.dtd">
<svg version="1.1" id="Layer_1" xmlns="http://www.w3.org/2000/svg" xmlns:xlink="http://www.w3.org/1999/xlink" x="0px" y="0px"
	 viewBox="0 0 960 560" enable-background="new 0 0 960 560" xml:space="preserve">
<rect x="-501.9" y="-231.9" fill="none" width="1964.3" height="270.3"/>
<g enable-background="new    ">
	<path d="M1305-204.7c-1.4,0-2.7,0-3.9,0c-1.1,0-2.3-0.1-3.3-0.2c-1.1-0.1-2.1-0.3-3.2-0.6s-2.3-0.7-3.5-1.2
		c0.4-1.2,0.8-2.4,1.3-3.5c0.4-1.2,0.8-2.4,1.3-3.6c1.4,0.4,2.6,0.8,3.6,1c1.1,0.2,2.1,0.4,3.1,0.5c1,0.1,2.1,0.2,3.2,0.2
		c1.1,0,2.4,0,3.9,0h26.1c0.3,0.9,0.5,1.7,0.6,2.4c0.1,0.7,0.3,1.3,0.4,1.9c0.2,1.1,0.3,2.1,0.3,3.2c0.1,1.1,0.1,2.2,0.1,3.4v6.9
		c0,1.7-0.1,3.2-0.2,4.7c-0.1,1.5-0.4,2.9-0.8,4.3c-0.4,1.4-0.9,2.7-1.6,4c-0.7,1.3-1.6,2.6-2.8,4c-2.4,2.8-4.8,5.5-7.1,8
		c-2.3,2.5-4.7,5.1-7,7.7l-6.5-5.9l5.5-5.8c1.5-1.6,2.9-3.1,4.4-4.7c1.4-1.6,2.7-3,3.9-4.4c0.9-1.1,1.6-2.2,2.1-3.2
		c0.5-1.1,0.9-2.2,1.1-3.3c0.2-1.1,0.4-2.3,0.4-3.6c0-1.3,0.1-2.7,0.1-4.2c0-1.3,0-2.6,0-3.9c0-1.3-0.1-2.6-0.1-4H1305z
		 M1292.3-179.5c0-1.4,0-2.7,0-3.8s0.1-2.3,0.1-3.3c0.1-1.1,0.2-2.1,0.4-3.2c0.2-1,0.4-2.1,0.6-3.3c1.4,0.2,2.8,0.4,4.2,0.6
		c1.4,0.2,2.8,0.4,4.2,0.6c-0.2,1.2-0.4,2.2-0.5,3.2c-0.1,0.9-0.3,1.9-0.3,2.8c-0.1,0.9-0.1,1.9-0.2,3c0,1,0,2.2,0,3.6v33.8h-8.5
		V-179.5z"/>
	<path d="M1349.2-188.5c0-1.6,0-3.1,0.1-4.5c0-1.4,0.2-2.7,0.4-4s0.5-2.6,0.8-3.9c0.4-1.3,0.9-2.7,1.5-4.2c-1.1-0.1-2.2-0.3-3.3-0.6
		c-1.1-0.3-2.3-0.7-3.6-1.2c0.4-1.2,0.8-2.4,1.3-3.5c0.4-1.2,0.8-2.4,1.3-3.6c1.4,0.4,2.6,0.8,3.6,1c1.1,0.2,2.1,0.4,3.1,0.5
		c1,0.1,2.1,0.2,3.2,0.2c1.1,0,2.4,0,3.9,0h12.2c2.1,0,4.1,0.2,6.1,0.7c2,0.5,3.8,1.3,5.4,2.6c1.6,1.2,2.9,3,3.9,5.2
		c1,2.2,1.5,5.1,1.5,8.6v34.1h-8.5v-32.8c0-2.1-0.1-3.8-0.4-5.2c-0.3-1.4-0.8-2.5-1.6-3.3c-0.8-0.8-1.8-1.4-3.1-1.8
		c-1.3-0.3-2.9-0.5-4.8-0.5h-11.8c-0.7,1.4-1.2,2.7-1.5,4.1c-0.3,1.4-0.6,2.7-0.7,4c-0.1,1.3-0.2,2.6-0.2,3.9c0,1.3,0,2.5,0,3.7v28
		h-8.5V-188.5z"/>
	<path d="M1420.4-212.2v51.2h-8.5v-43.7h-8.6v-7.5H1420.4z"/>
	<path d="M1478.9-204.7c-1.4,0-2.7,0-3.9,0c-1.1,0-2.3-0.1-3.3-0.2c-1.1-0.1-2.1-0.3-3.2-0.6c-1.1-0.3-2.3-0.7-3.5-1.2
		c0.4-1.2,0.8-2.4,1.3-3.5c0.4-1.2,0.8-2.4,1.3-3.6c1.4,0.4,2.6,0.8,3.6,1c1.1,0.2,2.1,0.4,3.1,0.5c1,0.1,2.1,0.2,3.2,0.2
		c1.1,0,2.4,0,3.9,0h3c2,0,4,0.3,5.9,0.8c2,0.5,3.7,1.4,5.3,2.7c1.6,1.3,2.9,3.1,3.9,5.3c1,2.2,1.6,5.1,1.8,8.6
		c0.1,1.8,0.2,3.7,0.2,5.5c0,1.8,0.1,3.7,0.1,5.6c0,1.9,0,4,0,6.1c0,2.1,0,4.4,0,6.8c0,0.8,0,1.5,0,2.1c0,0.6-0.1,1.3-0.2,2
		c-0.1,0.7-0.2,1.5-0.4,2.4c-0.2,0.9-0.4,1.9-0.7,3.2h-37.6v-7.5h30.6c0-4,0-8.2-0.1-12.5c-0.1-4.3-0.2-8.6-0.3-12.8
		c-0.1-2.1-0.3-3.8-0.6-5.2c-0.3-1.4-0.8-2.5-1.6-3.3c-0.7-0.8-1.7-1.4-3-1.8c-1.3-0.4-2.9-0.5-4.9-0.5H1478.9z"/>
	<path d="M1513.2-160.6c0.5-3.2,1-6.1,1.4-8.5s0.8-4.6,1.1-6.4c0.3-1.9,0.6-3.6,0.9-5c0.2-1.5,0.5-3,0.7-4.4
		c0.2-1.4,0.5-2.9,0.7-4.4c0.2-1.5,0.5-3.2,0.8-5.1c0.2-1.6,0.2-3,0.1-4.2c-0.1-1.1-0.4-2.2-0.8-3.3c-0.4-1.1-1.1-2.2-1.8-3.4
		c-0.8-1.2-1.8-2.7-2.9-4.5c0.7-0.4,1.2-0.8,1.8-1.1c0.5-0.3,1.1-0.7,1.6-1c0.6-0.3,1.2-0.7,1.8-1.1c0.6-0.4,1.4-0.8,2.3-1.4
		c0.8,1.1,1.4,2,1.9,2.8c0.5,0.8,1,1.5,1.5,2.2c0.4,0.7,0.8,1.3,1.1,2c0.3,0.7,0.7,1.3,1,2.1c1.4-1.3,2.7-2.4,4-3.4
		c1.3-1,2.6-1.8,3.9-2.5c1.3-0.7,2.7-1.2,4.2-1.6c1.5-0.4,3.1-0.5,4.9-0.5c4.3,0,7.9,1.1,10.8,3.4c2.9,2.2,4.8,5.7,5.8,10.4
		c0.3,1.3,0.5,2.9,0.6,4.9c0.1,2,0.2,4,0.2,6.1c0,2.1,0.1,4.1,0,6.1c0,2,0,3.7,0,5.1c0,2.3-0.1,4.4-0.1,6.5
		c-0.1,2.1-0.1,3.8-0.2,5.2c-0.1,0.7-0.1,1.5-0.2,2.3c-0.1,0.8-0.2,1.6-0.3,2.5h-24.3v-7.5h16.5c0-0.6,0.1-1.2,0.1-1.8
		c0-0.7,0.1-1.5,0.1-2.6c0-1.1,0-2.5,0-4.3c0-1.8,0-4,0-6.8c0-1.2,0-2.5,0-3.8c0-1.3-0.1-2.5-0.1-3.7c-0.1-1.2-0.2-2.3-0.3-3.4
		c-0.1-1-0.3-2-0.4-2.7c-0.3-1.2-0.7-2.3-1.1-3.3c-0.5-1-1.1-1.8-1.8-2.5c-0.7-0.7-1.6-1.2-2.6-1.6c-1-0.4-2.2-0.6-3.5-0.6
		c-1.4,0-2.8,0.2-4.2,0.7c-1.3,0.5-2.6,1.1-3.8,1.8c-1.2,0.8-2.4,1.7-3.5,2.7c-1.1,1-2.2,2.1-3.2,3.2c-0.6,3.6-1.1,6.9-1.6,9.6
		c-0.4,2.8-0.8,5.3-1.2,7.5c-0.4,2.2-0.7,4.2-1,5.9c-0.3,1.7-0.5,3.3-0.8,4.8c-0.3,1.5-0.5,3-0.7,4.4c-0.2,1.4-0.5,2.9-0.7,4.4
		H1513.2z"/>
	<path d="M1587.8-204.7c-1.4,0-2.7,0-3.9,0c-1.1,0-2.3-0.1-3.3-0.2c-1.1-0.1-2.1-0.3-3.2-0.6c-1.1-0.3-2.3-0.7-3.5-1.2
		c0.4-1.2,0.8-2.4,1.3-3.5s0.8-2.4,1.3-3.6c1.4,0.4,2.6,0.8,3.6,1c1,0.2,2.1,0.4,3.1,0.5c1,0.1,2.1,0.2,3.2,0.2c1.1,0,2.4,0,3.9,0
		h9.6c2.1,0,4.1,0.2,6.1,0.7c2,0.5,3.8,1.3,5.4,2.7c1.6,1.2,2.9,3,3.8,5.3c1,2.3,1.5,5.2,1.5,8.8v33.8h-8.5v-32.8
		c0-2.1-0.1-3.8-0.4-5.2c-0.3-1.4-0.8-2.5-1.5-3.3c-0.7-0.8-1.8-1.4-3.1-1.8c-1.3-0.4-2.9-0.5-4.9-0.5H1587.8z M1574.6-176.5
		c0-1.5,0-2.8,0-3.9c0-1.1,0.1-2.2,0.2-3.2c0.1-1,0.2-2,0.4-3.1c0.2-1,0.4-2.2,0.7-3.4c1.4,0.2,2.8,0.4,4.2,0.6
		c1.4,0.2,2.8,0.4,4.2,0.6c-0.2,1.2-0.4,2.2-0.5,3.2s-0.3,1.9-0.3,2.8c-0.1,0.9-0.1,1.9-0.2,3c0,1,0,2.2,0,3.6v15.3h-8.5V-176.5z"/>
	<path d="M1660.8-188c-0.3-3.1-0.5-5.7-0.6-7.9s-0.3-4-0.4-5.6c-0.2-1.6-0.4-3.1-0.8-4.4c-0.3-1.3-0.8-2.7-1.5-4.3
		c1.1-0.7,2.4-1.2,3.6-1.8c1.3-0.5,2.5-1,3.8-1.5c0.6,1.2,1.1,2.3,1.6,3.4c0.4,1.1,0.7,2.3,1,3.6c0.3,1.3,0.5,2.7,0.6,4.4
		c0.2,1.6,0.3,3.6,0.5,5.9l2.1,27.5c1.2,0.1,2.3,0.1,3.4,0.1c5.6,0,10.5-0.9,14.6-2.6c4.2-1.7,7.6-4.1,10.4-7.2
		c2.8-3.1,4.8-6.8,6.2-11c1.4-4.2,2-8.9,2-14c0-1.4,0-2.8-0.1-4.2s-0.2-2.8-0.4-4.2c1.4-0.4,2.7-0.7,4.1-1c1.3-0.3,2.8-0.5,4.3-0.8
		c0.3,1.4,0.5,2.9,0.6,4.4c0.1,1.5,0.2,3.1,0.2,4.7c0,7.2-1,13.5-3,19c-2,5.4-4.8,10-8.5,13.6c-3.7,3.6-8.2,6.4-13.5,8.2
		c-5.3,1.8-11.3,2.8-18,2.8c-1.6,0-3.2,0-4.9-0.1c-1.7-0.1-3.4-0.2-5.1-0.5L1660.8-188z M1690.6-213.4c0.5,1.6,0.7,3.1,0.7,4.7
		c0,1-0.1,1.9-0.2,2.9c-0.1,1-0.4,1.9-0.6,2.9c-0.5,1.6-1,3.3-1.7,4.9c-0.7,1.6-1.4,3.3-2.1,4.9l-5.5,12l-7.3-3.2l5.4-12
		c0.9-2.1,1.6-3.8,2.2-5.1c0.5-1.3,0.9-2.6,1.2-3.6c0.2-1,0.3-2,0.3-3.1c0-1-0.1-2.3-0.3-3.7L1690.6-213.4z"/>
	<path d="M1750.1-212.2l0.2,1.7c0.1,1.1,0.3,2.6,0.5,4.6c0.2,1.9,0.5,4.2,0.7,6.7c0.3,2.6,0.5,5.4,0.9,8.3c0.3,3,0.6,6.1,1,9.3
		c0.3,3.2,0.6,6.4,0.9,9.6c0.1,1.4,0.2,2.6,0.3,3.5c0.1,0.9,0.1,1.7,0.1,2.5c0,0.7,0,1.5-0.1,2.2c-0.1,0.7-0.2,1.6-0.3,2.7h-29.3
		v-7.5h21.3l-3.8-36.2h-12v-7.5H1750.1z"/>
	<path d="M1785.9-212.2v16c0,1.8,0,3.2,0,4.4c0,1.2-0.1,2.3-0.2,3.2c-0.1,1-0.2,1.9-0.4,2.9c-0.2,0.9-0.4,1.9-0.6,3.1l-8.3-1.2
		c0.2-1,0.3-1.9,0.4-2.7c0.1-0.8,0.2-1.7,0.3-2.6c0.1-0.9,0.2-2,0.2-3.1c0-1.1,0.1-2.5,0.1-4.1v-8.3h-11.3v-7.5H1785.9z"/>
	<path d="M1816.6-212.2v51.2h-8.5v-43.7h-8.6v-7.5H1816.6z"/>
	<path d="M1839.2-168.4c-1.1-3.2-1.9-6.2-2.4-9.1c-0.6-2.9-0.8-5.7-0.8-8.5c0-3.2,0.4-6.4,1.2-9.5c0.8-3.1,2.1-6.2,4-9.3
		c-0.9,0-1.7-0.1-2.4-0.2c-0.8-0.1-1.6-0.2-2.3-0.3c-0.8-0.1-1.6-0.3-2.4-0.6c-0.8-0.2-1.7-0.5-2.7-0.9c0.4-1.2,0.8-2.4,1.3-3.5
		c0.4-1.2,0.8-2.4,1.3-3.6c1.4,0.4,2.6,0.8,3.6,1c1.1,0.2,2.1,0.4,3.1,0.5c1,0.1,2.1,0.2,3.2,0.2c1.1,0,2.4,0,3.9,0h12.8
		c2.1,0,4.1,0.2,6.1,0.7c2,0.5,3.8,1.3,5.5,2.7c1.6,1.2,2.9,3,3.9,5.3c1,2.3,1.5,5.2,1.5,8.8v33.8h-8.5v-32.8c0-2-0.1-3.7-0.4-5.1
		c-0.3-1.4-0.8-2.5-1.5-3.3c-0.7-0.8-1.7-1.4-3-1.8c-1.2-0.4-2.9-0.5-4.8-0.5h-9.6c-1.8,2.5-3.1,5.3-3.9,8.4
		c-0.7,3.1-1.1,6.3-1.1,9.6c0,2.7,0.2,5.3,0.6,7.9c0.4,2.6,0.9,5,1.6,7.4l1.6,5.3c-0.1,0.9-0.1,1.7-0.2,2.5s-0.2,1.7-0.3,2.7h-19.5
		v-7.3H1839.2z"/>
	<path d="M1935.5-212.2v51.2h-8.5v-43.7h-8.6v-7.5H1935.5z"/>
	<path d="M1978.2-212.2c3,0,5.6,0.4,7.7,1.1c2.1,0.7,3.9,1.9,5.3,3.5c1,1.1,1.7,2.4,2.3,3.9s1,3.1,1.4,4.8c0.3,1.7,0.5,3.5,0.7,5.2
		c0.1,1.8,0.2,3.5,0.2,5.2c0,2.6-0.1,5.2-0.4,7.9c-0.4,3.3-1.2,6.2-2.3,8.8c-1.1,2.6-2.6,4.7-4.4,6.5c-1.8,1.8-3.9,3.1-6.4,4
		c-2.4,0.9-5.2,1.4-8.1,1.4c-3.8,0-7.1-0.6-9.8-1.9s-4.9-3-6.6-5.2c-1.7-2.2-3-4.8-3.7-7.8c-0.8-3-1.2-6.2-1.2-9.7c0-2,0.1-4,0.3-6
		c0.2-2.1,0.7-4.2,1.3-6.5c0.4-1.4,0.9-2.7,1.5-4c0.5-1.3,1.2-2.5,1.9-3.7c-1.5-0.1-2.9-0.3-4.2-0.6c-1.3-0.3-2.9-0.7-4.5-1.4
		c0.4-1.2,0.8-2.4,1.3-3.5c0.4-1.2,0.8-2.4,1.3-3.6c1.4,0.4,2.6,0.8,3.6,1c1,0.2,2.1,0.4,3.1,0.5c1,0.1,2.1,0.2,3.2,0.2
		c1.1,0,2.4,0,3.9,0H1978.2z M1966.3-204.7c-1.5,2.2-2.6,4.6-3.3,7.1c-0.8,2.5-1.2,5-1.4,7.5c-0.1,1-0.1,2-0.2,3c0,1-0.1,2-0.1,3
		c0,2.2,0.2,4.3,0.5,6.4c0.3,2,1,3.8,2,5.3c1,1.6,2.4,2.9,4.1,3.8c1.7,0.9,3.7,1.4,6,1.4c1.7,0,3.3-0.3,4.7-0.8
		c1.4-0.5,2.7-1.3,3.8-2.4c1.1-1.1,2-2.3,2.7-3.9c0.7-1.5,1.2-3.3,1.5-5.3c0.2-1.5,0.3-2.8,0.4-4.1c0.1-1.3,0.1-2.5,0.1-3.7
		c0-1.7-0.1-3.4-0.2-5s-0.4-3.2-0.6-4.9c-0.2-1.4-0.5-2.5-0.9-3.5c-0.4-0.9-1-1.7-1.7-2.3c-0.7-0.6-1.7-1-2.8-1.2
		c-1.1-0.2-2.6-0.4-4.3-0.4H1966.3z"/>
	<path d="M2017-214.5c0.7,0.1,1.6,0.3,2.7,0.5c1.1,0.2,2.4,0.5,3.7,0.7s2.8,0.6,4.2,0.9c1.5,0.3,2.9,0.6,4.3,1
		c1.4,0.3,2.6,0.7,3.8,1c1.1,0.3,2.1,0.6,2.8,0.9c1.8,0.7,3.2,1.5,4.4,2.4c1.1,0.9,2,2,2.7,3.2c0.7,1.2,1.1,2.5,1.4,4
		c0.2,1.4,0.4,3,0.4,4.7v24.5c0,0.8,0,1.5-0.1,2.2c0,0.7-0.1,1.4-0.2,2.2c-0.1,0.8-0.3,1.6-0.5,2.4c-0.2,0.9-0.4,1.8-0.7,2.9h-40.6
		v-7.4h33.6v-25.6c0-1.7-0.1-3.1-0.3-4.2c-0.2-1.1-0.6-2-1.2-2.7c-0.6-0.7-1.3-1.3-2.2-1.7c-0.9-0.4-2.1-0.8-3.6-1.2
		c-1.4-0.4-2.9-0.7-4.5-1.1c-1.6-0.4-3.1-0.7-4.6-1l-5.6,12.7l9.9,5.9l-4,6.5l-16.2-9.6L2017-214.5z"/>
	<path d="M2073.2-204.7c-1.4,0-2.7,0-3.9,0c-1.1,0-2.3-0.1-3.3-0.2c-1.1-0.1-2.1-0.3-3.2-0.6s-2.3-0.7-3.5-1.2
		c0.4-1.2,0.8-2.4,1.3-3.5c0.4-1.2,0.8-2.4,1.3-3.6c1.4,0.4,2.6,0.8,3.6,1c1,0.2,2.1,0.4,3.1,0.5c1,0.1,2.1,0.2,3.2,0.2
		c1.1,0,2.4,0,3.9,0h4.6c2.1,0,4.1,0.2,6.1,0.7c2,0.5,3.8,1.3,5.4,2.6c1.6,1.3,2.9,3.1,3.9,5.3c1,2.3,1.5,5.2,1.5,8.8v33.8h-8.5
		v-32.8c0-2-0.1-3.7-0.4-5.1c-0.3-1.4-0.8-2.5-1.6-3.3s-1.8-1.4-3.1-1.8c-1.3-0.4-2.9-0.5-4.9-0.5H2073.2z"/>
	<path d="M2126.9-212.2v51.2h-8.5v-43.7h-8.6v-7.5H2126.9z"/>
	<path d="M2178.6-226.2v14h28.4c0.3,1.1,0.5,2,0.7,2.7c0.2,0.7,0.3,1.4,0.4,1.9c0.1,0.6,0.1,1.1,0.1,1.6c0,0.5,0,1.1,0,1.6v10.6
		c0,3.9-0.8,7.5-2.3,11c-1.6,3.4-3.9,6.9-7,10.3l-12.1,13.2l-6-5.4l11.3-12.6c1.1-1.2,2.1-2.5,3-3.6c0.9-1.2,1.7-2.4,2.4-3.7
		c0.7-1.3,1.2-2.6,1.6-4.1c0.4-1.5,0.6-3.1,0.6-4.8v-11.4H2170v-21.5H2178.6z"/>
	<path d="M2222.4-188.5c0-1.6,0-3.1,0.1-4.5c0-1.4,0.2-2.7,0.4-4s0.5-2.6,0.8-3.9c0.4-1.3,0.9-2.7,1.5-4.2c-1.1-0.1-2.2-0.3-3.3-0.6
		c-1.1-0.3-2.3-0.7-3.6-1.2c0.4-1.2,0.8-2.4,1.3-3.5c0.4-1.2,0.8-2.4,1.3-3.6c1.4,0.4,2.6,0.8,3.6,1c1.1,0.2,2.1,0.4,3.1,0.5
		c1,0.1,2.1,0.2,3.2,0.2c1.1,0,2.4,0,3.9,0h12.2c2.1,0,4.1,0.2,6.1,0.7c2,0.5,3.8,1.3,5.4,2.6c1.6,1.2,2.9,3,3.9,5.2
		c1,2.2,1.5,5.1,1.5,8.6v34.1h-8.5v-32.8c0-2.1-0.1-3.8-0.4-5.2c-0.3-1.4-0.8-2.5-1.6-3.3c-0.8-0.8-1.8-1.4-3.1-1.8
		c-1.3-0.3-2.9-0.5-4.8-0.5h-11.8c-0.7,1.4-1.2,2.7-1.5,4.1c-0.3,1.4-0.6,2.7-0.7,4c-0.1,1.3-0.2,2.6-0.2,3.9c0,1.3,0,2.5,0,3.7v28
		h-8.5V-188.5z"/>
	<path d="M2291.8-204.7c-1.4,0-2.7,0-3.9,0c-1.1,0-2.3-0.1-3.3-0.2c-1.1-0.1-2.1-0.3-3.2-0.6c-1.1-0.3-2.3-0.7-3.5-1.2
		c0.4-1.2,0.8-2.4,1.3-3.5c0.4-1.2,0.8-2.4,1.3-3.6c1.4,0.4,2.6,0.8,3.6,1c1.1,0.2,2.1,0.4,3.1,0.5c1,0.1,2.1,0.2,3.2,0.2
		c1.1,0,2.4,0,3.9,0h1.4c2.1,0,4.1,0.2,6.1,0.7c2,0.5,3.8,1.3,5.4,2.6c1.6,1.2,2.9,3,3.8,5.2c1,2.2,1.5,5.1,1.5,8.6v26.6h9.1v7.5
		h-46.6v-7.5h29v-25.4c0-2-0.1-3.7-0.4-5.1c-0.3-1.4-0.8-2.5-1.6-3.3s-1.7-1.4-3-1.8c-1.3-0.4-2.9-0.5-4.9-0.5H2291.8z"/>
	<path d="M2344.6-204.7c-1.4,0-2.7,0-3.9,0c-1.1,0-2.3-0.1-3.3-0.2c-1.1-0.1-2.1-0.3-3.2-0.6s-2.3-0.7-3.5-1.2
		c0.4-1.2,0.8-2.4,1.3-3.5c0.4-1.2,0.8-2.4,1.3-3.6c1.4,0.4,2.6,0.8,3.6,1c1,0.2,2.1,0.4,3.1,0.5c1,0.1,2.1,0.2,3.2,0.2
		c1.1,0,2.4,0,3.9,0h4.6c2.1,0,4.1,0.2,6.1,0.7c2,0.5,3.8,1.3,5.4,2.6c1.6,1.3,2.9,3.1,3.9,5.3c1,2.3,1.5,5.2,1.5,8.8v33.8h-8.5
		v-32.8c0-2-0.1-3.7-0.4-5.1c-0.3-1.4-0.8-2.5-1.6-3.3s-1.8-1.4-3.1-1.8c-1.3-0.4-2.9-0.5-4.9-0.5H2344.6z"/>
	<path d="M2400.1-212.2v16c0,1.8,0,3.2,0,4.4c0,1.2-0.1,2.3-0.2,3.2c-0.1,1-0.2,1.9-0.4,2.9c-0.2,0.9-0.4,1.9-0.6,3.1l-8.3-1.2
		c0.2-1,0.3-1.9,0.4-2.7c0.1-0.8,0.2-1.7,0.3-2.6c0.1-0.9,0.2-2,0.2-3.1c0-1.1,0.1-2.5,0.1-4.1v-8.3h-11.3v-7.5H2400.1z"/>
	<path d="M2428.5-204.7c-1.4,0-2.7,0-3.9,0c-1.1,0-2.3-0.1-3.3-0.2c-1.1-0.1-2.1-0.3-3.2-0.6c-1.1-0.3-2.3-0.7-3.5-1.2
		c0.4-1.2,0.8-2.4,1.3-3.5c0.4-1.2,0.8-2.4,1.3-3.6c1.4,0.4,2.6,0.8,3.6,1c1.1,0.2,2.1,0.4,3.1,0.5c1,0.1,2.1,0.2,3.2,0.2
		c1.1,0,2.4,0,3.9,0h3c2,0,4,0.3,5.9,0.8c2,0.5,3.7,1.4,5.3,2.7c1.6,1.3,2.9,3.1,3.9,5.3c1,2.2,1.6,5.1,1.8,8.6
		c0.1,1.8,0.2,3.7,0.2,5.5c0,1.8,0.1,3.7,0.1,5.6c0,1.9,0,4,0,6.1c0,2.1,0,4.4,0,6.8c0,0.8,0,1.5,0,2.1c0,0.6-0.1,1.3-0.2,2
		c-0.1,0.7-0.2,1.5-0.4,2.4c-0.2,0.9-0.4,1.9-0.7,3.2H2412v-7.5h30.6c0-4,0-8.2-0.1-12.5c-0.1-4.3-0.2-8.6-0.3-12.8
		c-0.1-2.1-0.3-3.8-0.6-5.2c-0.3-1.4-0.8-2.5-1.6-3.3c-0.7-0.8-1.7-1.4-3-1.8c-1.3-0.4-2.9-0.5-4.9-0.5H2428.5z"/>
	<path d="M2465.7-188.5c0-1.6,0-3.1,0.1-4.5c0-1.4,0.2-2.7,0.4-4c0.2-1.3,0.5-2.6,0.8-3.9c0.4-1.3,0.9-2.7,1.5-4.2
		c-1.1-0.1-2.2-0.3-3.3-0.6s-2.3-0.7-3.6-1.2c0.4-1.2,0.8-2.4,1.3-3.5s0.8-2.4,1.3-3.6c1.4,0.4,2.6,0.8,3.6,1c1,0.2,2.1,0.4,3.1,0.5
		c1,0.1,2.1,0.2,3.2,0.2c1.1,0,2.4,0,3.9,0h13.3c2.1,0,4.1,0.2,6.1,0.7c2,0.5,3.8,1.3,5.4,2.6c1.6,1.2,2.9,3,3.9,5.2
		c1,2.2,1.5,5.1,1.5,8.6v34.1h-42.3V-188.5z M2499.5-193.9c0-2.1-0.1-3.8-0.4-5.2c-0.3-1.4-0.8-2.5-1.6-3.3
		c-0.8-0.8-1.8-1.4-3.1-1.8c-1.3-0.3-2.9-0.5-4.8-0.5h-12.9c-0.7,1.4-1.2,2.7-1.5,4.1c-0.3,1.4-0.6,2.7-0.7,4
		c-0.1,1.3-0.2,2.6-0.2,3.9c0,1.3,0,2.5,0,3.7v20.5h25.3V-193.9z"/>
	<path d="M2577.2-206.2c0.3-1.2,0.7-2.5,1-3.7c0.3-1.2,0.7-2.4,1.1-3.7l14.5,3.8c0.1,1.1,0.2,2.3,0.2,3.4c0.1,1.1,0.1,2.3,0.1,3.4
		c-0.3,2.8-0.8,5.5-1.5,8.1c-0.6,2.6-1.5,5.2-2.5,7.7c-1,2.5-2.3,4.9-3.7,7.2c-1.5,2.3-3.2,4.5-5.1,6.6c-2.1,2.2-4.4,4.1-7,5.9
		c-2.6,1.8-5.4,3.4-8.5,4.8c-2.2,1.1-4.6,2-7,2.9s-5.1,1.7-7.9,2.5l-2.4-7.6c2.6-0.8,5.2-1.6,7.9-2.5c2.7-0.9,5.5-2,8.2-3.3
		c-1.8-4.6-3.5-9.2-5.2-13.8c-1.7-4.6-3.5-9.2-5.2-13.8c-0.5-1.2-0.9-2.1-1.2-2.8c-0.3-0.7-0.8-1.3-1.4-1.9
		c-0.6-0.6-1.4-1.1-2.3-1.6c-1-0.5-2.3-1.1-3.9-1.9c0.6-1.2,1.2-2.4,1.8-3.5c0.6-1.2,1.3-2.4,1.9-3.5c1.8,0.7,3.3,1.4,4.6,2
		s2.4,1.2,3.3,2c0.9,0.7,1.7,1.4,2.3,2.3c0.6,0.9,1.2,2,1.8,3.4c0.3,0.9,0.7,1.7,1,2.6s0.7,1.8,1.1,2.9c0.4,1.1,0.8,2.3,1.3,3.6
		c0.5,1.4,1.1,3,1.7,4.8c0.7,1.9,1.4,4,2.3,6.5c0.9,2.5,1.9,5.3,3.1,8.6c2.2-1.6,4-3.4,5.6-5.5c1.6-2.1,2.9-4.3,4-6.8
		c1.1-2.5,2-5.1,2.7-7.9c0.7-2.8,1.2-5.8,1.6-9.1L2577.2-206.2z"/>
	<path d="M2612.2-226.2v14h28.4c0.3,1.1,0.5,2,0.7,2.7c0.2,0.7,0.3,1.4,0.4,1.9c0.1,0.6,0.1,1.1,0.1,1.6c0,0.5,0,1.1,0,1.6v10.6
		c0,3.9-0.8,7.5-2.3,11c-1.6,3.4-3.9,6.9-7,10.3l-12.1,13.2l-6-5.4l11.3-12.6c1.1-1.2,2.1-2.5,3-3.6c0.9-1.2,1.7-2.4,2.4-3.7
		c0.7-1.3,1.2-2.6,1.6-4.1c0.4-1.5,0.6-3.1,0.6-4.8v-11.4h-29.6v-21.5H2612.2z"/>
	<path d="M2685.5-188c-0.3-3.1-0.5-5.7-0.6-7.9s-0.3-4-0.4-5.6c-0.2-1.6-0.4-3.1-0.8-4.4c-0.3-1.3-0.8-2.7-1.5-4.3
		c1.1-0.7,2.4-1.2,3.6-1.8c1.3-0.5,2.5-1,3.8-1.5c0.6,1.2,1.1,2.3,1.6,3.4c0.4,1.1,0.7,2.3,1,3.6c0.3,1.3,0.5,2.7,0.6,4.4
		c0.2,1.6,0.3,3.6,0.5,5.9l2.1,27.5c1.2,0.1,2.3,0.1,3.4,0.1c5.6,0,10.5-0.9,14.6-2.6c4.2-1.7,7.6-4.1,10.4-7.2
		c2.8-3.1,4.8-6.8,6.2-11c1.4-4.2,2-8.9,2-14c0-1.4,0-2.8-0.1-4.2s-0.2-2.8-0.4-4.2c1.4-0.4,2.7-0.7,4.1-1c1.3-0.3,2.8-0.5,4.3-0.8
		c0.3,1.4,0.5,2.9,0.6,4.4c0.1,1.5,0.2,3.1,0.2,4.7c0,7.2-1,13.5-3,19c-2,5.4-4.8,10-8.5,13.6c-3.7,3.6-8.2,6.4-13.5,8.2
		c-5.3,1.8-11.3,2.8-18,2.8c-1.6,0-3.2,0-4.9-0.1c-1.7-0.1-3.4-0.2-5.1-0.5L2685.5-188z M2715.3-213.4c0.5,1.6,0.7,3.1,0.7,4.7
		c0,1-0.1,1.9-0.2,2.9c-0.1,1-0.4,1.9-0.6,2.9c-0.5,1.6-1,3.3-1.7,4.9c-0.7,1.6-1.4,3.3-2.1,4.9l-5.5,12l-7.3-3.2l5.4-12
		c0.9-2.1,1.6-3.8,2.2-5.1c0.5-1.3,0.9-2.6,1.2-3.6c0.2-1,0.3-2,0.3-3.1c0-1-0.1-2.3-0.3-3.7L2715.3-213.4z"/>
	<path d="M2768-204.7c-1.4,0-2.7,0-3.9,0c-1.1,0-2.3-0.1-3.3-0.2c-1.1-0.1-2.1-0.3-3.2-0.6c-1.1-0.3-2.3-0.7-3.5-1.2
		c0.4-1.2,0.8-2.4,1.3-3.5c0.4-1.2,0.8-2.4,1.3-3.6c1.4,0.4,2.6,0.8,3.6,1c1.1,0.2,2.1,0.4,3.1,0.5c1,0.1,2.1,0.2,3.2,0.2
		c1.1,0,2.4,0,3.9,0h1.4c2.1,0,4.1,0.2,6.1,0.7c2,0.5,3.8,1.3,5.4,2.6c1.6,1.2,2.9,3,3.8,5.2c1,2.2,1.5,5.1,1.5,8.6v26.6h9.1v7.5
		H2751v-7.5h29v-25.4c0-2-0.1-3.7-0.4-5.1c-0.3-1.4-0.8-2.5-1.6-3.3s-1.7-1.4-3-1.8c-1.3-0.4-2.9-0.5-4.9-0.5H2768z"/>
	<path d="M2824.9-212.2v51.2h-8.5v-43.7h-8.6v-7.5H2824.9z"/>
	<path d="M2867.6-212.2c3,0,5.6,0.4,7.7,1.1c2.1,0.7,3.9,1.9,5.3,3.5c1,1.1,1.7,2.4,2.3,3.9s1,3.1,1.4,4.8c0.3,1.7,0.5,3.5,0.7,5.2
		c0.1,1.8,0.2,3.5,0.2,5.2c0,2.6-0.1,5.2-0.4,7.9c-0.4,3.3-1.2,6.2-2.3,8.8c-1.1,2.6-2.6,4.7-4.4,6.5c-1.8,1.8-3.9,3.1-6.4,4
		c-2.4,0.9-5.2,1.4-8.1,1.4c-3.8,0-7.1-0.6-9.8-1.9s-4.9-3-6.6-5.2c-1.7-2.2-3-4.8-3.7-7.8c-0.8-3-1.2-6.2-1.2-9.7c0-2,0.1-4,0.3-6
		c0.2-2.1,0.7-4.2,1.3-6.5c0.4-1.4,0.9-2.7,1.5-4c0.5-1.3,1.2-2.5,1.9-3.7c-1.5-0.1-2.9-0.3-4.2-0.6c-1.3-0.3-2.9-0.7-4.5-1.4
		c0.4-1.2,0.8-2.4,1.3-3.5c0.4-1.2,0.8-2.4,1.3-3.6c1.4,0.4,2.6,0.8,3.6,1c1,0.2,2.1,0.4,3.1,0.5c1,0.1,2.1,0.2,3.2,0.2
		c1.1,0,2.4,0,3.9,0H2867.6z M2855.7-204.7c-1.5,2.2-2.6,4.6-3.3,7.1c-0.8,2.5-1.2,5-1.4,7.5c-0.1,1-0.1,2-0.2,3c0,1-0.1,2-0.1,3
		c0,2.2,0.2,4.3,0.5,6.4c0.3,2,1,3.8,2,5.3c1,1.6,2.4,2.9,4.1,3.8c1.7,0.9,3.7,1.4,6,1.4c1.7,0,3.3-0.3,4.7-0.8
		c1.4-0.5,2.7-1.3,3.8-2.4c1.1-1.1,2-2.3,2.7-3.9c0.7-1.5,1.2-3.3,1.5-5.3c0.2-1.5,0.3-2.8,0.4-4.1c0.1-1.3,0.1-2.5,0.1-3.7
		c0-1.7-0.1-3.4-0.2-5s-0.4-3.2-0.6-4.9c-0.2-1.4-0.5-2.5-0.9-3.5c-0.4-0.9-1-1.7-1.7-2.3c-0.7-0.6-1.7-1-2.8-1.2
		c-1.1-0.2-2.6-0.4-4.3-0.4H2855.7z"/>
</g>
<g>
	<g id="XMLID_35_">
		<path fill="#355E1F" d="M750.3,206.3c6.2,23.7,9.7,48.1,9.7,73.7c0,154.7-125.3,280-280,280c-4.7,0-9.7,0-14.3-0.4L308.2,402.2
			c19.8,18.6,64,30.6,100.1,35.3c11.6,0,23.7,0,35.3,0c69.4-7.4,116.7-36.8,147.4-72.1c29.5-34.1,51.2-76,57-132.2
			c0.8-7.4-0.8-18.6,1.6-26c2.7-8.1,12.8-12.8,19.8-19.8c7-7.4,11.6-15.1,18.6-21.7c0-0.4,0-1.2,0-1.6c-12.4,5.8-27.5,9.3-43,12.4
			c13.2-11.6,25.6-23.7,32.2-41.5l1.6-0.4L750.3,206.3z"/>
		<path fill="#4B7A35" d="M750.3,206.3l-71.7-71.7L677,135c-12.4,3.1-29.9,14-47.7,17.1c-14-10.9-28.3-20.6-49.3-24.4
			c-6.6,0-13.2,0-20.2,0c-45,9.3-74.1,41.1-67.5,97c-74.8-6.2-122.2-39.6-161.3-81.4c-24,35.7-0.8,88.4,21.3,102.8
			c-14,0-22.9-4.7-32.2-9.3c2.7,43.4,24.4,67.5,61.3,76.8c-6.2,5.4-21.3,1.9-32.2,3.1c7,28.3,32.6,51.2,70.6,53.9
			c-26,21.3-64.8,37.6-112.1,32.2L465.3,560C317.9,552.2,200,430.1,200,280C200,125.3,325.3,0,480,0C609.1,0,718.1,87.3,750.3,206.3
			z"/>
		<path fill="#FFFFFF" d="M687.5,164c0,0.4,0,1.2,0,1.6c-7,6.2-11.2,14-18.6,21.7c-7,7.4-17.1,11.6-19.8,19.8
			c-2.3,7.4-0.8,18.6-1.6,26c-5.8,55.8-27.5,98.1-57,132.2c-30.6,35.3-78.3,64.8-147.4,72.1c-11.6,0-23.7,0-35.3,0
			c-36.1-4.7-80.3-16.7-100.1-35.3c47.3,5.4,86.1-10.9,112.1-32.2c-38-2.7-63.6-25.6-70.6-53.9c10.9-0.8,26,2.3,32.2-3.1
			c-36.8-9.3-58.9-33.4-61.3-76.8c9.3,4.7,18.6,9.3,32.2,9.3c-22.1-14.7-45.4-67.5-21.3-102.8c39.2,41.9,86.5,75.2,161.3,81.4
			c-6.6-55.5,22.9-87.6,67.5-97c6.6,0,13.2,0,20.2,0c20.6,3.9,35.3,14,49.3,24.4c17.5-2.7,35.3-14,47.7-17.1
			c-6.6,17.8-19,29.9-32.2,41.5C659.9,173,675.1,169.9,687.5,164z"/>
	</g>
</g>
</svg>
