<?xml version="1.0" encoding="utf-8"?>
<!-- Generator: Adobe Illustrator 18.0.0, SVG Export Plug-In . SVG Version: 6.00 Build 0)  -->
<!DOCTYPE svg PUBLIC "-//W3C//DTD SVG 1.1//EN" "http://www.w3.org/Graphics/SVG/1.1/DTD/svg11.dtd">
<svg version="1.1" id="Layer_1" xmlns="http://www.w3.org/2000/svg" xmlns:xlink="http://www.w3.org/1999/xlink" x="0px" y="0px"
	 viewBox="0 0 960 560" enable-background="new 0 0 960 560" xml:space="preserve">
<rect x="-1138" y="-230" fill="none" width="1964.3" height="270.3"/>
<g enable-background="new    ">
	<path d="M669.2-202.6c-1.4,0-2.7,0-3.9,0c-1.1,0-2.3-0.1-3.3-0.2c-1.1-0.1-2.1-0.3-3.2-0.6s-2.3-0.7-3.5-1.2
		c0.4-1.2,0.8-2.4,1.3-3.5c0.4-1.2,0.8-2.4,1.3-3.6c1.4,0.4,2.6,0.8,3.6,1c1.1,0.2,2.1,0.4,3.1,0.5c1,0.1,2.1,0.2,3.2,0.2
		c1.1,0,2.4,0,3.9,0h26.1c0.3,0.9,0.5,1.7,0.6,2.4c0.1,0.7,0.3,1.3,0.4,1.9c0.2,1.1,0.3,2.1,0.3,3.2c0.1,1.1,0.1,2.2,0.1,3.4v6.9
		c0,1.7-0.1,3.2-0.2,4.7c-0.1,1.5-0.4,2.9-0.8,4.3c-0.4,1.4-0.9,2.7-1.6,4c-0.7,1.3-1.6,2.6-2.8,4c-2.4,2.8-4.8,5.5-7.1,8
		c-2.3,2.5-4.7,5.1-7,7.7l-6.5-5.9l5.5-5.8c1.5-1.6,2.9-3.1,4.4-4.7c1.4-1.6,2.7-3,3.9-4.4c0.9-1.1,1.6-2.2,2.1-3.2
		c0.5-1.1,0.9-2.2,1.1-3.3c0.2-1.1,0.4-2.3,0.4-3.6c0-1.3,0.1-2.7,0.1-4.2c0-1.3,0-2.6,0-3.9c0-1.3-0.1-2.6-0.1-4H669.2z
		 M656.5-177.4c0-1.4,0-2.7,0-3.8s0.1-2.3,0.1-3.3c0.1-1.1,0.2-2.1,0.4-3.2c0.2-1,0.4-2.1,0.6-3.3c1.4,0.2,2.8,0.4,4.2,0.6
		c1.4,0.2,2.8,0.4,4.2,0.6c-0.2,1.2-0.4,2.2-0.5,3.2c-0.1,0.9-0.3,1.9-0.3,2.8c-0.1,0.9-0.1,1.9-0.2,3c0,1,0,2.2,0,3.6v33.8h-8.5
		V-177.4z"/>
	<path d="M713.4-186.4c0-1.6,0-3.1,0.1-4.5c0-1.4,0.2-2.7,0.4-4s0.5-2.6,0.8-3.9c0.4-1.3,0.9-2.7,1.5-4.2c-1.1-0.1-2.2-0.3-3.3-0.6
		c-1.1-0.3-2.3-0.7-3.6-1.2c0.4-1.2,0.8-2.4,1.3-3.5c0.4-1.2,0.8-2.4,1.3-3.6c1.4,0.4,2.6,0.8,3.6,1c1.1,0.2,2.1,0.4,3.1,0.5
		c1,0.1,2.1,0.2,3.2,0.2c1.1,0,2.4,0,3.9,0h12.2c2.1,0,4.1,0.2,6.1,0.7c2,0.5,3.8,1.3,5.4,2.6c1.6,1.2,2.9,3,3.9,5.2
		c1,2.2,1.5,5.1,1.5,8.6v34.1h-8.5v-32.8c0-2.1-0.1-3.8-0.4-5.2c-0.3-1.4-0.8-2.5-1.6-3.3c-0.8-0.8-1.8-1.4-3.1-1.8
		c-1.3-0.3-2.9-0.5-4.8-0.5h-11.8c-0.7,1.4-1.2,2.7-1.5,4.1c-0.3,1.4-0.6,2.7-0.7,4c-0.1,1.3-0.2,2.6-0.2,3.9c0,1.3,0,2.5,0,3.7v28
		h-8.5V-186.4z"/>
	<path d="M784.5-210.1v51.2H776v-43.7h-8.6v-7.5H784.5z"/>
	<path d="M843-202.6c-1.4,0-2.7,0-3.9,0c-1.1,0-2.3-0.1-3.3-0.2c-1.1-0.1-2.1-0.3-3.2-0.6c-1.1-0.3-2.3-0.7-3.5-1.2
		c0.4-1.2,0.8-2.4,1.3-3.5c0.4-1.2,0.8-2.4,1.3-3.6c1.4,0.4,2.6,0.8,3.6,1c1.1,0.2,2.1,0.4,3.1,0.5c1,0.1,2.1,0.2,3.2,0.2
		c1.1,0,2.4,0,3.9,0h3c2,0,4,0.3,5.9,0.8c2,0.5,3.7,1.4,5.3,2.7c1.6,1.3,2.9,3.1,3.9,5.3c1,2.2,1.6,5.1,1.8,8.6
		c0.1,1.8,0.2,3.7,0.2,5.5c0,1.8,0.1,3.7,0.1,5.6c0,1.9,0,4,0,6.1c0,2.1,0,4.4,0,6.8c0,0.8,0,1.5,0,2.1c0,0.6-0.1,1.3-0.2,2
		c-0.1,0.7-0.2,1.5-0.4,2.4c-0.2,0.9-0.4,1.9-0.7,3.2h-37.6v-7.5h30.6c0-4,0-8.2-0.1-12.5c-0.1-4.3-0.2-8.6-0.3-12.8
		c-0.1-2.1-0.3-3.8-0.6-5.2c-0.3-1.4-0.8-2.5-1.6-3.3c-0.7-0.8-1.7-1.4-3-1.8c-1.3-0.4-2.9-0.5-4.9-0.5H843z"/>
	<path d="M877.4-158.5c0.5-3.2,1-6.1,1.4-8.5s0.8-4.6,1.1-6.4c0.3-1.9,0.6-3.6,0.9-5c0.2-1.5,0.5-3,0.7-4.4c0.2-1.4,0.5-2.9,0.7-4.4
		c0.2-1.5,0.5-3.2,0.8-5.1c0.2-1.6,0.2-3,0.1-4.2c-0.1-1.1-0.4-2.2-0.8-3.3c-0.4-1.1-1.1-2.2-1.8-3.4c-0.8-1.2-1.8-2.7-2.9-4.5
		c0.7-0.4,1.2-0.8,1.8-1.1c0.5-0.3,1.1-0.7,1.6-1c0.6-0.3,1.2-0.7,1.8-1.1c0.6-0.4,1.4-0.8,2.3-1.4c0.8,1.1,1.4,2,1.9,2.8
		c0.5,0.8,1,1.5,1.5,2.2c0.4,0.7,0.8,1.3,1.1,2c0.3,0.7,0.7,1.3,1,2.1c1.4-1.3,2.7-2.4,4-3.4c1.3-1,2.6-1.8,3.9-2.5
		c1.3-0.7,2.7-1.2,4.2-1.6c1.5-0.4,3.1-0.5,4.9-0.5c4.3,0,7.9,1.1,10.8,3.4c2.9,2.2,4.8,5.7,5.8,10.4c0.3,1.3,0.5,2.9,0.6,4.9
		c0.1,2,0.2,4,0.2,6.1c0,2.1,0.1,4.1,0,6.1c0,2,0,3.7,0,5.1c0,2.3-0.1,4.4-0.1,6.5c-0.1,2.1-0.1,3.8-0.2,5.2
		c-0.1,0.7-0.1,1.5-0.2,2.3c-0.1,0.8-0.2,1.6-0.3,2.5h-24.3v-7.5h16.5c0-0.6,0.1-1.2,0.1-1.8c0-0.7,0.1-1.5,0.1-2.6
		c0-1.1,0-2.5,0-4.3c0-1.8,0-4,0-6.8c0-1.2,0-2.5,0-3.8c0-1.3-0.1-2.5-0.1-3.7c-0.1-1.2-0.2-2.3-0.3-3.4c-0.1-1-0.3-2-0.4-2.7
		c-0.3-1.2-0.7-2.3-1.1-3.3c-0.5-1-1.1-1.8-1.8-2.5c-0.7-0.7-1.6-1.2-2.6-1.6c-1-0.4-2.2-0.6-3.5-0.6c-1.4,0-2.8,0.2-4.2,0.7
		c-1.3,0.5-2.6,1.1-3.8,1.8c-1.2,0.8-2.4,1.7-3.5,2.7c-1.1,1-2.2,2.1-3.2,3.2c-0.6,3.6-1.1,6.9-1.6,9.6c-0.4,2.8-0.8,5.3-1.2,7.5
		c-0.4,2.2-0.7,4.2-1,5.9c-0.3,1.7-0.5,3.3-0.8,4.8c-0.3,1.5-0.5,3-0.7,4.4c-0.2,1.4-0.5,2.9-0.7,4.4H877.4z"/>
	<path d="M951.9-202.6c-1.4,0-2.7,0-3.9,0c-1.1,0-2.3-0.1-3.3-0.2c-1.1-0.1-2.1-0.3-3.2-0.6c-1.1-0.3-2.3-0.7-3.5-1.2
		c0.4-1.2,0.8-2.4,1.3-3.5s0.8-2.4,1.3-3.6c1.4,0.4,2.6,0.8,3.6,1c1,0.2,2.1,0.4,3.1,0.5c1,0.1,2.1,0.2,3.2,0.2c1.1,0,2.4,0,3.9,0
		h9.6c2.1,0,4.1,0.2,6.1,0.7c2,0.5,3.8,1.3,5.4,2.7c1.6,1.2,2.9,3,3.8,5.3c1,2.3,1.5,5.2,1.5,8.8v33.8h-8.5v-32.8
		c0-2.1-0.1-3.8-0.4-5.2c-0.3-1.4-0.8-2.5-1.5-3.3c-0.7-0.8-1.8-1.4-3.1-1.8c-1.3-0.4-2.9-0.5-4.9-0.5H951.9z M938.7-174.4
		c0-1.5,0-2.8,0-3.9c0-1.1,0.1-2.2,0.2-3.2c0.1-1,0.2-2,0.4-3.1c0.2-1,0.4-2.2,0.7-3.4c1.4,0.2,2.8,0.4,4.2,0.6
		c1.4,0.2,2.8,0.4,4.2,0.6c-0.2,1.2-0.4,2.2-0.5,3.2s-0.3,1.9-0.3,2.8c-0.1,0.9-0.1,1.9-0.2,3c0,1,0,2.2,0,3.6v15.3h-8.5V-174.4z"/>
	<path d="M1024.9-186c-0.3-3.1-0.5-5.7-0.6-7.9s-0.3-4-0.4-5.6c-0.2-1.6-0.4-3.1-0.8-4.4c-0.3-1.3-0.8-2.7-1.5-4.3
		c1.1-0.7,2.4-1.2,3.6-1.8c1.3-0.5,2.5-1,3.8-1.5c0.6,1.2,1.1,2.3,1.6,3.4c0.4,1.1,0.7,2.3,1,3.6c0.3,1.3,0.5,2.7,0.6,4.4
		c0.2,1.6,0.3,3.6,0.5,5.9l2.1,27.5c1.2,0.1,2.3,0.1,3.4,0.1c5.6,0,10.5-0.9,14.6-2.6c4.2-1.7,7.6-4.1,10.4-7.2
		c2.8-3.1,4.8-6.8,6.2-11c1.4-4.2,2-8.9,2-14c0-1.4,0-2.8-0.1-4.2s-0.2-2.8-0.4-4.2c1.4-0.4,2.7-0.7,4.1-1c1.3-0.3,2.8-0.5,4.3-0.8
		c0.3,1.4,0.5,2.9,0.6,4.4c0.1,1.5,0.2,3.1,0.2,4.7c0,7.2-1,13.5-3,19c-2,5.4-4.8,10-8.5,13.6c-3.7,3.6-8.2,6.4-13.5,8.2
		c-5.3,1.8-11.3,2.8-18,2.8c-1.6,0-3.2,0-4.9-0.1c-1.7-0.1-3.4-0.2-5.1-0.5L1024.9-186z M1054.8-211.3c0.5,1.6,0.7,3.1,0.7,4.7
		c0,1-0.1,1.9-0.2,2.9c-0.1,1-0.4,1.9-0.6,2.9c-0.5,1.6-1,3.3-1.7,4.9c-0.7,1.6-1.4,3.3-2.1,4.9l-5.5,12l-7.3-3.2l5.4-12
		c0.9-2.1,1.6-3.8,2.2-5.1c0.5-1.3,0.9-2.6,1.2-3.6c0.2-1,0.3-2,0.3-3.1c0-1-0.1-2.3-0.3-3.7L1054.8-211.3z"/>
	<path d="M1114.3-210.1l0.2,1.7c0.1,1.1,0.3,2.6,0.5,4.6c0.2,1.9,0.5,4.2,0.7,6.7c0.3,2.6,0.5,5.4,0.9,8.3c0.3,3,0.6,6.1,1,9.3
		c0.3,3.2,0.6,6.4,0.9,9.6c0.1,1.4,0.2,2.6,0.3,3.5c0.1,0.9,0.1,1.7,0.1,2.5c0,0.7,0,1.5-0.1,2.2c-0.1,0.7-0.2,1.6-0.3,2.7h-29.3
		v-7.5h21.3l-3.8-36.2h-12v-7.5H1114.3z"/>
	<path d="M1150-210.1v16c0,1.8,0,3.2,0,4.4c0,1.2-0.1,2.3-0.2,3.2c-0.1,1-0.2,1.9-0.4,2.9c-0.2,0.9-0.4,1.9-0.6,3.1l-8.3-1.2
		c0.2-1,0.3-1.9,0.4-2.7c0.1-0.8,0.2-1.7,0.3-2.6c0.1-0.9,0.2-2,0.2-3.1c0-1.1,0.1-2.5,0.1-4.1v-8.3h-11.3v-7.5H1150z"/>
	<path d="M1180.8-210.1v51.2h-8.5v-43.7h-8.6v-7.5H1180.8z"/>
	<path d="M1203.4-166.3c-1.1-3.2-1.9-6.2-2.4-9.1c-0.6-2.9-0.8-5.7-0.8-8.5c0-3.2,0.4-6.4,1.2-9.5c0.8-3.1,2.1-6.2,4-9.3
		c-0.9,0-1.7-0.1-2.4-0.2c-0.8-0.1-1.6-0.2-2.3-0.3c-0.8-0.1-1.6-0.3-2.4-0.6c-0.8-0.2-1.7-0.5-2.7-0.9c0.4-1.2,0.8-2.4,1.3-3.5
		c0.4-1.2,0.8-2.4,1.3-3.6c1.4,0.4,2.6,0.8,3.6,1c1.1,0.2,2.1,0.4,3.1,0.5c1,0.1,2.1,0.2,3.2,0.2c1.1,0,2.4,0,3.9,0h12.8
		c2.1,0,4.1,0.2,6.1,0.7c2,0.5,3.8,1.3,5.5,2.7c1.6,1.2,2.9,3,3.9,5.3c1,2.3,1.5,5.2,1.5,8.8v33.8h-8.5v-32.8c0-2-0.1-3.7-0.4-5.1
		c-0.3-1.4-0.8-2.5-1.5-3.3c-0.7-0.8-1.7-1.4-3-1.8c-1.2-0.4-2.9-0.5-4.8-0.5h-9.6c-1.8,2.5-3.1,5.3-3.9,8.4
		c-0.7,3.1-1.1,6.3-1.1,9.6c0,2.7,0.2,5.3,0.6,7.9c0.4,2.6,0.9,5,1.6,7.4l1.6,5.3c-0.1,0.9-0.1,1.7-0.2,2.5s-0.2,1.7-0.3,2.7h-19.5
		v-7.3H1203.4z"/>
	<path d="M1299.7-210.1v51.2h-8.5v-43.7h-8.6v-7.5H1299.7z"/>
	<path d="M1342.4-210.1c3,0,5.6,0.4,7.7,1.1c2.1,0.7,3.9,1.9,5.3,3.5c1,1.1,1.7,2.4,2.3,3.9s1,3.1,1.4,4.8c0.3,1.7,0.5,3.5,0.7,5.2
		c0.1,1.8,0.2,3.5,0.2,5.2c0,2.6-0.1,5.2-0.4,7.9c-0.4,3.3-1.2,6.2-2.3,8.8c-1.1,2.6-2.6,4.7-4.4,6.5c-1.8,1.8-3.9,3.1-6.4,4
		c-2.4,0.9-5.2,1.4-8.1,1.4c-3.8,0-7.1-0.6-9.8-1.9s-4.9-3-6.6-5.2c-1.7-2.2-3-4.8-3.7-7.8c-0.8-3-1.2-6.2-1.2-9.7c0-2,0.1-4,0.3-6
		c0.2-2.1,0.7-4.2,1.3-6.5c0.4-1.4,0.9-2.7,1.5-4c0.5-1.3,1.2-2.5,1.9-3.7c-1.5-0.1-2.9-0.3-4.2-0.6c-1.3-0.3-2.9-0.7-4.5-1.4
		c0.4-1.2,0.8-2.4,1.3-3.5c0.4-1.2,0.8-2.4,1.3-3.6c1.4,0.4,2.6,0.8,3.6,1c1,0.2,2.1,0.4,3.1,0.5c1,0.1,2.1,0.2,3.2,0.2
		c1.1,0,2.4,0,3.9,0H1342.4z M1330.4-202.6c-1.5,2.2-2.6,4.6-3.3,7.1c-0.8,2.5-1.2,5-1.4,7.5c-0.1,1-0.1,2-0.2,3c0,1-0.1,2-0.1,3
		c0,2.2,0.2,4.3,0.5,6.4c0.3,2,1,3.8,2,5.3c1,1.6,2.4,2.9,4.1,3.8c1.7,0.9,3.7,1.4,6,1.4c1.7,0,3.3-0.3,4.7-0.8
		c1.4-0.5,2.7-1.3,3.8-2.4c1.1-1.1,2-2.3,2.7-3.9c0.7-1.5,1.2-3.3,1.5-5.3c0.2-1.5,0.3-2.8,0.4-4.1c0.1-1.3,0.1-2.5,0.1-3.7
		c0-1.7-0.1-3.4-0.2-5s-0.4-3.2-0.6-4.9c-0.2-1.4-0.5-2.5-0.9-3.5c-0.4-0.9-1-1.7-1.7-2.3c-0.7-0.6-1.7-1-2.8-1.2
		c-1.1-0.2-2.6-0.4-4.3-0.4H1330.4z"/>
	<path d="M1381.1-212.4c0.7,0.1,1.6,0.3,2.7,0.5c1.1,0.2,2.4,0.5,3.7,0.7s2.8,0.6,4.2,0.9c1.5,0.3,2.9,0.6,4.3,1
		c1.4,0.3,2.6,0.7,3.8,1c1.1,0.3,2.1,0.6,2.8,0.9c1.8,0.7,3.2,1.5,4.4,2.4c1.1,0.9,2,2,2.7,3.2c0.7,1.2,1.1,2.5,1.4,4
		c0.2,1.4,0.4,3,0.4,4.7v24.5c0,0.8,0,1.5-0.1,2.2c0,0.7-0.1,1.4-0.2,2.2c-0.1,0.8-0.3,1.6-0.5,2.4c-0.2,0.9-0.4,1.8-0.7,2.9h-40.6
		v-7.4h33.6V-192c0-1.7-0.1-3.1-0.3-4.2c-0.2-1.1-0.6-2-1.2-2.7c-0.6-0.7-1.3-1.3-2.2-1.7c-0.9-0.4-2.1-0.8-3.6-1.2
		c-1.4-0.4-2.9-0.7-4.5-1.1c-1.6-0.4-3.1-0.7-4.6-1l-5.6,12.7l9.9,5.9l-4,6.5l-16.2-9.6L1381.1-212.4z"/>
	<path d="M1437.4-202.6c-1.4,0-2.7,0-3.9,0c-1.1,0-2.3-0.1-3.3-0.2c-1.1-0.1-2.1-0.3-3.2-0.6s-2.3-0.7-3.5-1.2
		c0.4-1.2,0.8-2.4,1.3-3.5c0.4-1.2,0.8-2.4,1.3-3.6c1.4,0.4,2.6,0.8,3.6,1c1,0.2,2.1,0.4,3.1,0.5c1,0.1,2.1,0.2,3.2,0.2
		c1.1,0,2.4,0,3.9,0h4.6c2.1,0,4.1,0.2,6.1,0.7c2,0.5,3.8,1.3,5.4,2.6c1.6,1.3,2.9,3.1,3.9,5.3c1,2.3,1.5,5.2,1.5,8.8v33.8h-8.5
		v-32.8c0-2-0.1-3.7-0.4-5.1c-0.3-1.4-0.8-2.5-1.6-3.3s-1.8-1.4-3.1-1.8c-1.3-0.4-2.9-0.5-4.9-0.5H1437.4z"/>
	<path d="M1491.1-210.1v51.2h-8.5v-43.7h-8.6v-7.5H1491.1z"/>
	<path d="M1542.7-224.1v14h28.4c0.3,1.1,0.5,2,0.7,2.7c0.2,0.7,0.3,1.4,0.4,1.9c0.1,0.6,0.1,1.1,0.1,1.6c0,0.5,0,1.1,0,1.6v10.6
		c0,3.9-0.8,7.5-2.3,11c-1.6,3.4-3.9,6.9-7,10.3L1551-157l-6-5.4l11.3-12.6c1.1-1.2,2.1-2.5,3-3.6c0.9-1.2,1.7-2.4,2.4-3.7
		c0.7-1.3,1.2-2.6,1.6-4.1c0.4-1.5,0.6-3.1,0.6-4.8v-11.4h-29.6v-21.5H1542.7z"/>
	<path d="M1586.5-186.4c0-1.6,0-3.1,0.1-4.5c0-1.4,0.2-2.7,0.4-4s0.5-2.6,0.8-3.9c0.4-1.3,0.9-2.7,1.5-4.2c-1.1-0.1-2.2-0.3-3.3-0.6
		c-1.1-0.3-2.3-0.7-3.6-1.2c0.4-1.2,0.8-2.4,1.3-3.5c0.4-1.2,0.8-2.4,1.3-3.6c1.4,0.4,2.6,0.8,3.6,1c1.1,0.2,2.1,0.4,3.1,0.5
		c1,0.1,2.1,0.2,3.2,0.2c1.1,0,2.4,0,3.9,0h12.2c2.1,0,4.1,0.2,6.1,0.7c2,0.5,3.8,1.3,5.4,2.6c1.6,1.2,2.9,3,3.9,5.2
		c1,2.2,1.5,5.1,1.5,8.6v34.1h-8.5v-32.8c0-2.1-0.1-3.8-0.4-5.2c-0.3-1.4-0.8-2.5-1.6-3.3c-0.8-0.8-1.8-1.4-3.1-1.8
		c-1.3-0.3-2.9-0.5-4.8-0.5h-11.8c-0.7,1.4-1.2,2.7-1.5,4.1c-0.3,1.4-0.6,2.7-0.7,4c-0.1,1.3-0.2,2.6-0.2,3.9c0,1.3,0,2.5,0,3.7v28
		h-8.5V-186.4z"/>
	<path d="M1656-202.6c-1.4,0-2.7,0-3.9,0c-1.1,0-2.3-0.1-3.3-0.2c-1.1-0.1-2.1-0.3-3.2-0.6c-1.1-0.3-2.3-0.7-3.5-1.2
		c0.4-1.2,0.8-2.4,1.3-3.5c0.4-1.2,0.8-2.4,1.3-3.6c1.4,0.4,2.6,0.8,3.6,1c1.1,0.2,2.1,0.4,3.1,0.5c1,0.1,2.1,0.2,3.2,0.2
		c1.1,0,2.4,0,3.9,0h1.4c2.1,0,4.1,0.2,6.1,0.7c2,0.5,3.8,1.3,5.4,2.6c1.6,1.2,2.9,3,3.8,5.2c1,2.2,1.5,5.1,1.5,8.6v26.6h9.1v7.5
		h-46.6v-7.5h29v-25.4c0-2-0.1-3.7-0.4-5.1c-0.3-1.4-0.8-2.5-1.6-3.3s-1.7-1.4-3-1.8c-1.3-0.4-2.9-0.5-4.9-0.5H1656z"/>
	<path d="M1708.7-202.6c-1.4,0-2.7,0-3.9,0c-1.1,0-2.3-0.1-3.3-0.2c-1.1-0.1-2.1-0.3-3.2-0.6s-2.3-0.7-3.5-1.2
		c0.4-1.2,0.8-2.4,1.3-3.5c0.4-1.2,0.8-2.4,1.3-3.6c1.4,0.4,2.6,0.8,3.6,1c1,0.2,2.1,0.4,3.1,0.5c1,0.1,2.1,0.2,3.2,0.2
		c1.1,0,2.4,0,3.9,0h4.6c2.1,0,4.1,0.2,6.1,0.7c2,0.5,3.8,1.3,5.4,2.6c1.6,1.3,2.9,3.1,3.9,5.3c1,2.3,1.5,5.2,1.5,8.8v33.8h-8.5
		v-32.8c0-2-0.1-3.7-0.4-5.1c-0.3-1.4-0.8-2.5-1.6-3.3s-1.8-1.4-3.1-1.8c-1.3-0.4-2.9-0.5-4.9-0.5H1708.7z"/>
	<path d="M1764.2-210.1v16c0,1.8,0,3.2,0,4.4c0,1.2-0.1,2.3-0.2,3.2c-0.1,1-0.2,1.9-0.4,2.9c-0.2,0.9-0.4,1.9-0.6,3.1l-8.3-1.2
		c0.2-1,0.3-1.9,0.4-2.7c0.1-0.8,0.2-1.7,0.3-2.6c0.1-0.9,0.2-2,0.2-3.1c0-1.1,0.1-2.5,0.1-4.1v-8.3h-11.3v-7.5H1764.2z"/>
	<path d="M1792.6-202.6c-1.4,0-2.7,0-3.9,0c-1.1,0-2.3-0.1-3.3-0.2c-1.1-0.1-2.1-0.3-3.2-0.6c-1.1-0.3-2.3-0.7-3.5-1.2
		c0.4-1.2,0.8-2.4,1.3-3.5c0.4-1.2,0.8-2.4,1.3-3.6c1.4,0.4,2.6,0.8,3.6,1c1.1,0.2,2.1,0.4,3.1,0.5c1,0.1,2.1,0.2,3.2,0.2
		c1.1,0,2.4,0,3.9,0h3c2,0,4,0.3,5.9,0.8c2,0.5,3.7,1.4,5.3,2.7c1.6,1.3,2.9,3.1,3.9,5.3c1,2.2,1.6,5.1,1.8,8.6
		c0.1,1.8,0.2,3.7,0.2,5.5c0,1.8,0.1,3.7,0.1,5.6c0,1.9,0,4,0,6.1c0,2.1,0,4.4,0,6.8c0,0.8,0,1.5,0,2.1c0,0.6-0.1,1.3-0.2,2
		c-0.1,0.7-0.2,1.5-0.4,2.4c-0.2,0.9-0.4,1.9-0.7,3.2h-37.6v-7.5h30.6c0-4,0-8.2-0.1-12.5c-0.1-4.3-0.2-8.6-0.3-12.8
		c-0.1-2.1-0.3-3.8-0.6-5.2c-0.3-1.4-0.8-2.5-1.6-3.3c-0.7-0.8-1.7-1.4-3-1.8c-1.3-0.4-2.9-0.5-4.9-0.5H1792.6z"/>
	<path d="M1829.9-186.4c0-1.6,0-3.1,0.1-4.5c0-1.4,0.2-2.7,0.4-4c0.2-1.3,0.5-2.6,0.8-3.9c0.4-1.3,0.9-2.7,1.5-4.2
		c-1.1-0.1-2.2-0.3-3.3-0.6s-2.3-0.7-3.6-1.2c0.4-1.2,0.8-2.4,1.3-3.5s0.8-2.4,1.3-3.6c1.4,0.4,2.6,0.8,3.6,1c1,0.2,2.1,0.4,3.1,0.5
		c1,0.1,2.1,0.2,3.2,0.2c1.1,0,2.4,0,3.9,0h13.3c2.1,0,4.1,0.2,6.1,0.7c2,0.5,3.8,1.3,5.4,2.6c1.6,1.2,2.9,3,3.9,5.2
		c1,2.2,1.5,5.1,1.5,8.6v34.1h-42.3V-186.4z M1863.7-191.8c0-2.1-0.1-3.8-0.4-5.2c-0.3-1.4-0.8-2.5-1.6-3.3
		c-0.8-0.8-1.8-1.4-3.1-1.8c-1.3-0.3-2.9-0.5-4.8-0.5h-12.9c-0.7,1.4-1.2,2.7-1.5,4.1c-0.3,1.4-0.6,2.7-0.7,4
		c-0.1,1.3-0.2,2.6-0.2,3.9c0,1.3,0,2.5,0,3.7v20.5h25.3V-191.8z"/>
	<path d="M1941.3-204.1c0.3-1.2,0.7-2.5,1-3.7c0.3-1.2,0.7-2.4,1.1-3.7l14.5,3.8c0.1,1.1,0.2,2.3,0.2,3.4c0.1,1.1,0.1,2.3,0.1,3.4
		c-0.3,2.8-0.8,5.5-1.5,8.1c-0.6,2.6-1.5,5.2-2.5,7.7c-1,2.5-2.3,4.9-3.7,7.2c-1.5,2.3-3.2,4.5-5.1,6.6c-2.1,2.2-4.4,4.1-7,5.9
		c-2.6,1.8-5.4,3.4-8.5,4.8c-2.2,1.1-4.6,2-7,2.9s-5.1,1.7-7.9,2.5l-2.4-7.6c2.6-0.8,5.2-1.6,7.9-2.5c2.7-0.9,5.5-2,8.2-3.3
		c-1.8-4.6-3.5-9.2-5.2-13.8c-1.7-4.6-3.5-9.2-5.2-13.8c-0.5-1.2-0.9-2.1-1.2-2.8c-0.3-0.7-0.8-1.3-1.4-1.9
		c-0.6-0.6-1.4-1.1-2.3-1.6c-1-0.5-2.3-1.1-3.9-1.9c0.6-1.2,1.2-2.4,1.8-3.5c0.6-1.2,1.3-2.4,1.9-3.5c1.8,0.7,3.3,1.4,4.6,2
		s2.4,1.2,3.3,2c0.9,0.7,1.7,1.4,2.3,2.3c0.6,0.9,1.2,2,1.8,3.4c0.3,0.9,0.7,1.7,1,2.6s0.7,1.8,1.1,2.9c0.4,1.1,0.8,2.3,1.3,3.6
		c0.5,1.4,1.1,3,1.7,4.8c0.7,1.9,1.4,4,2.3,6.5c0.9,2.5,1.9,5.3,3.1,8.6c2.2-1.6,4-3.4,5.6-5.5c1.6-2.1,2.9-4.3,4-6.8
		c1.1-2.5,2-5.1,2.7-7.9c0.7-2.8,1.2-5.8,1.6-9.1L1941.3-204.1z"/>
	<path d="M1976.3-224.1v14h28.4c0.3,1.1,0.5,2,0.7,2.7c0.2,0.7,0.3,1.4,0.4,1.9c0.1,0.6,0.1,1.1,0.1,1.6c0,0.5,0,1.1,0,1.6v10.6
		c0,3.9-0.8,7.5-2.3,11c-1.6,3.4-3.9,6.9-7,10.3l-12.1,13.2l-6-5.4l11.3-12.6c1.1-1.2,2.1-2.5,3-3.6c0.9-1.2,1.7-2.4,2.4-3.7
		c0.7-1.3,1.2-2.6,1.6-4.1c0.4-1.5,0.6-3.1,0.6-4.8v-11.4h-29.6v-21.5H1976.3z"/>
	<path d="M2049.6-186c-0.3-3.1-0.5-5.7-0.6-7.9s-0.3-4-0.4-5.6c-0.2-1.6-0.4-3.1-0.8-4.4c-0.3-1.3-0.8-2.7-1.5-4.3
		c1.1-0.7,2.4-1.2,3.6-1.8c1.3-0.5,2.5-1,3.8-1.5c0.6,1.2,1.1,2.3,1.6,3.4c0.4,1.1,0.7,2.3,1,3.6c0.3,1.3,0.5,2.7,0.6,4.4
		c0.2,1.6,0.3,3.6,0.5,5.9l2.1,27.5c1.2,0.1,2.3,0.1,3.4,0.1c5.6,0,10.5-0.9,14.6-2.6c4.2-1.7,7.6-4.1,10.4-7.2
		c2.8-3.1,4.8-6.8,6.2-11c1.4-4.2,2-8.9,2-14c0-1.4,0-2.8-0.1-4.2s-0.2-2.8-0.4-4.2c1.4-0.4,2.7-0.7,4.1-1c1.3-0.3,2.8-0.5,4.3-0.8
		c0.3,1.4,0.5,2.9,0.6,4.4c0.1,1.5,0.2,3.1,0.2,4.7c0,7.2-1,13.5-3,19c-2,5.4-4.8,10-8.5,13.6c-3.7,3.6-8.2,6.4-13.5,8.2
		c-5.3,1.8-11.3,2.8-18,2.8c-1.6,0-3.2,0-4.9-0.1c-1.7-0.1-3.4-0.2-5.1-0.5L2049.6-186z M2079.5-211.3c0.5,1.6,0.7,3.1,0.7,4.7
		c0,1-0.1,1.9-0.2,2.9c-0.1,1-0.4,1.9-0.6,2.9c-0.5,1.6-1,3.3-1.7,4.9c-0.7,1.6-1.4,3.3-2.1,4.9l-5.5,12l-7.3-3.2l5.4-12
		c0.9-2.1,1.6-3.8,2.2-5.1c0.5-1.3,0.9-2.6,1.2-3.6c0.2-1,0.3-2,0.3-3.1c0-1-0.1-2.3-0.3-3.7L2079.5-211.3z"/>
	<path d="M2132.2-202.6c-1.4,0-2.7,0-3.9,0c-1.1,0-2.3-0.1-3.3-0.2c-1.1-0.1-2.1-0.3-3.2-0.6c-1.1-0.3-2.3-0.7-3.5-1.2
		c0.4-1.2,0.8-2.4,1.3-3.5c0.4-1.2,0.8-2.4,1.3-3.6c1.4,0.4,2.6,0.8,3.6,1c1.1,0.2,2.1,0.4,3.1,0.5c1,0.1,2.1,0.2,3.2,0.2
		c1.1,0,2.4,0,3.9,0h1.4c2.1,0,4.1,0.2,6.1,0.7c2,0.5,3.8,1.3,5.4,2.6c1.6,1.2,2.9,3,3.8,5.2c1,2.2,1.5,5.1,1.5,8.6v26.6h9.1v7.5
		h-46.6v-7.5h29v-25.4c0-2-0.1-3.7-0.4-5.1c-0.3-1.4-0.8-2.5-1.6-3.3s-1.7-1.4-3-1.8c-1.3-0.4-2.9-0.5-4.9-0.5H2132.2z"/>
	<path d="M2189.1-210.1v51.2h-8.5v-43.7h-8.6v-7.5H2189.1z"/>
	<path d="M2231.8-210.1c3,0,5.6,0.4,7.7,1.1c2.1,0.7,3.9,1.9,5.3,3.5c1,1.1,1.7,2.4,2.3,3.9s1,3.1,1.4,4.8c0.3,1.7,0.5,3.5,0.7,5.2
		c0.1,1.8,0.2,3.5,0.2,5.2c0,2.6-0.1,5.2-0.4,7.9c-0.4,3.3-1.2,6.2-2.3,8.8c-1.1,2.6-2.6,4.7-4.4,6.5c-1.8,1.8-3.9,3.1-6.4,4
		c-2.4,0.9-5.2,1.4-8.1,1.4c-3.8,0-7.1-0.6-9.8-1.9s-4.9-3-6.6-5.2c-1.7-2.2-3-4.8-3.7-7.8c-0.8-3-1.2-6.2-1.2-9.7c0-2,0.1-4,0.3-6
		c0.2-2.1,0.7-4.2,1.3-6.5c0.4-1.4,0.9-2.7,1.5-4c0.5-1.3,1.2-2.5,1.9-3.7c-1.5-0.1-2.9-0.3-4.2-0.6c-1.3-0.3-2.9-0.7-4.5-1.4
		c0.4-1.2,0.8-2.4,1.3-3.5c0.4-1.2,0.8-2.4,1.3-3.6c1.4,0.4,2.6,0.8,3.6,1c1,0.2,2.1,0.4,3.1,0.5c1,0.1,2.1,0.2,3.2,0.2
		c1.1,0,2.4,0,3.9,0H2231.8z M2219.8-202.6c-1.5,2.2-2.6,4.6-3.3,7.1c-0.8,2.5-1.2,5-1.4,7.5c-0.1,1-0.1,2-0.2,3c0,1-0.1,2-0.1,3
		c0,2.2,0.2,4.3,0.5,6.4c0.3,2,1,3.8,2,5.3c1,1.6,2.4,2.9,4.1,3.8c1.7,0.9,3.7,1.4,6,1.4c1.7,0,3.3-0.3,4.7-0.8
		c1.4-0.5,2.7-1.3,3.8-2.4c1.1-1.1,2-2.3,2.7-3.9c0.7-1.5,1.2-3.3,1.5-5.3c0.2-1.5,0.3-2.8,0.4-4.1c0.1-1.3,0.1-2.5,0.1-3.7
		c0-1.7-0.1-3.4-0.2-5s-0.4-3.2-0.6-4.9c-0.2-1.4-0.5-2.5-0.9-3.5c-0.4-0.9-1-1.7-1.7-2.3c-0.7-0.6-1.7-1-2.8-1.2
		c-1.1-0.2-2.6-0.4-4.3-0.4H2219.8z"/>
</g>
<g>
	<g id="XMLID_36_">
		<path fill="#448927" d="M756.1,233.1c2.7,15.1,3.9,31,3.9,46.9c0,129.9-88,238.9-207.9,270.7L516.5,515V348.3h75.6l11.2-87.6
			h-86.9v-57c0-31,14-41.5,43.4-41.5h46.5V83.4L756.1,233.1z"/>
		<path fill="#4FAA2D" d="M756.1,233.1L606,83c0,0-27.9-3.1-69-3.1c-68.3,0-112.1,43.4-112.1,113.6v66.7h-75.6v87.3v0.4h0.4
			l75.6,75.6v131.1C297,529.4,200,416.1,200,280C200,125.3,325.3,0,480,0C618.8,0,734,100.8,756.1,233.1z"/>
		<path fill="#FFFFFF" d="M606,83.4v79.1h-46.5c-29.5,0-43.4,10.5-43.4,41.5v56.6h87.3l-11.2,87.6h-75.6V515l-91.1-91.1v-75.6h-75.6
			l-0.4-0.4v-87.3h76v-67.1c0-70.2,43.4-113.6,112.1-113.6C578.5,79.9,606,83.4,606,83.4z"/>
		<path fill="#4FAA2D" d="M516.5,515l35.7,35.7c-11.6,3.1-23.3,5.4-35.7,7V515z"/>
		<path fill="#FFFFFF" d="M516.5,515v42.7c-12,1.6-24,2.3-36.5,2.3c-18.6,0-36.8-1.9-54.7-5.4V423.9L516.5,515z"/>
		<polygon fill="#448927" points="425.3,348.3 425.3,423.9 349.7,348.3 		"/>
		<polygon fill="#FFFFFF" points="349.7,348.3 349.3,348.3 349.3,347.9 		"/>
	</g>
</g>
</svg>
