<?xml version="1.0" encoding="utf-8"?>
<!-- Generator: Adobe Illustrator 18.0.0, SVG Export Plug-In . SVG Version: 6.00 Build 0)  -->
<!DOCTYPE svg PUBLIC "-//W3C//DTD SVG 1.1//EN" "http://www.w3.org/Graphics/SVG/1.1/DTD/svg11.dtd">
<svg version="1.1" id="Layer_1" xmlns="http://www.w3.org/2000/svg" xmlns:xlink="http://www.w3.org/1999/xlink" x="0px" y="0px"
	 viewBox="0 0 960 560" enable-background="new 0 0 960 560" xml:space="preserve">
<g>
	<path fill="#4FAA2D" d="M480,454.5l90.5,90.5c-28.5,9.8-58.8,14.9-90.5,14.9c-154.5,0-280-125.5-280-280S325.5,0,480,0
		s280,125.5,280,280c0,18.7-1.9,36.9-5.1,54.6L560.3,140.5c-1.9-1.9-3.7-3.7-5.6-5.6c-5.1-4.7-10.7-8.9-16.8-13.1
		c-18.2-11.7-38.3-16.8-57.9-16.3c-19.6-0.5-39.7,4.7-57.9,16.3c-56.5,35.9-54.6,92.9-32.2,146.1C421.2,343.5,450.1,378.5,480,454.5
		L480,454.5"/>
	<path fill="#3F7F25" d="M560.3,140.5l194.1,194.1c-19.6,98.5-90.5,178.7-184.3,210.5L480,454.5l0,0
		c29.9-76.1,58.8-111.1,90.1-186.2C588.7,223.1,592.9,175.5,560.3,140.5"/>
	<path fill="#9DDD58" d="M560.3,140.5c32.7,35.5,28,82.6,9.3,127.4c-30.8,75.6-59.7,110.6-89.6,186.7
		c-29.9-76.1-58.8-111.1-90.1-186.2c-21.9-53.7-24.3-110.1,32.2-146.1c18.2-11.7,38.3-16.8,57.9-16.3c19.6-0.5,39.7,4.7,57.9,16.3
		c6.5,4.2,12.1,8.4,16.8,13.1L560.3,140.5"/>
	<path fill="#9DDD58" d="M560.3,140.5l-5.6-6.1C556.5,136.3,558.9,138.6,560.3,140.5z"/>
	<path fill="#D9FA92" d="M480,134.4v154.5c42.5-0.5,76.5-35,76.5-77.5C556.5,169.4,522.5,134.9,480,134.4"/>
	<path fill="#E6E6E6" d="M466.5,105.9L466.5,105.9c-12.1,1.4-24.3,4.7-35.5,10.7l0,0l0,0l0,0C442.2,111.1,454.3,107.3,466.5,105.9
		 M466.5,105.9L466.5,105.9L466.5,105.9"/>
	<path fill="#479928" d="M413.7,319.7c7,14,14,26.6,21,39.7C427.7,346.7,420.7,333.7,413.7,319.7 M379.7,173.6
		c-7.5,23.8-5.1,50.9,3.7,77.5c-5.1-15.9-7.9-31.7-7.9-47.1C375.5,193.7,376.9,183.4,379.7,173.6 M430.5,116.7L430.5,116.7
		L430.5,116.7 M466.5,105.9c-12.1,1.4-24.3,4.7-35.5,10.7C442.2,111.1,454.3,107.3,466.5,105.9"/>
	<polyline fill="#397221" points="480,454.1 480,454.1 480,454.5 480,454.1 	"/>
	<path fill="#8DC74F" d="M477.7,105.5c-3.7,0-7.5,0-11.2,0.5l0,0l0,0c-12.1,1.4-24.3,4.7-35.9,10.7c-2.8,1.4-5.6,3.3-8.4,4.7
		c-22.9,14.5-35.9,32.2-42,51.8c-3.3,9.8-4.7,20.1-4.7,30.3c0,15.4,3.3,31.3,7.9,47.1c1.9,5.6,3.7,11.2,6.5,16.8
		c7.9,19.6,15.9,36.4,23.8,51.8c7,14,14,26.6,21,39.7c14.9,28,29.9,56,45.3,94.7l0,0v-154h-0.5c-49,0-88.2-39.2-88.2-87.7l0,0l0,0
		c0-48.5,39.2-87.7,87.7-87.7h0.9v-18.2C479.1,105.5,478.1,105.5,477.7,105.5"/>
	<path fill="#8DC74F" d="M480,123.7L480,123.7h-0.5c-49,0-88.2,39.7-88.2,88.2l0,0c0,48.5,39.2,87.7,87.7,87.7h0.5v-10.7h-0.5
		c-42.5,0-77.5-34.5-77.5-77.5c0-42.5,34.5-77,77.5-77h0.5v-10.7"/>
	<path fill="#C3E183" d="M479.5,134.4c-42.5,0-77.5,34.5-77.5,77s34.5,77.5,77.5,77.5h0.5V134.4
		C479.5,134.4,479.5,134.4,479.5,134.4"/>
</g>
</svg>
