<?xml version="1.0" encoding="utf-8"?>
<!-- Generator: Adobe Illustrator 18.0.0, SVG Export Plug-In . SVG Version: 6.00 Build 0)  -->
<!DOCTYPE svg PUBLIC "-//W3C//DTD SVG 1.1//EN" "http://www.w3.org/Graphics/SVG/1.1/DTD/svg11.dtd">
<svg version="1.1" id="Layer_1" xmlns="http://www.w3.org/2000/svg" xmlns:xlink="http://www.w3.org/1999/xlink" x="0px" y="0px"
	 viewBox="0 162.8 960 234.4" width="960" height="234.4" enable-background="new 0 162.8 960 234.4" xml:space="preserve">
<g>
	<path fill="#325B1E" d="M876.3,369.3H83.7C37.4,369.3,0,331.9,0,285.6v27.9c0,46.3,37.4,83.7,83.7,83.7h792.6
		c46.3,0,83.7-37.4,83.7-83.7v-27.9C960,331.9,922.6,369.3,876.3,369.3z"/>
	<path fill="#3F7F25" d="M876.3,162.8H83.7C37.4,162.8,0,200.2,0,246.5v39.1c0,46.3,37.4,83.7,83.7,83.7h792.6
		c46.3,0,83.7-37.4,83.7-83.7v-39.1C960,200.2,922.6,162.8,876.3,162.8z"/>
</g>
</svg>
