<?xml version="1.0" encoding="utf-8"?>
<!-- Generator: Adobe Illustrator 18.0.0, SVG Export Plug-In . SVG Version: 6.00 Build 0)  -->
<!DOCTYPE svg PUBLIC "-//W3C//DTD SVG 1.1//EN" "http://www.w3.org/Graphics/SVG/1.1/DTD/svg11.dtd">
<svg version="1.1" id="Layer_1" xmlns="http://www.w3.org/2000/svg" xmlns:xlink="http://www.w3.org/1999/xlink" x="0px" y="0px"
	 viewBox="200 0 560 560" width="560" height="560" enable-background="new 200 0 560 560" xml:space="preserve">
<g>
	<path fill="#BDBDBD" d="M655,0H305c-58.1,0-105,46.9-105,105v350c0,58.1,46.9,105,105,105h350c58.1,0,105-46.9,105-105V105
		C760,46.9,713.1,0,655,0"/>
	<path fill="#515151" d="M459,560V318.5h-77v-86.8h77v-74.2C459,84,505.9,37.8,578,37.8c43.4,0,74.2,3.5,74.2,3.5v84h-49
		c-30.8,0-47.6,9.8-47.6,42.7v63.7h93.1l-11.9,86.8h-81.2V560H459z"/>
</g>
</svg>
