<?xml version="1.0" encoding="utf-8"?>
<!-- Generator: Adobe Illustrator 18.0.0, SVG Export Plug-In . SVG Version: 6.00 Build 0)  -->
<!DOCTYPE svg PUBLIC "-//W3C//DTD SVG 1.1//EN" "http://www.w3.org/Graphics/SVG/1.1/DTD/svg11.dtd">
<svg version="1.1" id="Layer_1" xmlns="http://www.w3.org/2000/svg" xmlns:xlink="http://www.w3.org/1999/xlink" x="0px" y="0px"
	 viewBox="0 17 960 526" enable-background="new 0 17 960 526" xml:space="preserve">
<g>
	<path fill="#BDBDBD" d="M861.4,17H98.6c-14.5,0-28.3,2.6-40.8,7.9L480,279.3L902.1,24.9C889.6,19.6,875.8,17,861.4,17"/>
	<path fill="#BDBDBD" d="M941.6,54.5L642.4,235.3l309,255.1c5.3-11.2,8.5-23.7,8.5-36.8V106.4C960,87.3,953.4,69.6,941.6,54.5"/>
	<path fill="#BDBDBD" d="M18.4,55.1C6.6,69.6,0,87.3,0,106.4v347.2c0,13.2,3.3,25.6,8.5,36.8l309-255.1L18.4,55.1"/>
	<path fill="#BDBDBD" d="M600.3,260.3l-120.3,73l-120.3-73L38.8,524.6C55.9,536.4,76.3,543,98.6,543h762.7
		c22.4,0,42.7-6.6,59.8-18.4L600.3,260.3"/>
</g>
</svg>
