<?xml version="1.0" encoding="utf-8"?>
<!-- Generator: Adobe Illustrator 18.0.0, SVG Export Plug-In . SVG Version: 6.00 Build 0)  -->
<!DOCTYPE svg PUBLIC "-//W3C//DTD SVG 1.1//EN" "http://www.w3.org/Graphics/SVG/1.1/DTD/svg11.dtd">
<svg version="1.1" id="Layer_1" xmlns="http://www.w3.org/2000/svg" xmlns:xlink="http://www.w3.org/1999/xlink" x="0px" y="0px"
	 viewBox="0 0 124 124" width="124" height="124" enable-background="new 0 0 124 124" xml:space="preserve">
<g>
	<path fill="#FFFFFF" d="M68.6,39.6c0,0,0.1-0.2,0.2-0.2c0.9-0.6,4.3-3.5,5.3-5.5c0-3.3,0-5.7,0-6.4c0-0.1,0-0.2,0-0.2
		c0-0.3-0.1-0.5-0.2-0.8C73.5,25,72.2,24,70.7,24c-1.4,0-2.6,0.9-3,2.2c-0.4-1.2-1.6-2.2-3-2.2c-1.4,0-2.6,0.9-3,2.2
		c-0.4-1.2-1.6-2.2-3-2.2c-1.4,0-2.6,0.9-3,2.2C55.3,24.9,54.4,24,53,24c-1.8,0-3,1.4-3,3.2c0,0,0,2.6,0,6.7c1,2,4.3,4.9,5.1,5.5
		c0,0,0,0.2,0,0.2h0.1H68.6z"/>
	<path fill="#FFFFFF" d="M67.5,93.6c19.6,0,17.6-2.7,17.6-13.7C87.8,50.6,73,42.4,69,40.6v1H55V41c-5,2-18.5,10.3-15.9,38.8
		c0,5.5-0.6,9.1,1.3,11.1c1.9,2,6.2,2.8,16,2.8H67.5z M49.3,66.8c0-7,5.7-12.7,12.7-12.7c0.1,0,0.2,0,0.4,0
		c6.9,0.2,12.4,5.8,12.4,12.7c0,6.9-5.5,12.5-12.4,12.7c-0.1,0-0.2,0-0.4,0C55,79.5,49.3,73.8,49.3,66.8z"/>
	<polygon fill="#2F5E19" points="69,41.6 69,40.6 69,40.6 67.7,40.6 63.2,40.6 55,40.6 55,41 55,41.6 	"/>
	<path fill="#3F7F25" d="M73.8,26.6c0.1,0,0.2,0.4,0.2,0.7c0,0.1,0,0.1,0,0.1c0,0.7,0,3.1,0,6.4c-1,2-4.4,4.9-5.3,5.5
		c0,0-0.1,0.2-0.2,0.2h0l0,0.1c0,0,0-0.1,0-0.1H55v-0.3c0,0,0.1,0.3,0.1,0.3H55v1h8.2h4.5H69v0c4,1.8,18.8,10,16.1,39.3
		c0,11,2,13.7-17.6,13.7h-11c-9.8,0-14.2-0.8-16.1-2.8l-0.2,0.1l32.3,32.2c25-4.2,44.8-23.3,50.1-47.9L73.8,26.6L73.8,26.6z"/>
	<path fill="#D8B419" d="M68.6,39.2L68.6,39.2C68.5,39.3,68.6,39.3,68.6,39.2L68.6,39.2z"/>
	<path fill="#3F7F25" d="M65.8,70.8c0.6-1.2-0.8-2.6-1.8-3v3.8C65,71.5,65.6,71.2,65.8,70.8z"/>
	<path fill="#3F7F25" d="M59.2,62.8c-0.4,0.7-0.1,1.8,0.8,1.9c0.4,0.1,1,0.1,1,0.1v-2.9C60,62.1,59.5,62.3,59.2,62.8z"/>
	<path fill="#FFFFFF" d="M64,75.2v-0.8c3-0.5,4.7-2.1,4.5-4.7c-0.1-1.9-1.6-3.5-3.2-4.3C64.8,65.2,65,65,64,65v-3.1
		c1,0.1,1.1,0.3,1.6,0.6c1.5,1,3-1.4,1.5-2.4c-0.9-0.6-2.1-0.9-3.1-1v-0.8c0-1-0.8-1.5-1.5-1.5S61,57.2,61,58.2v0.9
		c-1,0.1-1.2,0.3-1.8,0.5c-2.5,1-4.1,4.5-1.9,6.8c1,1,2.7,1.2,3.7,1.2v4.1c-1-0.1-1.8-0.4-1.7-0.8c0.1-1.8-2.6-1.8-2.7,0
		c-0.1,2.2,1.5,3.5,4.5,3.7v0.7c0,1,0.8,1.5,1.5,1.5S64,76.2,64,75.2z M64,67.8c1,0.4,2.4,1.8,1.8,3c-0.2,0.4-0.8,0.7-1.8,0.8V67.8z
		 M61,64.9c0,0-0.7,0-1.1-0.1c-0.9-0.2-1-1.3-0.6-1.9c0.3-0.6,0.7-0.8,1.7-0.9V64.9z"/>
	<path fill="#3F7F25" d="M62.4,79.5c6.9-0.2,12.4-5.8,12.4-12.7c0-6.9-5.5-12.5-12.4-12.7c-0.1,0-0.2,0-0.4,0
		c-7,0-12.7,5.7-12.7,12.7S55,79.5,62,79.5C62.1,79.5,62.2,79.5,62.4,79.5z M61,75.2v-0.7c-3-0.2-4.7-1.5-4.5-3.7
		c0.1-1.8,3-1.8,2.9,0c0,0.5,0.7,0.7,1.7,0.8v-4.1c-1,0-2.7-0.2-3.7-1.2c-2.2-2.2-0.6-5.7,2-6.8c0.5-0.2,0.7-0.4,1.7-0.5v-0.9
		c0-1,0.8-1.5,1.5-1.5s1.5,0.5,1.5,1.5V59c1,0.1,2.1,0.5,3,1c1.5,1,0.1,3.4-1.4,2.4c-0.5-0.3-0.7-0.5-1.7-0.6V65
		c1,0.1,0.8,0.2,1.2,0.5c1.6,0.9,3.2,2.4,3.4,4.3c0.2,2.6-1.6,4.2-4.6,4.7v0.8c0,1-0.8,1.5-1.5,1.5S61,76.2,61,75.2z"/>
	<path fill="#D8B419" d="M55.2,39.2h-0.1C55.1,39.3,55.2,39.3,55.2,39.2L55.2,39.2z"/>
	<path fill="#4FAA2D" d="M62,0C27.8,0,0,27.8,0,62c0,34.2,27.8,62,62,62c3.6,0,7.1-0.3,10.5-0.9L40.2,90.9l0.2-0.2
		c-1.9-2-1.3-5.4-1.3-10.9C36.5,51.3,50,43,55,41v-0.7v-0.6h0.1c0,0,0-0.2,0-0.2c-0.8-0.6-4.1-3.5-5.1-5.5c0-4,0-6.7,0-6.7
		c0-1.8,1.2-3.2,3-3.2c1.4,0,2.4,0.9,2.8,2.2c0.4-1.2,1.6-2.2,3-2.2c1.4,0,2.6,0.9,3,2.2c0.4-1.2,1.6-2.2,3-2.2c1.4,0,2.6,0.9,3,2.2
		c0.4-1.2,1.6-2.2,3-2.2c1.5,0,2.7,1,3,2.4l0,0l48.8,48.8c0.9-4.2,1.4-8.7,1.4-13.2C124,27.8,96.2,0,62,0z"/>
</g>
</svg>
