<?xml version="1.0" encoding="utf-8"?>
<!-- Generator: Adobe Illustrator 18.0.0, SVG Export Plug-In . SVG Version: 6.00 Build 0)  -->
<!DOCTYPE svg PUBLIC "-//W3C//DTD SVG 1.1//EN" "http://www.w3.org/Graphics/SVG/1.1/DTD/svg11.dtd">
<svg version="1.1" id="Layer_1" xmlns="http://www.w3.org/2000/svg" xmlns:xlink="http://www.w3.org/1999/xlink" x="0px" y="0px"
	 viewBox="0 0 52.578 48.684" enable-background="new 0 0 52.578 48.684" xml:space="preserve">
<rect x="0" y="0" fill="#595959" width="52.578" height="48.684"/>
<g>
	<g>
		<polygon fill="#FFFFFF" points="7.972,15.008 8.751,16.834 10.729,17.011 9.232,18.316 9.676,20.251 7.972,19.231 6.269,20.251 
			6.711,18.316 5.215,17.011 7.192,16.834 		"/>
	</g>
	<g>
		<polygon fill="#FFFFFF" points="13.424,15.008 14.203,16.834 16.184,17.011 14.684,18.316 15.129,20.251 13.424,19.231 
			11.721,20.251 12.165,18.316 10.668,17.011 12.646,16.834 		"/>
	</g>
	<g>
		<polygon fill="#FFFFFF" points="18.879,15.008 19.658,16.834 21.635,17.011 20.139,18.316 20.583,20.251 18.879,19.231 
			17.174,20.251 17.619,18.316 16.121,17.011 18.1,16.834 		"/>
	</g>
	<g>
		<polygon fill="#FFFFFF" points="7.972,20.461 8.751,22.289 10.729,22.464 9.232,23.769 9.676,25.705 7.972,24.685 6.269,25.705 
			6.711,23.769 5.215,22.464 7.192,22.289 		"/>
	</g>
	<g>
		<polygon fill="#FFFFFF" points="13.424,20.461 14.203,22.289 16.184,22.464 14.684,23.769 15.129,25.705 13.424,24.685 
			11.721,25.705 12.165,23.769 10.668,22.464 12.646,22.289 		"/>
	</g>
	<g>
		<polygon fill="#FFFFFF" points="18.879,20.461 19.658,22.289 21.635,22.464 20.139,23.769 20.583,25.705 18.879,24.685 
			17.174,25.705 17.619,23.769 16.121,22.464 18.1,22.289 		"/>
	</g>
	<g>
		<polygon fill="#FFFFFF" points="24.721,15.008 25.5,16.834 27.478,17.011 25.98,18.316 26.425,20.251 24.721,19.231 
			23.017,20.251 23.461,18.316 21.963,17.011 23.941,16.834 		"/>
	</g>
	<g>
		<polygon fill="#FFFFFF" points="24.721,20.461 25.5,22.289 27.478,22.464 25.98,23.769 26.425,25.705 24.721,24.685 
			23.017,25.705 23.461,23.769 21.963,22.464 23.941,22.289 		"/>
	</g>
	<g>
		<rect x="28.236" y="15.968" fill="#FFFFFF" width="18.5" height="1.947"/>
	</g>
	<g>
		<rect x="28.236" y="19.863" fill="#FFFFFF" width="18.5" height="1.947"/>
	</g>
	<g>
		<rect x="28.236" y="23.758" fill="#FFFFFF" width="18.5" height="1.947"/>
	</g>
	<g>
		<rect x="4.869" y="27.652" fill="#FFFFFF" width="41.867" height="1.947"/>
	</g>
	<g>
		<rect x="4.869" y="31.547" fill="#FFFFFF" width="41.867" height="1.947"/>
	</g>
	<g>
		<rect x="4.869" y="35.441" fill="#FFFFFF" width="41.867" height="1.947"/>
	</g>
</g>
<g>
</g>
<g>
</g>
<g>
</g>
<g>
</g>
<g>
</g>
<g>
</g>
<g>
</g>
<g>
</g>
<g>
</g>
<g>
</g>
<g>
</g>
<g>
</g>
<g>
</g>
<g>
</g>
<g>
</g>
</svg>
