<?xml version="1.0" encoding="utf-8"?>
<!-- Generator: Adobe Illustrator 18.0.0, SVG Export Plug-In . SVG Version: 6.00 Build 0)  -->
<!DOCTYPE svg PUBLIC "-//W3C//DTD SVG 1.1//EN" "http://www.w3.org/Graphics/SVG/1.1/DTD/svg11.dtd">
<svg version="1.1" id="Layer_1" xmlns="http://www.w3.org/2000/svg" xmlns:xlink="http://www.w3.org/1999/xlink" x="0px" y="0px"
	 viewBox="0 0 144.411 144.411" enable-background="new 0 0 144.411 144.411" xml:space="preserve">
<g id="XMLID_36_">
	<path fill="#448927" d="M143.405,60.117c0.661,3.935,1.006,7.972,1.006,12.089c0,33.451-22.738,61.584-53.607,69.784l-9.179-9.178
		V89.769h19.461l2.875-22.595H81.625v-14.63c0-8.045,3.561-10.713,11.15-10.713h11.968V21.456L143.405,60.117z"/>
	<path fill="#4FAA2D" d="M143.405,60.117l-38.662-38.661c0,0-7.154-0.834-17.775-0.834c-17.649,0-28.857,11.23-28.857,29.306v17.246
		H38.518v22.532v0.062h0.063l19.529,19.529v33.734C24.976,136.482,0,107.263,0,72.206C0,32.325,32.324,0,72.206,0
		C107.969,0,137.654,25.993,143.405,60.117z"/>
	<path fill="#FFFFFF" d="M104.743,21.456v20.375H92.775c-7.59,0-11.15,2.668-11.15,10.713v14.63h22.336l-2.875,22.595H81.625v43.044
		L58.11,109.298V89.769H38.581l-0.063-0.062V67.174H58.11V49.928c0-18.075,11.208-29.306,28.857-29.306
		C97.589,20.622,104.743,21.456,104.743,21.456z"/>
	<path fill="#4FAA2D" d="M81.625,132.812l9.179,9.178c-2.984,0.8-6.05,1.404-9.179,1.812V132.812z"/>
	<path fill="#FFFFFF" d="M81.625,132.812v10.989c-3.082,0.402-6.229,0.609-9.419,0.609c-4.825,0-9.535-0.471-14.096-1.379v-33.734
		L81.625,132.812z"/>
	<polygon fill="#448927" points="58.11,89.769 58.11,109.298 38.581,89.769 	"/>
	<polygon fill="#FFFFFF" points="38.581,89.769 38.518,89.769 38.518,89.706 	"/>
</g>
<g>
</g>
<g>
</g>
<g>
</g>
<g>
</g>
<g>
</g>
<g>
</g>
<g>
</g>
<g>
</g>
<g>
</g>
<g>
</g>
<g>
</g>
<g>
</g>
<g>
</g>
<g>
</g>
<g>
</g>
</svg>
