<?xml version="1.0" encoding="utf-8"?>
<!-- Generator: Adobe Illustrator 18.0.0, SVG Export Plug-In . SVG Version: 6.00 Build 0)  -->
<!DOCTYPE svg PUBLIC "-//W3C//DTD SVG 1.1//EN" "http://www.w3.org/Graphics/SVG/1.1/DTD/svg11.dtd">
<svg version="1.1" id="Layer_1" xmlns="http://www.w3.org/2000/svg" xmlns:xlink="http://www.w3.org/1999/xlink" x="0px" y="0px"
	 viewBox="32.2 188.8 960.1 448.1" enable-background="new 32.2 188.8 960.1 448.1" xml:space="preserve">
<g>
	<path fill="#545051" d="M702.4,429.7c16-32.1,35.3-62.6,61-91.5c40.2-46.6,81.9-73.8,123.6-77c3.2,0,4.9,0,6.4,0
		c4.9,0,12.8,0,16,4.9l0,0c1.7,1.7,1.7,4.9,3.2,8.1c1.7,22.5-8.1,41.7-28.9,61C831,378.3,769.9,410.4,702.4,429.7 M896.7,188.8
		c-4.9,0-11.3,0-16,0c-12.8,1.7-27.3,3.2-41.7,8.1l0,0c-46.6,12.8-94.7,48.1-139.7,101.2c-40.2,46.6-70.6,96.4-86.7,149.3
		c-8.1,1.7-14.5,3.2-19.3,3.2l-6.4,67.4c33.8,1.7,59.4,28.9,59.4,62.6c0,8.1-1.7,17.7-4.9,24.1c19.3,16,43.4,25.7,73.8,30.5l0,0
		c6.4,0,12.8,1.7,20.9,1.7c6.4,0,14.5,0,20.9-1.7c30.5-3.2,57.8-12.8,81.9-27.3c30.5-19.3,49.8-46.6,53-77l0,0
		c1.7-12.8-3.2-22.5-8.1-27.3c-6.4-6.4-16-11.3-27.3-11.3c-1.7,0-3.2,0-4.9,0c-20.9,0-35.3,11.3-38.5,30.5l0,0
		c-1.7,9.6-8.1,17.7-19.3,25.7c-14.5,8.1-28.9,14.5-46.6,16c-4.9,0-9.6,0-14.5,0c-1.7,0-4.9,0-6.4,0c-32.1-4.9-46.6-20.9-48.1-53
		v-1.6v-3.2c99.6-20.9,186.3-62.6,258.6-122.1c40.4-33.7,59.6-73.7,54.8-118.8c-1.7-16-6.4-30.5-16-41.7
		C959.4,200.1,932.1,188.8,896.7,188.8"/>
	<path fill="#848081" d="M509.6,323.7h-81.9c-17.7,0-32.1,12.8-33.8,30.5c0,8.1,1.7,16,6.4,22.5c4.9,6.4,12.8,9.6,20.9,9.6h81.9
		c8.1,0,14.5,1.7,19.3,6.4c4.8,4.8,6.4,14.5,6.4,27.3l-12.8,131.9H395.6c-17.7,0-32.1,12.8-33.8,30.5c0,8.1,1.7,16,6.4,22.5
		c4.9,6.4,12.8,9.6,20.9,9.6h189.5c17.7,0,32.1-12.8,33.8-30.5c1.7-8.1-1.7-16-6.4-22.5c-4.9-6.4-12.8-9.6-20.9-9.6h-4.9l3.2-32.1
		l6.4-67.4l3.3-30.5c3.2-28.9-4.9-54.6-20.9-72.3C559.5,331.7,536.9,323.7,509.6,323.7"/>
	<path fill="#848081" d="M471.1,442.6c-11.3,0-22.5,9.6-22.5,20.9l-1.7,12.8c0,6.4,1.7,11.3,4.9,16c3.2,4.8,9.6,6.4,14.5,6.4
		c11.3,0,22.5-9.6,22.5-20.9l1.7-12.8c0-6.4-1.7-11.3-4.9-16C482.3,444.2,477.5,442.6,471.1,442.6"/>
	<path fill="#848081" d="M172.3,323.7H79.1c-17.7,0-32.1,12.8-33.8,30.5c-1.7,8.1,1.7,16,6.4,22.5c4.9,6.4,12.8,9.6,20.9,9.6h91.5
		c11.3,0,22.5,4.9,30.5,12.8c8.1,8.1,11.3,20.9,11.3,32.1l-8.1,77c-1.7,16-9.6,27.3-16,33.8c-6.4,8.1-25.7,12.8-38.5,12.8
		c-12.8,0-30.5-4.9-38.5-12.8c-4.9-6.4-11.3-17.7-9.6-32.1l4.9-53c0-8.1,1.7-12.8,4.9-17.7c3.2-4.9,4.9-11.3,4.9-16
		c0-8.1-1.7-14.5-6.4-20.9c-4.9-6.4-14.5-9.6-22.5-9.6c-14.5,0-25.7,9.6-30.5,17.7c-6.4,9.6-11.3,25.7-12.8,43.4l-4.9,53
		c-3.2,28.9,6.4,56.2,24.1,77c17.7,19.3,49.8,32.1,81.9,32.1c20.9,0,41.7-4.9,59.4-14.5c-1.7-6.4-3.2-14.5-3.2-20.9
		c0-33.8,27.3-62.6,62.6-62.6c1.7,0,3.2,0,4.9,0c0-3.2,1.7-6.4,1.7-9.6l8.1-77c3.2-37-14.5-73.8-44.9-94.7
		C212.5,328.5,191.6,323.7,172.3,323.7"/>
	<path fill="#848081" d="M339.4,322c-17.7,0-32.1,14.5-33.8,30.5l-16,175c17.7,11.3,30.5,30.5,30.5,53c0,12.8-4.9,25.7-11.3,35.3
		h4.9c17.7,0,32.1-14.5,35.3-32.1l22.5-231.2c0-8.1-1.7-16-8.1-22.5C357,325.3,349,322,339.4,322"/>
	<path fill="#848081" d="M257.4,551.8c-16,0-28.9,12.8-28.9,28.9c0,16.1,12.8,30.5,28.9,30.5s30.5-12.8,30.5-30.5
		C288,564.6,273.5,551.8,257.4,551.8"/>
</g>
</svg>
