<?xml version="1.0" encoding="utf-8"?>
<!-- Generator: Adobe Illustrator 18.0.0, SVG Export Plug-In . SVG Version: 6.00 Build 0)  -->
<!DOCTYPE svg PUBLIC "-//W3C//DTD SVG 1.1//EN" "http://www.w3.org/Graphics/SVG/1.1/DTD/svg11.dtd">
<svg version="1.1" id="Layer_1" xmlns="http://www.w3.org/2000/svg" xmlns:xlink="http://www.w3.org/1999/xlink" x="0px" y="0px"
	 viewBox="0 0 144.411 144.412" enable-background="new 0 0 144.411 144.412" xml:space="preserve">
<g id="XMLID_34_">
	<path fill="#1E1E1E" d="M144.279,67.772c0.087,1.467,0.132,2.944,0.132,4.435c0,5.296-0.568,10.454-1.65,15.423l-35.763-35.769
		c0.017-1.381,0.138-2.663,0.483-3.715c3.64,0,7.285,0,10.926,0c0-1.962,0-3.923,0-5.884l0.184-0.178L144.279,67.772z"/>
	<path fill="#383838" d="M107.245,30.738l-0.184,0.178c-1.962,0-3.922,0-5.883,0c0,3.779,0,7.562,0,11.347c-1.26,0-2.52,0-3.779,0
		L84.788,29.651C64.379,29.1,40.601,27.645,37.72,45.201c-2.363,14.377,7.791,22.767,20.593,23.118
		c-2.208,4.187,0.724,8.966,1.679,10.926c-15.244,0.708-29.42,4.653-28.154,19.754c0.246,2.933,1.396,5.458,3.202,7.579
		c0.541,0.639,1.145,1.236,1.8,1.8l0.012,0.007l36.022,36.021c-0.219,0.006-0.442,0.006-0.667,0.006
		C32.325,144.412,0,112.088,0,72.207C0,32.325,32.325,0,72.206,0c38.392,0,69.779,29.956,72.073,67.772l-25.688-25.688
		L107.245,30.738z"/>
	<path fill="#1E1E1E" d="M106.998,51.861l35.763,35.769c-0.787,3.606-1.84,7.114-3.139,10.494L101.086,59.59l0.093-0.098
		c1.961,0,3.921,0,5.883,0C107.239,57.146,106.958,54.344,106.998,51.861z"/>
	<path fill="#1E1E1E" d="M89.739,48.244l11.347,11.346l38.536,38.534c-10.34,26.88-36.293,46.007-66.749,46.282l-36.022-36.021
		c11.088,9.517,37.207,8.539,45.833-2.663c4.457-5.785,4.123-15.866,0-21.433c-3.595-4.854-14.664-9.311-14.284-15.131
		c0.379-5.895,11.276-8.172,12.186-18.068c0.649-7.091-3.238-12.83-6.303-15.55c1.816,0,3.64,0,5.463,0
		c1.489-1.65,5.98-4.589,5.043-5.889l12.611,12.611c-2.523,0-5.049,0-7.568,0c0,1.961,0,3.922,0,5.884L89.739,48.244z"/>
	<path fill="#FFFFFF" d="M118.407,42.263c0,1.961,0,3.922,0,5.884c-3.641,0-7.286,0-10.926,0c-0.346,1.052-0.467,2.334-0.483,3.715
		l-4.768-4.768l-4.831-4.831c1.26,0,2.52,0,3.779,0c0-3.784,0-7.567,0-11.347c1.961,0,3.921,0,5.883,0c0,3.641,0,7.28,0,10.927
		C110.005,42.82,114.761,41.986,118.407,42.263z"/>
	<path fill="#1E1E1E" d="M118.407,42.263c-3.647-0.276-8.402,0.558-11.346-0.42c0-3.646,0-7.286,0-10.927l0.184-0.178l11.346,11.347
		L118.407,42.263z"/>
	<path fill="#FFFFFF" d="M106.998,51.861c-0.04,2.482,0.241,5.284,0.063,7.631c-1.962,0-3.922,0-5.883,0c0-3.785,0-7.562,0-11.346
		l1.052-1.053L106.998,51.861z"/>
	<path fill="#FFFFFF" d="M102.23,47.094l-1.052,1.053c-3.785,0-7.568,0-11.348,0c0-1.962,0-3.923,0-5.884c2.52,0,5.045,0,7.568,0
		L102.23,47.094z"/>
	<path fill="#1E1E1E" d="M101.179,48.146c0,3.783,0,7.561,0,11.346l-0.093,0.098L89.739,48.244l0.092-0.098
		C93.61,48.146,97.394,48.146,101.179,48.146z"/>
	<path fill="#FFFFFF" d="M84.788,29.651c0.938,1.3-3.554,4.238-5.043,5.889c-1.823,0-3.646,0-5.463,0
		c3.064,2.72,6.952,8.459,6.303,15.55c-0.909,9.896-11.807,12.174-12.186,18.068c-0.38,5.82,10.689,10.276,14.284,15.131
		c4.123,5.566,4.457,15.647,0,21.433c-8.626,11.202-34.745,12.181-45.833,2.663l-0.012-0.007l-1.8-1.8
		c-1.806-2.121-2.956-4.646-3.202-7.579c-1.266-15.101,12.91-19.046,28.154-19.754c-0.955-1.96-3.887-6.739-1.679-10.926
		c-12.802-0.351-22.956-8.741-20.593-23.118C40.601,27.645,64.379,29.1,84.788,29.651z M76.801,101.098
		c4.612-12.438-7.959-19.42-18.908-18.487c-8.108,0.684-15.067,4.02-16.396,10.926C37.708,113.307,71.647,115.021,76.801,101.098z
		 M69.658,59.492c5.343-11.07-4.227-27.661-15.13-25.217c-14.877,3.341-7.103,32.779,9.667,29.84
		C65.782,63.839,68.802,61.263,69.658,59.492z"/>
	<path fill="#1E1E1E" d="M57.893,82.61c10.949-0.933,23.521,6.049,18.908,18.487c-5.153,13.923-39.093,12.209-35.304-7.562
		C42.825,86.63,49.784,83.294,57.893,82.61z"/>
	<path fill="#1E1E1E" d="M54.528,34.275c10.903-2.444,20.473,14.147,15.13,25.217c-0.857,1.771-3.876,4.347-5.463,4.623
		C47.426,67.055,39.651,37.616,54.528,34.275z"/>
	<path fill="#FFFFFF" d="M35.039,106.578l1.8,1.8C36.184,107.814,35.58,107.217,35.039,106.578z"/>
</g>
<g>
</g>
<g>
</g>
<g>
</g>
<g>
</g>
<g>
</g>
<g>
</g>
<g>
</g>
<g>
</g>
<g>
</g>
<g>
</g>
<g>
</g>
<g>
</g>
<g>
</g>
<g>
</g>
<g>
</g>
</svg>
