<?xml version="1.0" encoding="UTF-8" standalone="no"?>
<!-- Created with Inkscape (http://www.inkscape.org/) -->

<svg
   xmlns:dc="http://purl.org/dc/elements/1.1/"
   xmlns:cc="http://creativecommons.org/ns#"
   xmlns:rdf="http://www.w3.org/1999/02/22-rdf-syntax-ns#"
   xmlns:svg="http://www.w3.org/2000/svg"
   xmlns="http://www.w3.org/2000/svg"
   xmlns:sodipodi="http://sodipodi.sourceforge.net/DTD/sodipodi-0.dtd"
   xmlns:inkscape="http://www.inkscape.org/namespaces/inkscape"
   width="753.07001"
   height="357.54001"
   id="svg2"
   version="1.1"
   viewBox="0 0 753.07001 357.54001"
   inkscape:version="0.48.5 r10040"
   sodipodi:docname="logo.svg">
  <defs
     id="defs4">
    <clipPath
       id="clipPath2999"
       clipPathUnits="userSpaceOnUse">
      <path
         id="path3001"
         d="m 0,595.276 841.89,0 L 841.89,0 0,0 0,595.276 z"
         inkscape:connector-curvature="0" />
    </clipPath>
  </defs>
  <sodipodi:namedview
     id="base"
     pagecolor="#ffffff"
     bordercolor="#666666"
     borderopacity="1.0"
     inkscape:pageopacity="0.0"
     inkscape:pageshadow="2"
     inkscape:zoom="0.73647604"
     inkscape:cx="547.41014"
     inkscape:cy="153.73306"
     inkscape:document-units="px"
     inkscape:current-layer="g2995"
     showgrid="false"
     inkscape:window-width="1280"
     inkscape:window-height="683"
     inkscape:window-x="0"
     inkscape:window-y="0"
     inkscape:window-maximized="1"
     fit-margin-top="0"
     fit-margin-left="0"
     fit-margin-right="0"
     fit-margin-bottom="0" />
  <metadata
     id="metadata7">
    <rdf:RDF>
      <cc:Work
         rdf:about="">
        <dc:format>image/svg+xml</dc:format>
        <dc:type
           rdf:resource="http://purl.org/dc/dcmitype/StillImage" />
        <dc:title />
      </cc:Work>
    </rdf:RDF>
  </metadata>
  <g
     inkscape:label="Layer 1"
     inkscape:groupmode="layer"
     id="layer1"
     transform="translate(-57.038292,-36.449702)">
    <g
       transform="matrix(1.25,0,0,-1.25,-137.61101,609.86319)"
       inkscape:label="shabus_logo"
       id="g2993">
      <g
         id="g2995">
        <g
           id="g3003"
           transform="translate(699.9863,381.0991)">
          <path
             inkscape:connector-curvature="0"
             d="m 0,0 c -28.061,-23.337 -60.511,-40.319 -96.683,-50.624 8.405,17.23 19.232,33.593 32.347,48.853 21.34,25.185 43.479,38.995 65.8,41.045 1.336,0.123 2.608,0.185 3.781,0.185 2.61,0 7.23,-0.334 8.838,-2.569 l 0.063,-0.089 c 0.667,-0.905 1.14,-2.548 1.332,-4.624 C 16.546,20.54 11.483,10.014 0,0 M 57.884,36.073 C 57.096,44.66 54.257,52.241 49.445,58.609 38.743,73.072 21.424,79.372 -2.022,77.221 -8.817,76.597 -16.423,75.212 -24.63,73.105 l -0.28,-0.077 C -50.173,65.732 -75.301,47.5 -99.6,18.836 c -21.828,-25.051 -37.295,-51.726 -46.039,-79.378 -9.151,-1.7 -13.458,-2.295 -15.481,-2.482 -15.421,-1.417 -20.027,-11.599 -19.195,-20.657 0.719,-7.835 5.02,-13.468 11.703,-15.881 2.559,0.634 5.235,0.976 7.991,0.976 18.311,0 33.155,-14.844 33.155,-33.155 0,-4.637 -0.955,-9.051 -2.675,-13.058 9.966,-8.298 23.25,-13.776 39.681,-16.237 l 0.291,-0.039 c 3.467,-0.413 7.173,-0.622 11.015,-0.622 3.585,0 7.387,0.182 11.304,0.542 16.053,1.475 30.85,6.508 43.966,14.952 16.668,10.693 26.254,24.467 28.491,40.941 l 0.047,0.414 c 0.659,7.128 -1.856,11.672 -4.083,14.228 -3.367,3.865 -8.291,5.984 -14.639,6.3 -0.827,0.06 -1.642,0.09 -2.428,0.09 -11.157,0 -18.959,-6.243 -20.87,-16.7 l -0.048,-0.292 c -0.768,-5.064 -4.127,-9.439 -10.273,-13.377 -7.297,-4.68 -15.423,-7.375 -24.839,-8.241 -4.088,-0.374 -7.811,-0.457 -11.059,-0.246 -17.139,2.607 -25.079,11.312 -25.731,28.181 l -0.034,0.515 c -0.041,0.436 -0.071,0.883 -0.093,1.338 53.069,11.125 99.455,33.139 137.987,65.501 21.673,18.222 31.545,39.629 29.34,63.624"
             style="fill:#231f20;fill-opacity:1;fill-rule:nonzero;stroke:none"
             id="path3005" />
        </g>
        <g
           id="g3007"
           transform="translate(539.0566,232.4814)">
          <path
             inkscape:connector-curvature="0"
             d="m 0,0 -101.377,0 c -4.487,0 -8.532,1.73 -11.39,4.874 -2.872,3.158 -4.217,7.378 -3.789,11.883 0.862,9.058 8.639,16.154 17.704,16.154 l 64.517,0 6.683,70.221 c 0.629,6.61 -0.473,11.681 -3.187,14.666 -2.212,2.432 -5.656,3.666 -10.236,3.666 l -43.794,0 c -4.487,0 -8.532,1.731 -11.39,4.873 -2.871,3.159 -4.217,7.379 -3.788,11.884 0.862,9.058 8.639,16.154 17.704,16.154 l 43.794,0 c 14.146,0 25.907,-4.712 34.015,-13.628 8.479,-9.325 12.347,-22.898 10.888,-38.218 l -6.625,-69.618 2.796,0 c 4.488,0 8.533,-1.73 11.391,-4.874 2.871,-3.157 4.217,-7.378 3.787,-11.884 C 16.842,7.096 9.065,0 0,0"
             style="fill:#4faa2d;fill-opacity:1;fill-rule:nonzero;stroke:none"
             id="path3009" />
        </g>
        <g
           id="g3011"
           transform="translate(477.6685,294.1758)">
          <path
             inkscape:connector-curvature="0"
             d="m 0,0 c -3.078,0 -5.879,1.216 -7.888,3.425 -2.026,2.228 -3.017,5.3 -2.718,8.428 l 0.627,6.592 c 0.583,6.129 6.05,11.116 12.187,11.116 3.164,0 6.033,-1.24 8.08,-3.49 2.017,-2.219 2.967,-5.141 2.673,-8.23 L 12.334,11.25 C 11.743,5.046 6.21,0 0,0"
             style="fill:#4faa2d;fill-opacity:1;fill-rule:nonzero;stroke:none"
             id="path3013" />
        </g>
        <g
           id="g3015"
           transform="translate(332.6782,249.3584)">
          <path
             inkscape:connector-curvature="0"
             d="m 0,0 c 0,18.311 14.844,33.154 33.155,33.154 0.911,0 1.81,-0.047 2.702,-0.119 0.334,1.778 0.596,3.572 0.768,5.38 l 3.896,40.939 c 1.911,20.084 -7.496,39.799 -23.958,50.223 -7.909,5.033 -18.359,7.921 -28.669,7.921 l -49.832,0 c -9.065,0 -16.841,-7.096 -17.703,-16.154 -0.429,-4.505 0.916,-8.725 3.788,-11.884 2.858,-3.143 6.903,-4.874 11.39,-4.874 l 49.156,0 c 6.339,0 12.139,-2.538 16.33,-7.147 C 5.268,92.771 7.351,86.398 6.738,79.957 L 2.842,39.019 C 2.045,30.649 -2.496,24.725 -6.163,21.23 -11,16.633 -21.033,13.786 -27.554,13.786 c -6.77,0 -16.515,2.9 -20.231,7.212 -2.923,3.402 -6.242,9.185 -5.459,17.417 l 2.654,27.893 c 0.37,3.886 1.066,6.53 2.398,9.099 1.59,2.694 2.601,5.61 2.85,8.219 0.395,4.151 -0.908,8.108 -3.669,11.144 -2.941,3.234 -7.343,5.165 -11.777,5.165 -7.525,0 -13.464,-5.053 -16.473,-9.72 -3.723,-5.486 -6.182,-13.544 -7.111,-23.304 l -2.654,-27.892 c -1.445,-15.182 3.336,-30.09 13.145,-40.931 9.573,-10.319 26.775,-16.988 43.822,-16.988 10.795,0 22.22,2.815 32.038,7.598 C 0.7,-7.774 0,-3.969 0,0"
             style="fill:#4faa2d;fill-opacity:1;fill-rule:nonzero;stroke:none"
             id="path3017" />
        </g>
        <g
           id="g3019"
           transform="translate(421.6299,382.8584)">
          <path
             inkscape:connector-curvature="0"
             d="m 0,0 c -3.004,3.303 -7.229,5.123 -11.898,5.123 -9.163,0 -17.326,-7.449 -18.197,-16.604 l -8.893,-93.444 c 9.78,-5.765 16.346,-16.4 16.346,-28.575 0,-7.048 -2.205,-13.577 -5.955,-18.949 0.751,-0.104 1.513,-0.176 2.292,-0.176 9.287,0 17.56,7.549 18.444,16.827 L 3.913,-12.084 C 4.345,-7.542 2.955,-3.25 0,0"
             style="fill:#4faa2d;fill-opacity:1;fill-rule:nonzero;stroke:none"
             id="path3021" />
        </g>
        <g
           id="g3023"
           transform="translate(365.8335,233.5059)">
          <path
             inkscape:connector-curvature="0"
             d="m 0,0 c 8.755,0 15.852,7.098 15.852,15.853 0,8.754 -7.097,15.851 -15.852,15.851 -8.755,0 -15.852,-7.097 -15.852,-15.851 C -15.852,7.098 -8.755,0 0,0"
             style="fill:#4faa2d;fill-opacity:1;fill-rule:nonzero;stroke:none"
             id="path3025" />
        </g>
        <g
           id="g3027"
           transform="translate(236.6987,200.2568)">
          <path
             inkscape:connector-curvature="0"
             d="m 0,0 c -1.55,0 -2.873,-1.071 -3.002,-2.431 -0.129,-1.359 0.989,-2.43 2.54,-2.43 l 10.19,0 c 2.676,0 3.749,-1.566 3.517,-3.995 l -1.533,-16.106 c -0.133,-1.401 1.024,-2.555 2.621,-2.555 1.598,0 3.022,1.154 3.155,2.555 l 1.533,16.106 C 19.515,-3.666 16.107,0 10.19,0 L 0,0 z m 0.942,-6.879 c -1.408,0 -2.669,-0.906 -3.014,-2.06 l -0.954,-3.13 -0.969,-10.175 -1.973,0 c -1.549,0 -2.872,-1.071 -3.001,-2.431 -0.13,-1.358 0.99,-2.429 2.539,-2.429 l 4.837,0 c 1.596,0 3.033,1.277 3.155,2.553 l 1.148,12.07 0.811,2.594 c 0.062,0.165 0.078,0.329 0.093,0.494 0.145,1.525 -1.075,2.514 -2.672,2.514 m 25.797,7.085 c -1.596,0 -2.974,-1.153 -3.103,-2.514 l -0.859,-9.02 c -0.133,-1.401 1.025,-2.555 2.621,-2.555 1.597,0 3.022,1.154 3.155,2.555 l 0.859,9.02 c 0.133,1.402 -1.076,2.514 -2.673,2.514 M 39.492,0 c -1.221,0 -2.274,-0.7 -2.783,-1.606 l -4.681,-8.24 c -0.623,-1.111 -0.474,-2.017 0.575,-2.842 l 4.859,-3.707 c 0.478,-0.412 1.068,-0.618 1.773,-0.618 1.549,0 2.872,1.072 3.001,2.431 0.079,0.823 -0.284,1.441 -0.986,1.977 l -3.145,2.471 2.991,5.273 8.593,0 -1.164,-12.235 c -0.262,-2.758 -3.073,-5.148 -6.266,-5.148 l -8.171,0 c -1.55,0 -2.873,-1.071 -3.002,-2.431 -0.129,-1.358 0.99,-2.429 2.539,-2.429 l 8.172,0 c 2.018,0 4.132,0.494 5.905,1.359 3.596,1.77 6.121,5.107 6.458,8.649 l 1.396,14.665 C 55.685,-1.071 54.566,0 53.016,0 L 39.492,0 z m 23.781,0.206 c -1.597,0 -2.975,-1.153 -3.105,-2.514 l -2.155,-22.654 c -0.134,-1.401 1.025,-2.555 2.621,-2.555 1.596,0 3.021,1.154 3.155,2.555 l 2.155,22.654 c 0.134,1.402 -1.075,2.514 -2.671,2.514 M 74.241,0 c -1.55,0 -2.873,-1.071 -3.002,-2.431 -0.13,-1.359 0.99,-2.43 2.539,-2.43 l 10.19,0 c 2.677,0 3.749,-1.566 3.517,-3.995 l -1.532,-16.106 c -0.134,-1.401 1.025,-2.555 2.621,-2.555 1.596,0 3.021,1.154 3.155,2.555 l 1.532,16.106 C 93.755,-3.666 90.348,0 84.431,0 l -10.19,0 z m 0.942,-6.879 c -1.409,0 -2.669,-0.906 -3.014,-2.06 l -0.956,-3.13 -0.968,-10.175 -1.972,0 c -1.55,0 -2.872,-1.071 -3.001,-2.431 -0.129,-1.358 0.989,-2.429 2.539,-2.429 l 4.836,0 c 1.597,0 3.033,1.277 3.155,2.553 l 1.148,12.07 0.811,2.594 c 0.063,0.165 0.078,0.329 0.094,0.494 0.145,1.525 -1.076,2.514 -2.672,2.514 m 25.796,7.085 c -1.595,0 -2.973,-1.153 -3.103,-2.514 l -0.858,-9.02 c -0.133,-1.401 1.025,-2.555 2.621,-2.555 1.597,0 3.022,1.154 3.155,2.555 l 0.858,9.02 c 0.134,1.402 -1.075,2.514 -2.673,2.514 m 9.361,0.165 c -1.596,0 -2.974,-1.154 -3.108,-2.555 -0.027,-0.289 0.036,-0.618 0.106,-0.865 l 0.645,-3.09 0.306,-18.495 c 0.043,-1.523 1.033,-2.47 2.629,-2.47 l 8.219,0 c 5.353,0 10.397,2.676 12.629,8.362 l 5.069,12.809 c 0.49,1.196 0.682,2.226 0.722,3.131 0.058,1.113 -0.357,2.184 -1.198,2.72 -0.666,0.412 -1.503,0.494 -2.27,0.329 -1.726,-0.371 -2.465,-1.73 -2.308,-3.049 0.078,-0.658 -0.122,-1.276 -0.361,-1.811 l -5.243,-13.141 c -0.982,-2.431 -3.15,-4.49 -6.578,-4.49 l -5.588,0 -0.334,17.219 -0.669,3.336 c -0.257,1.236 -1.259,2.06 -2.668,2.06 m 12.632,0 c -1.315,0 -2.52,-0.824 -2.951,-1.895 l -2.341,-6.344 c -0.442,-1.195 -0.67,-1.607 -1.038,-2.019 -0.32,-0.412 -0.559,-0.946 -0.61,-1.482 -0.129,-1.36 1.365,-2.431 2.973,-2.308 1.796,0.124 2.842,1.237 3.409,2.761 l 3.015,7.99 c 0.117,0.248 0.188,0.495 0.211,0.742 0.133,1.401 -1.072,2.555 -2.668,2.555 M 151.581,0 c -1.55,0 -2.872,-1.071 -3.001,-2.431 -0.13,-1.359 0.988,-2.43 2.539,-2.43 l 10.19,0 c 2.676,0 3.749,-1.566 3.517,-3.995 l -1.533,-16.106 c -0.133,-1.401 1.025,-2.555 2.622,-2.555 1.596,0 3.021,1.154 3.154,2.555 l 1.533,16.106 C 171.096,-3.666 167.688,0 161.771,0 l -10.19,0 z m 0.942,-6.879 c -1.409,0 -2.669,-0.906 -3.014,-2.06 l -0.954,-3.13 -0.969,-10.175 -1.972,0 c -1.55,0 -2.873,-1.071 -3.002,-2.431 -0.13,-1.358 0.99,-2.429 2.54,-2.429 l 4.836,0 c 1.596,0 3.033,1.277 3.155,2.553 l 1.149,12.07 0.809,2.594 c 0.063,0.165 0.079,0.329 0.094,0.494 0.145,1.525 -1.075,2.514 -2.672,2.514 m 25.798,7.085 c -1.597,0 -2.975,-1.153 -3.105,-2.514 l -0.858,-9.02 c -0.133,-1.401 1.025,-2.555 2.622,-2.555 1.596,0 3.021,1.154 3.154,2.555 l 0.859,9.02 c 0.133,1.402 -1.076,2.514 -2.672,2.514 M 189.148,0 c -1.55,0 -2.873,-1.071 -3.002,-2.431 -0.129,-1.359 0.989,-2.43 2.54,-2.43 l 8.077,0 c 1.595,0 2.997,-0.577 3.94,-1.525 0.899,-0.905 1.385,-2.223 1.252,-3.625 l -1.165,-12.233 -6.481,0 c -1.549,0 -2.872,-1.071 -3.001,-2.431 -0.129,-1.358 0.99,-2.429 2.539,-2.429 l 9.439,0 c 1.549,0 2.873,1.071 3.002,2.429 l 1.396,14.664 c 0.168,1.773 -0.27,3.584 -1.163,5.068 -0.856,1.359 -2.229,2.718 -3.79,3.584 C 201.165,-0.535 199.103,0 194.783,0 l -5.635,0 z m 2.593,-6.798 c -1.268,0 -2.172,-0.617 -2.838,-1.688 l -1.862,-2.801 -5.356,-12.852 c -0.122,-0.289 -0.242,-0.577 -0.273,-0.906 -0.13,-1.359 1.027,-2.513 2.625,-2.513 1.408,0 2.567,0.824 3.06,2.06 l 4.941,11.945 1.879,2.967 c 0.223,0.369 0.449,0.781 0.492,1.234 0.133,1.402 -1.071,2.554 -2.668,2.554 M 214.773,7.25 c -1.597,0 -2.975,-1.154 -3.104,-2.514 l -0.67,-7.044 c -0.134,-1.399 1.024,-2.553 2.622,-2.553 l 10.941,0 c 0.845,0 1.162,-0.618 0.758,-1.401 l -7.503,-14.706 -0.98,-3.377 c -0.066,-0.206 -0.133,-0.412 -0.152,-0.617 -0.138,-1.442 1.024,-2.555 2.669,-2.555 1.548,0 2.77,0.989 3.126,2.266 l 0.874,3.255 7.203,14.005 c 0.398,0.741 0.61,1.482 0.684,2.264 0.29,3.049 -1.897,5.727 -6.217,5.727 l -8.03,0 0.451,4.736 c 0.133,1.402 -1.076,2.514 -2.672,2.514 M 236.61,0.371 c -1.596,0 -2.973,-1.154 -3.107,-2.555 -0.027,-0.289 0.036,-0.618 0.105,-0.865 l 0.646,-3.09 0.306,-18.495 c 0.043,-1.523 1.033,-2.47 2.628,-2.47 l 8.219,0 c 5.353,0 10.397,2.676 12.63,8.362 l 5.069,12.809 c 0.489,1.196 0.682,2.226 0.721,3.131 0.058,1.113 -0.357,2.184 -1.198,2.72 -0.665,0.412 -1.502,0.494 -2.269,0.329 -1.726,-0.371 -2.466,-1.73 -2.31,-3.049 0.078,-0.658 -0.121,-1.276 -0.36,-1.811 l -5.241,-13.141 c -0.984,-2.431 -3.152,-4.49 -6.58,-4.49 l -5.588,0 -0.333,17.219 -0.669,3.336 c -0.258,1.236 -1.259,2.06 -2.669,2.06 m 12.632,0 c -1.315,0 -2.52,-0.824 -2.951,-1.895 l -2.341,-6.344 c -0.442,-1.195 -0.67,-1.607 -1.037,-2.019 -0.321,-0.412 -0.56,-0.946 -0.611,-1.482 -0.129,-1.36 1.366,-2.431 2.973,-2.308 1.797,0.124 2.842,1.237 3.41,2.761 l 3.015,7.99 c 0.117,0.248 0.187,0.495 0.21,0.742 0.133,1.401 -1.071,2.555 -2.668,2.555 m 20.365,-0.165 c -1.598,0 -2.974,-1.153 -3.104,-2.514 l -2.156,-22.654 c -0.133,-1.401 1.025,-2.555 2.621,-2.555 1.597,0 3.022,1.154 3.156,2.555 l 2.156,22.654 c 0.133,1.402 -1.076,2.514 -2.673,2.514 M 278.321,0 c -1.55,0 -2.872,-1.071 -3.001,-2.431 -0.13,-1.359 0.988,-2.43 2.539,-2.43 l 10.518,0 -1.909,-20.06 c -0.133,-1.401 1.026,-2.555 2.621,-2.555 1.597,0 3.022,1.154 3.156,2.555 l 2.14,22.49 c 0.129,1.36 -0.99,2.431 -2.54,2.431 l -13.524,0 z m 23.639,0.206 c -1.596,0 -2.974,-1.153 -3.103,-2.514 l -0.859,-9.02 c -0.133,-1.401 1.025,-2.555 2.622,-2.555 1.596,0 3.021,1.154 3.154,2.555 l 0.858,9.02 c 0.134,1.402 -1.075,2.514 -2.672,2.514 M 320.348,0 c -1.55,0 -2.873,-1.071 -3.002,-2.431 -0.13,-1.359 0.989,-2.43 2.539,-2.43 l 9.627,0 c 2.676,0 3.748,-1.566 3.518,-3.995 l -1.533,-16.106 c -0.134,-1.401 1.024,-2.555 2.622,-2.555 1.595,0 3.02,1.154 3.154,2.555 l 1.532,16.106 C 339.299,-3.666 335.891,0 329.975,0 l -9.627,0 z m -0.425,-11.369 c -1.408,0 -2.668,-0.906 -3.013,-2.061 l -0.955,-3.13 -0.804,-8.443 c -0.122,-1.277 1.024,-2.555 2.622,-2.555 1.597,0 3.032,1.278 3.153,2.555 l 0.765,8.031 0.811,2.596 c 0.008,0.082 0.079,0.33 0.094,0.493 0.133,1.402 -1.076,2.514 -2.673,2.514 M 344.766,0 c -1.55,0 -2.873,-1.071 -3.002,-2.431 -0.13,-1.359 0.989,-2.43 2.539,-2.43 l 10.52,0 -1.909,-20.06 c -0.134,-1.401 1.024,-2.555 2.621,-2.555 1.596,0 3.021,1.154 3.154,2.555 l 2.141,22.49 C 360.959,-1.071 359.84,0 358.291,0 l -13.525,0 z m 23.639,0.206 c -1.596,0 -2.974,-1.153 -3.104,-2.514 l -2.156,-22.654 c -0.133,-1.401 1.025,-2.555 2.621,-2.555 1.598,0 3.023,1.154 3.155,2.555 l 2.157,22.654 c 0.132,1.402 -1.077,2.514 -2.673,2.514 M 378.153,0 c -1.55,0 -2.873,-1.071 -3.002,-2.431 -0.13,-1.359 0.989,-2.43 2.54,-2.43 l 6.01,0 c 2.676,0 3.749,-1.566 3.517,-3.995 l -1.274,-13.388 -10.941,0 c -1.549,0 -2.873,-1.071 -3.003,-2.431 -0.128,-1.358 0.991,-2.429 2.541,-2.429 l 18.032,0 c 1.549,0 2.872,1.071 3.001,2.429 0.13,1.36 -0.99,2.431 -2.538,2.431 l -1.316,0 1.275,13.388 C 393.488,-3.666 390.081,0 384.163,0 l -6.01,0 z m 24.418,0 c -1.55,0 -2.873,-1.071 -3.002,-2.431 -0.13,-1.359 0.989,-2.43 2.54,-2.43 l 10.282,0 c 2.678,0 3.749,-1.566 3.519,-3.995 l -1.534,-16.106 c -0.133,-1.401 1.026,-2.555 2.623,-2.555 1.595,0 3.02,1.154 3.154,2.555 l 1.532,16.106 C 422.179,-3.666 418.771,0 412.854,0 l -10.283,0 z m 0.332,-6.879 c -1.409,0 -2.67,-0.906 -3.015,-2.06 l -0.955,-3.13 -1.23,-12.934 c -0.122,-1.277 1.024,-2.555 2.621,-2.555 1.596,0 3.033,1.278 3.155,2.555 l 1.191,12.522 0.81,2.594 c 0.063,0.165 0.078,0.329 0.095,0.494 0.144,1.525 -1.076,2.514 -2.672,2.514 M 429.9,0 c -1.55,0 -2.873,-1.071 -3.002,-2.431 -0.13,-1.359 0.989,-2.43 2.539,-2.43 l 10.19,0 c 2.677,0 3.749,-1.566 3.518,-3.995 l -1.532,-16.106 c -0.134,-1.401 1.023,-2.555 2.62,-2.555 1.598,0 3.021,1.154 3.154,2.555 l 1.533,16.106 C 449.415,-3.666 446.007,0 440.09,0 L 429.9,0 z m 0.942,-6.879 c -1.409,0 -2.669,-0.906 -3.013,-2.06 l -0.955,-3.13 -0.969,-10.175 -1.973,0 c -1.549,0 -2.872,-1.071 -3.001,-2.431 -0.13,-1.358 0.989,-2.429 2.538,-2.429 l 4.838,0 c 1.597,0 3.033,1.277 3.154,2.553 l 1.149,12.07 0.81,2.594 c 0.063,0.165 0.079,0.329 0.094,0.494 0.146,1.525 -1.076,2.514 -2.672,2.514"
             style="fill:#231f20;fill-opacity:1;fill-rule:nonzero;stroke:none"
             id="path3029" />
        </g>
      </g>
    </g>
  </g>
</svg>
