<?xml version="1.0" encoding="utf-8"?>
<!-- Generator: Adobe Illustrator 18.0.0, SVG Export Plug-In . SVG Version: 6.00 Build 0)  -->
<!DOCTYPE svg PUBLIC "-//W3C//DTD SVG 1.1//EN" "http://www.w3.org/Graphics/SVG/1.1/DTD/svg11.dtd">
<svg version="1.1" id="Layer_1" xmlns="http://www.w3.org/2000/svg" xmlns:xlink="http://www.w3.org/1999/xlink" x="0px" y="0px"
	 viewBox="0 0 960 560" width="960" height="560" enable-background="new 0 0 960 560" xml:space="preserve">
<g id="g2997_2_">
	<g id="g3003_2_" transform="translate(627.9863,381.0991)">
		<path id="path3005_2_" fill="#231F20" d="M226.6-219.6c-50.9,42.3-109.5,73.1-175,91.5c15.2-31.2,34.6-60.6,58.5-88.3
			c38.5-45.7,78.6-70.7,119.2-74.1c2.4-0.3,4.9-0.3,6.9-0.3c4.9,0,13.2,0.7,15.9,4.5l0,0c1,1.7,2.1,4.5,2.4,8.3
			C256.4-256.7,247.4-237.6,226.6-219.6 M331.3-284.7c-1.4-15.6-6.6-29.1-15.2-40.9c-19.4-26.3-50.6-37.4-93.2-33.6
			c-12.1,1-26,3.5-40.9,7.3h-0.3c-45.7,13.2-91.1,46.1-135.1,98C7-208.5-21.1-160.3-36.7-110.1c-16.6,3.1-24.3,4.2-28.1,4.5
			c-28.1,2.4-36.4,21.1-34.6,37.4c1.4,14.2,9,24.3,21.1,28.8c4.5-1,9.4-1.7,14.6-1.7c33.3,0,59.9,27,59.9,59.9
			c0,8.3-1.7,16.3-4.9,23.6c18,14.9,41.9,24.9,71.7,29.4h0.7c6.2,0.7,12.8,1,20.1,1c6.6,0,13.5-0.3,20.4-1
			c29.1-2.8,55.8-11.8,79.7-27c30.1-19.4,47.5-44.3,51.6-74.1v-0.7c1-12.8-3.5-21.1-7.3-25.6c-6.2-6.9-14.9-10.7-26.3-11.4
			c-1.4,0-3.1,0-4.5,0c-20.1,0-34.3,11.4-37.8,30.1v0.7c-1.4,9-7.6,17-18.7,24.3C127.9-3.8,113,1.4,96,2.8
			c-7.3,0.7-14.2,0.7-20.1,0.3C44.8-1.7,30.6-17.3,29.5-47.7v-1c0-0.7,0-1.7,0-2.4c96-20.1,179.8-59.9,249.8-118.5
			C317.4-202.6,335.4-241.4,331.3-284.7"/>
	</g>
	<g id="g3007_2_" transform="translate(467.0566,232.4814)">
		<path id="path3009_2_" fill="#FFFFFF" d="M96.5,198.2H-87.2c-8,0-15.6-3.1-20.4-8.7c-5.2-5.5-7.6-13.5-6.9-21.5
			c1.4-16.3,15.6-29.1,31.9-29.1H34.1L46.2,11.8c1-12.1-0.7-21.1-5.9-26.7c-4.2-4.5-10.4-6.6-18.4-6.6h-79.3c-8,0-15.6-3.1-20.4-8.7
			c-5.2-5.9-7.6-13.5-6.9-21.5c1.4-16.3,15.6-29.1,31.9-29.1h79.3c25.6,0,46.8,8.7,61.7,24.6c15.2,17,22.2,41.6,19.7,69.3
			L95.8,139.3h5.2c8,0,15.6,3.1,20.4,8.7c5.2,5.5,7.6,13.5,6.9,21.5C126.9,185.3,112.7,198.2,96.5,198.2"/>
	</g>
	<g id="g3011_2_" transform="translate(405.6685,294.1758)">
		<path id="path3013_2_" fill="#FFFFFF" d="M46.7,24.9c-5.5,0-10.7-2.1-14.2-6.2c-3.8-4.2-5.5-9.7-4.9-15.2l1-11.8
			c1-11.1,11.1-20.1,22.2-20.1c5.9,0,11.1,2.1,14.6,6.2c3.8,4.2,5.2,9.4,4.9,14.9l-1,11.8C67.8,15.5,57.8,24.9,46.7,24.9"/>
	</g>
	<g id="g3015_2_" transform="translate(260.6782,249.3584)">
		<path id="path3017_2_" fill="#FFFFFF" d="M-70.9,150.7c0-33.3,27-59.9,59.9-59.9c1.7,0,3.1,0,4.9,0.3c0.7-3.1,1-6.6,1.4-9.7
			L2.2,7.3c3.5-36.4-13.5-72.1-43.3-90.8c-14.2-9-33.3-14.2-52-14.2h-90.1c-16.3,0-30.5,12.8-31.9,29.1c-0.7,8.3,1.7,15.9,6.9,21.5
			c5.2,5.5,12.5,8.7,20.8,8.7h89c11.4,0,21.8,4.5,29.4,12.8S-57.4-5.5-58.4,5.9L-65.4,80c-1.4,15.2-9.7,26-16.3,32.2
			c-8.7,8.3-27,13.5-38.8,13.5c-12.1,0-29.8-5.2-36.7-13.2c-5.2-6.2-11.4-16.6-10-31.5l4.9-50.6c0.7-6.9,2.1-11.8,4.5-16.6
			c2.8-4.9,4.9-10,5.2-14.9c0.7-7.6-1.7-14.6-6.6-20.1c-5.2-5.9-13.2-9.4-21.5-9.4c-13.5,0-24.3,9-29.8,17.7
			c-6.6,10-11.1,24.6-12.8,42.3l-4.9,50.6c-2.8,27.4,5.9,54.4,23.9,74.1c17.3,18.7,48.5,30.8,79.3,30.8c19.4,0,40.2-5.2,57.9-13.9
			C-69.5,164.9-70.9,158-70.9,150.7"/>
	</g>
	<g id="g3019_2_" transform="translate(349.6299,382.8584)">
		<path id="path3021_2_" fill="#FFFFFF" d="M1.4-224.3c-5.5-5.9-13.2-9.4-21.5-9.4c-16.6,0-31.2,13.5-32.9,30.1L-68.9-34.4
			C-51.2-24-39.5-4.6-39.5,17.2c0,12.8-4.2,24.6-10.7,34.3c1.4,0.3,2.8,0.3,4.2,0.3c17,0,31.9-13.5,33.3-30.5L8.4-202.4
			C9-210.7,6.6-218.4,1.4-224.3"/>
	</g>
	<g id="g3023_2_" transform="translate(293.8335,233.5059)">
		<path id="path3025_2_" fill="#FFFFFF" d="M-43.9,195.1c15.9,0,28.8-12.8,28.8-28.8c0-15.9-12.8-28.8-28.8-28.8
			s-28.8,12.8-28.8,28.8C-72.7,182.3-59.9,195.1-43.9,195.1"/>
	</g>
	<g id="g3027_2_" transform="translate(164.6987,200.2568)">
		<path id="path3029_2_" fill="#231F20" d="M-148.4,288.5c-2.8,0-5.2,2.1-5.5,4.5c-0.3,2.4,1.7,4.5,4.5,4.5h18.4
			c4.9,0,6.9,2.8,6.2,7.3l-2.8,29.1c-0.3,2.4,1.7,4.5,4.9,4.5c2.8,0,5.5-2.1,5.5-4.5l2.8-29.1c1-9.4-5.2-15.9-15.9-15.9h-18V288.5z
			 M-146.7,301c-2.4,0-4.9,1.7-5.5,3.8l-1.7,5.5l-1.7,18.4h-3.5c-2.8,0-5.2,2.1-5.5,4.5c-0.3,2.4,1.7,4.5,4.5,4.5h8.7
			c2.8,0,5.5-2.4,5.5-4.5l2.1-21.8l1.4-4.9c0-0.3,0-0.7,0-1C-141.5,303.1-143.9,301-146.7,301 M-99.9,288.2c-2.8,0-5.5,2.1-5.5,4.5
			l-1.4,16.3c-0.3,2.4,1.7,4.5,4.9,4.5c2.8,0,5.5-2.1,5.5-4.5l1.4-16.3C-95.1,290.2-97.1,288.2-99.9,288.2 M-77.1,288.5
			c-2.1,0-4.2,1.4-5.2,2.8l-8.3,14.9c-1,2.1-0.7,3.8,1,5.2l8.7,6.6c0.7,0.7,2.1,1,3.1,1c2.8,0,5.2-2.1,5.5-4.5
			c0-1.4-0.3-2.8-1.7-3.5l-5.5-4.5l5.5-9.7h15.6l-2.1,22.2c-0.3,4.9-5.5,9.4-11.4,9.4h-14.9c-2.8,0-5.2,2.1-5.5,4.5
			c-0.3,2.4,1.7,4.5,4.5,4.5h14.9c3.8,0,7.6-1,10.7-2.4c6.6-3.1,11.1-9.4,11.8-15.6l2.4-26.7c0.3-2.4-1.7-4.5-4.5-4.5h-24.6V288.5z
			 M-34.1,288.2c-2.8,0-5.5,2.1-5.5,4.5l-3.8,40.9c-0.3,2.4,1.7,4.5,4.9,4.5c2.8,0,5.5-2.1,5.5-4.5l3.8-40.9
			C-28.9,290.2-31,288.2-34.1,288.2 M-14,288.5c-2.8,0-5.2,2.1-5.5,4.5c-0.3,2.4,1.7,4.5,4.5,4.5H3.3c4.9,0,6.9,2.8,6.2,7.3
			l-2.8,29.1c-0.3,2.4,1.7,4.5,4.9,4.5c2.8,0,5.5-2.1,5.5-4.5l2.8-29.1c1-9.4-5.2-15.9-15.9-15.9h-18V288.5z M-12.3,301
			c-2.4,0-4.9,1.7-5.5,3.8l-1.7,5.5l-1.7,18.4h-3.5c-2.8,0-5.2,2.1-5.5,4.5c-0.3,2.4,1.7,4.5,4.5,4.5h8.7c2.8,0,5.5-2.4,5.5-4.5
			l2.1-21.8l1.4-4.9c0-0.3,0-0.7,0-1C-7.4,303.1-9.5,301-12.3,301 M34.2,288.2c-2.8,0-5.5,2.1-5.5,4.5l-1.4,16.3
			c-0.3,2.4,1.7,4.5,4.9,4.5c3.1,0,5.5-2.1,5.5-4.5l1.4-16.3C39.4,290.2,37.3,288.2,34.2,288.2 M51.1,288.2c-2.8,0-5.5,2.1-5.5,4.5
			c0,0.7,0,1,0.3,1.7l1,5.5l0.7,33.6c0,2.8,1.7,4.5,4.9,4.5h14.9c9.7,0,18.7-4.9,22.9-15.2l9-23.2c1-2.1,1.4-4.2,1.4-5.5
			c0-2.1-0.7-3.8-2.1-4.9c-1-0.7-2.8-1-4.2-0.7c-3.1,0.7-4.5,3.1-4.2,5.5c0,1-0.3,2.4-0.7,3.1l-9.4,23.9c-1.7,4.5-5.5,8-11.8,8h-10
			l-0.7-31.2l-1-5.9C55.6,289.5,53.9,288.2,51.1,288.2 M74,288.2c-2.4,0-4.5,1.4-5.2,3.5l-4.2,11.4c-0.7,2.1-1,2.8-1.7,3.8
			c-0.7,0.7-1,1.7-1,2.8c-0.3,2.4,2.4,4.5,5.5,4.2s5.2-2.1,6.2-4.9l5.5-14.6c0.3-0.3,0.3-1,0.3-1.4C79.2,290.2,77.1,288.2,74,288.2
			 M126,288.5c-2.8,0-5.2,2.1-5.5,4.5c-0.3,2.4,1.7,4.5,4.5,4.5h18.4c4.9,0,6.9,2.8,6.2,7.3l-2.8,29.1c-0.3,2.4,1.7,4.5,4.9,4.5
			c2.8,0,5.5-2.1,5.5-4.5l2.8-29.1c1-9.4-5.2-15.9-15.9-15.9h-18V288.5z M127.7,301c-2.4,0-4.9,1.7-5.5,3.8l-1.7,5.5l-1.7,18.4h-3.5
			c-2.8,0-5.2,2.1-5.5,4.5c-0.3,2.4,1.7,4.5,4.5,4.5h8.7c2.8,0,5.5-2.4,5.5-4.5l2.1-21.8l1.4-4.9c0-0.3,0-0.7,0-1
			C132.5,303.1,130.5,301,127.7,301 M174.1,288.2c-2.8,0-5.5,2.1-5.5,4.5l-1.4,16.3c-0.3,2.4,1.7,4.5,4.9,4.5c3.1,0,5.5-2.1,5.5-4.5
			l1.4-16.3C179.3,290.2,177.2,288.2,174.1,288.2 M193.9,288.5c-2.8,0-5.2,2.1-5.5,4.5c-0.3,2.4,1.7,4.5,4.5,4.5h14.6
			c2.8,0,5.5,1,7.3,2.8c1.7,1.7,2.4,4.2,2.4,6.6L215,329h-11.8c-2.8,0-5.2,2.1-5.5,4.5c-0.3,2.4,1.7,4.5,4.5,4.5h17
			c2.8,0,5.2-2.1,5.5-4.5l2.4-26.7c0.3-3.1-0.3-6.6-2.1-9c-1.4-2.4-4.2-4.9-6.9-6.6c-2.8-1.4-6.6-2.4-14.6-2.4h-9.7V288.5z
			 M198.4,301c-2.4,0-3.8,1-5.2,3.1l-3.5,5.2l-9.7,23.2c-0.3,0.7-0.3,1-0.3,1.7c-0.3,2.4,1.7,4.5,4.9,4.5c2.4,0,4.5-1.4,5.5-3.8
			l9-21.5l3.5-5.2c0.3-0.7,0.7-1.4,1-2.1C203.6,303.1,201.5,301,198.4,301 M240.3,275.7c-2.8,0-5.5,2.1-5.5,4.5l-1.4,12.8
			c-0.3,2.4,1.7,4.5,4.9,4.5H258c1.4,0,2.1,1,1.4,2.4l-13.5,26.7l-1.7,6.2c0,0.3-0.3,0.7-0.3,1c-0.3,2.8,1.7,4.5,4.9,4.5
			c2.8,0,4.9-1.7,5.5-4.2l1.7-5.9l13.2-25.3c0.7-1.4,1-2.8,1.4-4.2c0.7-5.5-3.5-10.4-11.1-10.4h-14.6l0.7-8.7
			C245.1,277.4,243.1,275.7,240.3,275.7 M279.8,288.2c-2.8,0-5.5,2.1-5.5,4.5c0,0.7,0,1,0.3,1.7l1,5.5l0.7,33.6
			c0,2.8,1.7,4.5,4.9,4.5h14.9c9.7,0,18.7-4.9,22.9-15.2l9-23.2c1-2.1,1.4-4.2,1.4-5.5c0-2.1-0.7-3.8-2.1-4.9c-1-0.7-2.8-1-4.2-0.7
			c-3.1,0.7-4.5,3.1-4.2,5.5c0,1-0.3,2.4-0.7,3.1l-9.4,23.9c-1.7,4.5-5.5,8-11.8,8h-10l-0.7-31.2l-1-5.9
			C283.9,289.5,282.2,288.2,279.8,288.2 M302.7,288.2c-2.4,0-4.5,1.4-5.2,3.5l-4.2,11.4c-0.7,2.1-1,2.8-1.7,3.8
			c-0.7,0.7-1,1.7-1,2.8c-0.3,2.4,2.4,4.5,5.5,4.2c3.1-0.3,5.2-2.1,6.2-4.9l5.5-14.6c0.3-0.3,0.3-1,0.3-1.4
			C307.5,290.2,305.4,288.2,302.7,288.2 M339.4,288.2c-2.8,0-5.5,2.1-5.5,4.5l-3.8,40.9c-0.3,2.4,1.7,4.5,4.9,4.5s5.5-2.1,5.5-4.5
			l3.8-40.9C344.6,290.2,342.1,288.2,339.4,288.2 M355.3,288.5c-2.8,0-5.2,2.1-5.5,4.5c-0.3,2.4,1.7,4.5,4.5,4.5h19.1l-3.5,36.4
			c-0.3,2.4,1.7,4.5,4.9,4.5c2.8,0,5.5-2.1,5.5-4.5l4.2-40.9c0.3-2.4-1.7-4.5-4.5-4.5H355.3L355.3,288.5z M397.9,288.2
			c-2.8,0-5.5,2.1-5.5,4.5l-1.4,16.3c-0.3,2.8,1.7,4.9,4.5,4.9c2.8,0,5.5-2.1,5.5-4.5l1.4-16.3C403.1,290.2,400.7,288.2,397.9,288.2
			 M431.2,288.5c-2.8,0-5.2,2.1-5.5,4.5c-0.3,2.4,1.7,4.5,4.5,4.5h17.3c4.9,0,6.9,2.8,6.2,7.3l-2.8,29.1c-0.3,2.4,1.7,4.5,4.9,4.5
			c2.8,0,5.5-2.1,5.5-4.5l2.8-29.1c1-9.4-5.2-15.9-15.9-15.9h-17V288.5z M430.5,309.3c-2.4,0-4.9,1.7-5.5,3.8l-1.7,5.5l-1.4,15.2
			c-0.3,2.4,1.7,4.5,4.9,4.5c2.8,0,5.5-2.4,5.5-4.5l1.4-14.6l1.4-4.9c0,0,0-0.7,0-1C435.7,311.4,433.3,309.3,430.5,309.3
			 M475.5,288.5c-2.8,0-5.2,2.1-5.5,4.5c-0.3,2.4,1.7,4.5,4.5,4.5h19.1l-3.5,36.4c-0.3,2.4,1.7,4.5,4.9,4.5c2.8,0,5.5-2.1,5.5-4.5
			l4.2-40.9c0.3-2.4-1.7-4.5-4.5-4.5H475.5z M518.1,288.2c-2.8,0-5.5,2.1-5.5,4.5l-3.8,40.9c-0.3,2.4,1.7,4.5,4.9,4.5
			c3.1,0,5.5-2.1,5.5-4.5L523,293C523.3,290.2,520.9,288.2,518.1,288.2 M535.8,288.5c-2.8,0-5.2,2.1-5.5,4.5
			c-0.3,2.4,1.7,4.5,4.5,4.5h10.7c4.9,0,6.9,2.8,6.2,7.3l-2.4,24.3h-19.7c-2.8,0-5.2,2.1-5.5,4.5s1.7,4.5,4.5,4.5h33.3
			c2.8,0,5.2-2.1,5.5-4.5s-1.7-4.5-4.5-4.5h-2.4l2.4-24.3c1-9.4-5.2-15.9-15.9-15.9h-11.1V288.5z M580.2,288.5
			c-2.8,0-5.2,2.1-5.5,4.5c-0.3,2.4,1.7,4.5,4.5,4.5h18.7c4.9,0,6.9,2.8,6.2,7.3l-2.8,29.1c-0.3,2.4,1.7,4.5,4.9,4.5
			c2.8,0,5.5-2.1,5.5-4.5l2.8-29.1c1-9.4-5.2-15.9-15.9-15.9h-18.4V288.5z M580.5,301c-2.4,0-4.9,1.7-5.5,3.8l-1.7,5.5l-2.1,23.6
			c-0.3,2.4,1.7,4.5,4.9,4.5c2.8,0,5.5-2.4,5.5-4.5l2.1-22.5l1.4-4.9c0-0.3,0-0.7,0.3-1C585.7,303.1,583.6,301,580.5,301
			 M629.3,288.5c-2.8,0-5.2,2.1-5.5,4.5c-0.3,2.4,1.7,4.5,4.5,4.5h18.4c4.9,0,6.9,2.8,6.2,7.3l-2.8,29.1c-0.3,2.4,1.7,4.5,4.9,4.5
			c2.8,0,5.5-2.1,5.5-4.5l2.8-29.1c1-9.4-5.2-15.9-15.9-15.9h-18V288.5z M631.1,301c-2.4,0-4.9,1.7-5.5,3.8l-1.4,5.9l-1.7,18.4H619
			c-2.8,0-5.2,2.1-5.5,4.5c-0.3,2.4,1.7,4.5,4.5,4.5h8.7c2.8,0,5.5-2.4,5.5-4.5l2.1-21.8l1.4-4.9c0-0.3,0-0.7,0-1
			C636.3,303.1,634.2,301,631.1,301"/>
	</g>
</g>
</svg>
