<?xml version="1.0" encoding="utf-8"?>
<!-- Generator: Adobe Illustrator 18.0.0, SVG Export Plug-In . SVG Version: 6.00 Build 0)  -->
<!DOCTYPE svg PUBLIC "-//W3C//DTD SVG 1.1//EN" "http://www.w3.org/Graphics/SVG/1.1/DTD/svg11.dtd">
<svg version="1.1" id="Layer_1" xmlns="http://www.w3.org/2000/svg" xmlns:xlink="http://www.w3.org/1999/xlink" x="0px" y="0px"
	 viewBox="0 0 18 19.4" enable-background="new 0 0 18 19.4" xml:space="preserve">
<g>
	<path d="M15.2,16.1L10.3,12l1.1,6.3l-1.1,1.1H7.8l-1.2-1.1L7.7,12l-4.9,4.1l-1.5-0.5l-1.2-2.1L0.4,12l5.8-2.4L0.4,7.4L0,5.9
		l1.3-2.2l1.6-0.3l4.8,4L6.6,1.1L7.8,0h2.4l1.1,1.1l-1.1,6.3l4.9-4.1l1.5,0.4L18,5.9l-0.5,1.6l-5.9,2.1l5.9,2.4l0.5,1.5l-1.3,2.1
		L15.2,16.1z"/>
</g>
</svg>
