<?xml version="1.0" encoding="utf-8"?>
<!-- Generator: Adobe Illustrator 18.0.0, SVG Export Plug-In . SVG Version: 6.00 Build 0)  -->
<!DOCTYPE svg PUBLIC "-//W3C//DTD SVG 1.1//EN" "http://www.w3.org/Graphics/SVG/1.1/DTD/svg11.dtd">
<svg version="1.1" id="Layer_1" xmlns="http://www.w3.org/2000/svg" xmlns:xlink="http://www.w3.org/1999/xlink" x="0px" y="0px"
	 viewBox="0 0 172.055 150.268" width="172.055" height="150.268" enable-background="new 0 0 172.055 150.268" xml:space="preserve">
<circle fill="#FFFFFF" cx="85.874" cy="86.607" r="51.36"/>
<g>
	<path d="M70.438,65.988c2.377-1.15,4.997-2.033,7.861-2.646c2.862-0.613,5.688-0.92,8.474-0.92c2.121,0,4.104,0.198,5.943,0.594
		c1.842,0.397,3.439,1.042,4.793,1.937c1.355,0.896,2.416,2.084,3.184,3.566c0.768,1.483,1.15,3.312,1.15,5.483
		c0,2.097-0.281,3.849-0.844,5.254c-0.562,1.406-1.393,2.621-2.492,3.643c-1.1,1.023-2.473,1.937-4.123,2.742
		c-1.648,0.806-3.547,1.668-5.693,2.588c-1.254,0.537-2.334,1.004-3.241,1.4c-0.908,0.396-1.668,0.767-2.282,1.111
		c-0.613,0.346-1.111,0.69-1.495,1.036c-0.384,0.345-0.678,0.735-0.882,1.169c-0.205,0.436-0.346,0.934-0.422,1.496
		c-0.077,0.562-0.128,1.24-0.153,2.032h21.053v7.478H69.9v-5.33c0-2.479,0.319-4.614,0.959-6.404
		c0.639-1.789,1.559-3.336,2.761-4.64c1.201-1.304,2.658-2.441,4.371-3.413c1.713-0.971,3.644-1.879,5.791-2.723
		c1.201-0.485,2.281-0.92,3.241-1.304c0.957-0.384,1.77-0.824,2.434-1.323c0.666-0.498,1.176-1.099,1.535-1.802
		c0.357-0.703,0.537-1.63,0.537-2.78c0-0.895-0.154-1.636-0.461-2.224s-0.729-1.061-1.266-1.419s-1.164-0.607-1.879-0.748
		c-0.717-0.141-1.482-0.211-2.3-0.211c-0.844,0-1.777,0.07-2.8,0.211s-2.07,0.339-3.145,0.595c-1.073,0.256-2.154,0.575-3.24,0.958
		c-1.087,0.384-2.115,0.818-3.087,1.304L70.438,65.988z"/>
</g>
<g>
	<circle fill="none" cx="85.874" cy="86.607" r="63.66"/>
	<path d="M48.512,30.722c0.775-0.103,1.572-0.271,2.392-0.503c0.82-0.232,1.658-0.582,2.514-1.05
		c0.556-0.303,1.037-0.631,1.445-0.984c0.408-0.353,0.721-0.729,0.938-1.129c0.218-0.398,0.329-0.817,0.335-1.257
		c0.005-0.438-0.12-0.893-0.377-1.363c-0.278-0.51-0.602-0.858-0.97-1.048s-0.791-0.279-1.267-0.27
		c-0.475,0.01-1.011,0.092-1.607,0.247s-1.258,0.327-1.987,0.515c-0.818,0.206-1.588,0.352-2.309,0.435s-1.393,0.05-2.016-0.101
		c-0.623-0.15-1.202-0.44-1.736-0.869c-0.535-0.43-1.025-1.053-1.472-1.87c-0.299-0.548-0.476-1.087-0.53-1.618
		c-0.055-0.531-0.016-1.041,0.118-1.529s0.342-0.955,0.625-1.4s0.608-0.857,0.976-1.239c0.368-0.381,0.766-0.729,1.195-1.043
		s0.852-0.586,1.269-0.813c0.293-0.159,0.654-0.337,1.084-0.531c0.429-0.194,0.899-0.379,1.411-0.553
		c0.511-0.174,1.051-0.331,1.62-0.472c0.569-0.141,1.14-0.237,1.712-0.289l0.278,2.462c-0.739,0.113-1.48,0.282-2.224,0.508
		s-1.481,0.539-2.214,0.938c-0.462,0.253-0.867,0.521-1.212,0.806s-0.615,0.584-0.808,0.899c-0.193,0.315-0.295,0.646-0.306,0.993
		c-0.011,0.347,0.084,0.705,0.287,1.075c0.261,0.479,0.56,0.801,0.896,0.968s0.729,0.238,1.176,0.214
		c0.448-0.024,0.96-0.116,1.539-0.277c0.579-0.16,1.238-0.333,1.979-0.517c0.811-0.203,1.583-0.342,2.318-0.418
		c0.734-0.075,1.428-0.034,2.081,0.125c0.653,0.16,1.263,0.465,1.83,0.916c0.567,0.452,1.084,1.105,1.552,1.962
		c0.413,0.756,0.647,1.47,0.703,2.14c0.056,0.671-0.009,1.295-0.194,1.871c-0.186,0.577-0.466,1.108-0.842,1.594
		c-0.375,0.486-0.786,0.926-1.232,1.319c-0.446,0.394-0.898,0.739-1.357,1.035c-0.459,0.296-0.871,0.542-1.233,0.74
		c-0.359,0.187-0.771,0.381-1.235,0.585c-0.465,0.203-0.963,0.396-1.496,0.576s-1.086,0.336-1.662,0.465
		c-0.575,0.129-1.151,0.215-1.728,0.26L48.512,30.722z"/>
	<path d="M62.903,7.166l1.899,7.379l0.089-0.022c0.163-0.459,0.344-0.883,0.544-1.271c0.2-0.387,0.443-0.737,0.729-1.052
		s0.624-0.585,1.01-0.812s0.843-0.407,1.371-0.543c1.013-0.261,1.88-0.269,2.601-0.022c0.721,0.245,1.337,0.742,1.847,1.491
		c0.276,0.401,0.521,0.869,0.736,1.403c0.214,0.535,0.411,1.147,0.588,1.837l1.998,7.763l-3.499,0.899l-2.257-8.771
		c-0.177-0.689-0.48-1.194-0.907-1.516c-0.428-0.32-0.943-0.403-1.548-0.248c-0.34,0.088-0.65,0.258-0.93,0.512
		s-0.531,0.545-0.755,0.875s-0.416,0.679-0.575,1.046c-0.16,0.368-0.284,0.713-0.374,1.035l2.162,8.401l-3.511,0.903l-4.73-18.385
		L62.903,7.166z"/>
	<path d="M79.43,10.012c0.323-0.138,0.692-0.268,1.107-0.39c0.415-0.121,0.857-0.232,1.326-0.333
		c0.468-0.101,0.955-0.182,1.459-0.243c0.504-0.062,1.016-0.098,1.534-0.106c0.729-0.014,1.414,0.032,2.053,0.135
		s1.172,0.282,1.598,0.538c0.428,0.256,0.764,0.608,1.008,1.057c0.246,0.449,0.375,1.016,0.387,1.701l0.096,5.352
		c0.011,0.615,0.025,1.162,0.042,1.641c0.017,0.479,0.044,0.946,0.077,1.403c0.021,0.166,0.041,0.317,0.062,0.453
		c0.021,0.137,0.042,0.268,0.066,0.395s0.053,0.261,0.086,0.401c0.033,0.14,0.073,0.293,0.12,0.459
		c-0.543,0.133-1.083,0.261-1.621,0.385c-0.539,0.124-1.084,0.243-1.635,0.358c-0.102-0.244-0.184-0.495-0.244-0.754
		c-0.062-0.258-0.118-0.554-0.168-0.887l-0.197,0.004c-0.303,0.321-0.605,0.591-0.909,0.807c-0.304,0.217-0.622,0.394-0.953,0.531
		s-0.677,0.236-1.036,0.296c-0.36,0.059-0.737,0.092-1.132,0.099c-0.606,0.011-1.17-0.052-1.691-0.188s-0.975-0.35-1.363-0.642
		c-0.388-0.291-0.693-0.666-0.917-1.124c-0.224-0.457-0.341-0.998-0.352-1.622c-0.009-0.527,0.037-0.998,0.14-1.413
		s0.252-0.787,0.448-1.116c0.196-0.328,0.433-0.618,0.71-0.869c0.276-0.251,0.585-0.472,0.924-0.663
		c0.679-0.381,1.439-0.646,2.28-0.798c0.841-0.151,1.701-0.235,2.58-0.251l1.134-0.02l-0.03-1.714
		c-0.006-0.325-0.062-0.581-0.166-0.769c-0.104-0.188-0.243-0.327-0.416-0.421c-0.173-0.094-0.374-0.154-0.603-0.181
		s-0.475-0.038-0.739-0.033c-0.712,0.013-1.429,0.116-2.15,0.309c-0.722,0.193-1.41,0.428-2.064,0.703L79.43,10.012z M86.482,16.545
		l-0.264,0.005c-0.624,0.02-1.218,0.076-1.783,0.17c-0.565,0.094-1.062,0.245-1.489,0.455s-0.767,0.481-1.021,0.815
		s-0.375,0.752-0.367,1.253c0.01,0.554,0.178,0.977,0.504,1.27c0.326,0.294,0.779,0.435,1.359,0.425
		c0.272-0.005,0.553-0.048,0.841-0.127c0.289-0.08,0.572-0.19,0.851-0.332c0.279-0.141,0.54-0.314,0.782-0.521
		c0.242-0.206,0.454-0.443,0.634-0.71L86.482,16.545z"/>
	<path d="M99.487,12.816c0.396-0.399,0.757-0.721,1.079-0.965c0.312-0.236,0.629-0.421,0.949-0.553
		c0.319-0.133,0.635-0.23,0.946-0.293s0.618-0.09,0.921-0.082c0.303,0.007,0.597,0.037,0.882,0.091
		c0.241,0.045,0.474,0.104,0.697,0.178s0.43,0.149,0.621,0.23c-0.071,0.236-0.154,0.487-0.248,0.751
		c-0.095,0.265-0.193,0.529-0.297,0.797c-0.104,0.267-0.213,0.527-0.327,0.783c-0.115,0.256-0.229,0.494-0.342,0.714
		c-0.475-0.187-0.888-0.347-1.238-0.479s-0.668-0.226-0.953-0.279c-0.269-0.05-0.52-0.059-0.753-0.026
		c-0.234,0.032-0.477,0.118-0.727,0.26c-0.25,0.141-0.517,0.339-0.802,0.594c-0.284,0.256-0.611,0.581-0.98,0.977l-1.584,8.462
		l-3.551-0.664l1.555-8.307c0.094-0.501,0.178-0.971,0.25-1.408c0.073-0.438,0.133-0.852,0.179-1.241
		c0.046-0.389,0.075-0.761,0.089-1.116c0.012-0.355,0.006-0.705-0.019-1.05c0.589-0.042,1.173-0.071,1.753-0.088
		s1.164-0.019,1.752-0.007c0.026,0.192,0.049,0.382,0.068,0.568c0.019,0.188,0.025,0.386,0.022,0.595
		c-0.004,0.21-0.015,0.438-0.034,0.685s-0.045,0.528-0.077,0.844L99.487,12.816z"/>
	<path d="M115.896,29.474c-0.391-0.001-0.804-0.031-1.241-0.091s-0.886-0.143-1.347-0.25c-0.46-0.106-0.919-0.232-1.378-0.377
		s-0.899-0.306-1.32-0.481c-2.133-0.894-3.529-2.081-4.189-3.563c-0.661-1.482-0.548-3.281,0.338-5.396
		c0.395-0.94,0.877-1.786,1.449-2.538c0.572-0.751,1.236-1.343,1.994-1.773c0.757-0.431,1.612-0.665,2.567-0.704
		c0.954-0.038,2.012,0.186,3.171,0.671c2.026,0.849,3.313,2.02,3.86,3.512c0.547,1.491,0.359,3.34-0.564,5.545l-0.402,0.961
		l-8.986-3.765c-0.215,0.558-0.354,1.071-0.417,1.54c-0.062,0.47-0.023,0.903,0.12,1.302c0.143,0.397,0.397,0.762,0.765,1.092
		c0.366,0.33,0.874,0.631,1.522,0.902c0.567,0.237,1.21,0.423,1.926,0.557c0.716,0.133,1.486,0.215,2.312,0.246L115.896,29.474z
		 M116.408,21.427c0.782-2.026,0.302-3.404-1.44-4.135c-0.9-0.377-1.692-0.403-2.375-0.08c-0.684,0.324-1.28,0.946-1.79,1.866
		L116.408,21.427z"/>
	<path d="M123.025,30.704c0.234,0.155,0.42,0.336,0.558,0.543c0.137,0.207,0.227,0.427,0.268,0.659s0.036,0.467-0.015,0.702
		c-0.05,0.235-0.146,0.459-0.286,0.672s-0.313,0.386-0.518,0.52c-0.204,0.133-0.425,0.225-0.662,0.272
		c-0.237,0.049-0.477,0.051-0.717,0.008s-0.467-0.135-0.68-0.275c-0.212-0.141-0.386-0.312-0.519-0.517
		c-0.134-0.205-0.225-0.426-0.273-0.663c-0.048-0.237-0.051-0.477-0.008-0.717s0.135-0.467,0.275-0.679
		c0.15-0.228,0.33-0.408,0.541-0.544c0.21-0.135,0.432-0.223,0.664-0.264c0.233-0.041,0.469-0.038,0.706,0.009
		C122.598,30.478,122.819,30.568,123.025,30.704z M128.515,17.122c0.525-0.221,1.055-0.3,1.588-0.237s1.005,0.229,1.415,0.501
		c0.257,0.17,0.476,0.376,0.658,0.617c0.183,0.242,0.309,0.51,0.378,0.804c0.069,0.293,0.074,0.604,0.015,0.934
		c-0.06,0.33-0.204,0.667-0.432,1.011l-6.641,9.06l-2.655-1.219l5.35-9.044L128.515,17.122z"/>
</g>
<g>
</g>
<g>
</g>
<g>
</g>
<g>
</g>
<g>
</g>
<g>
</g>
<g>
</g>
<g>
</g>
<g>
</g>
<g>
</g>
<g>
</g>
<g>
</g>
<g>
</g>
<g>
</g>
<g>
</g>
</svg>
