<?xml version="1.0" encoding="utf-8"?>
<!-- Generator: Adobe Illustrator 18.0.0, SVG Export Plug-In . SVG Version: 6.00 Build 0)  -->
<!DOCTYPE svg PUBLIC "-//W3C//DTD SVG 1.1//EN" "http://www.w3.org/Graphics/SVG/1.1/DTD/svg11.dtd">
<svg version="1.1" id="Layer_1" xmlns="http://www.w3.org/2000/svg" xmlns:xlink="http://www.w3.org/1999/xlink" x="0px" y="0px"
	 viewBox="191.8 30.6 576.8 483.6" width="385" height="453" enable-background="new 191.8 30.6 576.8 483.6" xml:space="preserve">
<circle fill="#FFFFFF" cx="479.4" cy="322.7" r="191.5"/>
<g>
	<path d="M421.7,245.9c8.9-4.5,18.6-7.5,29.4-9.7c10.8-2.2,21.2-3.4,31.7-3.4c7.8,0,15.3,0.7,22,2.2c6.7,1.5,12.7,3.7,17.9,7.1
		c5.2,3.4,8.9,7.8,11.9,13.4c3,5.6,4.5,12.3,4.5,20.5c0,7.8-1.1,14.2-3,19.7c-2.2,5.2-5.2,9.7-9.3,13.4c-4.1,3.7-9.3,7.1-15.3,10.1
		c-6,3-13,6.3-21.2,9.7c-4.8,1.9-8.6,3.7-11.9,5.2c-3.4,1.5-6.3,3-8.6,4.1c-2.2,1.1-4.1,2.6-5.6,3.7c-1.5,1.1-2.6,2.6-3.4,4.5
		c-0.7,1.5-1.1,3.4-1.5,5.6c-0.4,2.2-0.4,4.5-0.7,7.5h78.6v27.9H419.8v-19.7c0-9.3,1.1-17.1,3.7-23.8c2.2-6.7,6-12.3,10.4-17.1
		c4.5-4.8,10.1-8.9,16.4-12.7c6.3-3.7,13.4-7.1,21.6-10.1c4.5-1.9,8.6-3.4,11.9-4.8c3.7-1.5,6.7-3,8.9-4.8c2.6-1.9,4.5-4.1,5.6-6.7
		c1.5-2.6,1.9-6,1.9-10.4c0-3.4-0.7-6-1.9-8.2c-1.1-2.2-2.6-4.1-4.8-5.2c-2.2-1.1-4.5-2.2-7.1-2.6c-2.6-0.4-5.6-0.7-8.6-0.7
		c-3,0-6.7,0.4-10.4,0.7s-7.8,1.1-11.6,2.2c-4.1,1.1-8.2,2.2-11.9,3.7c-4.1,1.5-7.8,3-11.6,4.8L421.7,245.9z"/>
</g>
<g>
	<circle fill="none" cx="479.4" cy="322.7" r="237.3"/>
	<path d="M202.2,242.9c0.4-1.9,1.1-3.7,2.2-5.6c1.1-1.9,2.2-3.4,3.7-4.5c1.5-1.1,3.7-1.9,6-2.2c2.2-0.4,5.2,0,8.9,0.7l32.8,8.6
		L244,286.1l-27.2-7.1c-1.9-0.4-4.1-1.1-6-1.9c-1.9-0.7-4.1-1.9-6-3c-0.4,1.1-1.1,2.2-1.5,3.4c-0.4,1.1-1.5,2.2-2.2,3.7
		c-1.5-1.1-3-1.9-4.8-3c-1.5-1.1-3-1.9-4.5-3c0.7-1.5,1.5-3,2.2-3.7c0.7-0.7,1.1-2.2,1.5-3.4c0.4-1.1,0.7-2.2,1.1-3.4
		c0.4-1.1,0.7-2.6,1.1-4.1L202.2,242.9z M242.1,249.6l-19.4-5.2c-1.9-0.4-3.7-0.7-4.8-1.1c-1.1-0.4-2.2,0-3.4,0.4
		c-1.1,0.4-1.5,1.1-2.2,2.2c-0.4,1.1-1.1,2.6-1.5,4.5l-2.6,10.8c2.2,1.1,4.1,1.9,6,2.6c1.9,0.7,3.7,1.1,5.6,1.5l17.1,4.5
		L242.1,249.6z"/>
	<path d="M231.7,197.5c-0.7,1.5-1.5,2.6-2.2,3.7c-0.7,1.1-1.1,2.2-1.9,3c-0.7,1.1-1.5,1.9-2.2,3c-0.7,1.1-1.9,1.9-3,3
		c-1.5-1.1-2.6-2.6-3.7-3.7c-1.1-1.1-2.6-2.6-3.7-3.7c1.1-1.1,2.2-2.2,3-3.4c0.7-1.1,1.5-1.9,2.2-2.6c0.7-0.7,1.1-1.9,1.9-3
		c0.7-1.1,1.1-2.2,2.2-3.7l1.9-3.7c0.7-1.9,2.2-3.4,3.4-4.8c1.5-1.5,3-2.6,4.8-3.4c1.9-0.7,4.1-1.1,6.3-1.1c2.6,0,5.2,0.7,8.6,2.2
		c1.5,0.7,3.4,1.5,4.8,2.2c1.5,0.7,3.4,1.5,5.2,2.6c1.9,0.7,3.7,1.9,5.6,3s3.7,1.9,6,3.4c0.7,0.4,1.5,0.7,1.9,1.1
		c0.4,0.4,1.1,0.7,1.9,1.1s1.1,0.7,1.9,1.5s1.5,1.1,2.6,2.2l-19.7,38l-10.4-6l14.5-27.6c-1.5-0.7-3-1.5-4.5-2.2s-3-1.5-4.5-2.2
		c-1.5-0.7-3-1.5-4.5-2.2c-1.5-0.7-3-1.5-4.5-2.2c-1.9-1.1-3.4-1.5-4.5-2.2c-1.1-0.4-2.2-0.4-3.4-0.4c-0.7,0.4-1.9,0.7-2.6,1.9
		c-0.7,0.7-1.5,2.2-2.6,4.1L231.7,197.5z"/>
	<path d="M258.9,136.7l14.9,11.6c1.5,1.1,2.6,1.9,3.4,2.6c0.7,0.7,1.9,1.5,2.6,2.2s1.5,1.5,1.9,2.2s1.1,1.5,1.9,2.2l-9.7,9.3
		c-0.7-0.7-1.1-1.5-1.9-1.9c-0.7-0.7-1.1-1.1-1.9-1.9c-0.7-0.7-1.5-1.5-2.2-2.2s-1.9-1.5-3.4-2.6l-5.6-4.5l-7.1,8.9l-8.6-6.7
		L258.9,136.7z"/>
	<path d="M288.7,121.1c-1.1,1.1-2.2,2.2-3.4,3s-1.9,1.5-3,2.2c-1.1,0.7-1.9,1.5-3,1.9c-1.1,0.7-2.6,1.1-4.1,1.9
		c-0.7-1.5-1.5-3.4-2.2-4.8c-0.7-1.5-1.5-3.4-2.2-4.8c1.5-0.7,3-1.5,3.7-2.2c1.1-0.7,1.9-1.1,3-1.9c0.7-0.7,1.9-1.5,2.6-2.2
		s1.9-1.9,3.4-3l4.5-4.1c1.5-1.5,3.4-2.6,4.8-3.7c1.9-1.1,3.7-1.5,5.6-1.9c1.9,0,4.1,0.4,6.3,1.1c2.2,0.7,4.5,2.6,6.7,5.2l22.7,25.3
		l-10.1,8.9l-20.5-22.7c-1.5-1.5-2.6-2.6-3.4-3.4c-1.1-0.7-1.9-1.1-3-1.5c-1.1,0-1.9,0-3,0.7c-1.1,0.7-2.2,1.5-3.7,3L288.7,121.1z"
		/>
	<path d="M349.4,88.3c-1.1-1.9-1.9-3-2.6-4.1c-0.7-1.1-1.5-1.9-2.6-1.9c-0.7-0.4-1.9-0.4-3,0c-1.1,0.4-2.6,1.1-4.1,1.9
		s-2.6,1.5-3.7,2.2s-2.2,1.1-3.4,1.5s-2.2,0.7-3.4,1.1c-1.1,0.4-2.6,0.7-4.5,1.1c-0.4-1.9-0.7-3.7-1.1-5.2c-0.4-1.9-0.7-3.4-1.1-5.2
		c1.9-0.4,3-0.7,4.1-1.1c1.1-0.4,2.2-0.7,3.4-1.1c1.1-0.4,2.2-0.7,3-1.5s2.2-1.1,3.7-2.2l2.2-1.1c1.9-1.1,3.7-1.9,5.6-2.6
		c1.9-0.7,4.1-0.7,6-0.4s4.1,1.1,6,2.6c1.9,1.5,3.7,3.7,5.6,6.7L371,99.1l7.8-4.5l5.2,9.3l-44.3,25.3l-5.2-9.3l24.6-14.2L349.4,88.3
		z"/>
	<path d="M406.8,43.6c1.9-0.7,4.1-0.7,6-1.1c1.9,0,4.1,0.4,6,1.1c1.9,0.7,3.7,2.2,5.2,3.7c1.5,1.9,3,4.5,3.7,7.8l9.3,32.8l-12.7,3.7
		l-8.6-29.4c-0.7-1.9-1.1-3.4-1.5-4.8c-0.4-1.5-1.1-1.9-1.9-2.6c-0.7-0.7-1.9-0.7-3-0.7s-2.6,0.4-4.5,1.1l-9.7,2.6
		c0,2.2,0.4,4.5,0.7,6.3c0.4,1.9,0.7,3.7,1.5,5.6l7.8,27.2l-12.7,3.7l-7.8-26.8c-0.7-1.9-1.1-4.1-1.5-6c-0.4-2.2-0.4-4.5-0.7-6.7
		c-1.1,0-2.2,0.4-3.7,0.4c-1.1,0-2.6,0-4.1,0c0-1.9,0-3.7,0-5.6c0-1.9,0-3.7,0.4-5.2c1.9,0,3.4,0,4.5,0c1.1,0,2.2-0.4,3.4-0.4
		s2.2-0.4,3.4-0.7c1.1-0.4,2.6-0.7,4.1-1.1L406.8,43.6z"/>
	<path d="M511.5,36.1c2.2,0,4.1,0.4,6,1.1c1.9,0.7,3.7,1.5,5.2,3s2.6,3.4,3.4,5.6c0.7,2.2,1.1,5.2,0.7,8.6l-2.6,33.9l-13.4-1.1
		l2.2-30.6c0-1.9,0.4-3.7,0-4.8c0-1.1-0.4-2.2-1.1-3c-0.7-0.7-1.5-1.5-2.6-1.9c-1.1-0.4-2.6-0.7-4.8-0.7l-7.5-0.7
		c-1.1,2.2-2.2,4.5-3,7.1s-1.1,5.2-1.1,7.5c0,1.5-0.4,2.6-0.4,4.1c0,1.1,0,2.6,0,3.7c0,1.1,0.4,2.6,0.4,3.7c0,1.1,0.4,2.6,0.7,3.7
		l0.7,3c-0.4,1.5-0.4,2.6-0.7,3.7c-0.4,1.1-0.7,2.6-1.1,3.7l-24.2-1.9L469,73l11.2,0.7c-0.7-2.6-1.1-5.2-1.5-7.5
		c-0.4-2.2-0.4-4.5,0-7.1c0-1.9,0.4-3.7,0.7-5.2c0.4-1.5,0.7-3.7,1.5-5.6c0.4-0.7,0.7-1.5,1.1-2.6c0.4-1.1,0.7-1.5,1.1-2.2
		c-1.5-0.4-3-0.7-4.1-1.1s-3-1.1-4.8-1.9c0.7-1.9,1.5-3.4,1.9-5.2c0.7-1.5,1.5-3.4,2.2-4.8c1.5,0.7,3,1.1,4.1,1.5
		c1.1,0.4,2.2,0.7,3.4,0.7c1.1,0.4,2.2,0.4,3.4,0.4c1.1,0,2.6,0.4,4.5,0.4L511.5,36.1z"/>
	<path d="M589,73.8c-1.1,1.9-2.2,3.4-3.4,4.8c-1.1,1.5-2.2,2.6-3.4,3.4c-1.1,1.1-2.2,1.9-3.7,2.6s-3,1.5-4.5,1.9l6.3,15.3l-10.4,4.5
		L555.4,70c-0.7,0.7-1.5,1.5-2.2,2.6c-0.7,1.1-1.5,2.6-1.9,4.1c-0.4,1.5-1.1,3-1.9,4.5s-1.1,3-1.5,4.5c0,0.4-0.4,1.1-0.7,1.9
		c-0.4,0.7-0.4,1.5-0.7,2.2c-0.4,0.7-0.7,1.9-1.1,2.6c-0.4,0.7-0.7,1.9-0.7,2.6l-11.9-4.1c0.4-0.7,0.7-1.9,1.1-3
		c0.4-1.1,0.7-2.2,1.1-3.4c0.4-1.1,0.7-2.6,1.5-4.1s1.1-3,1.9-4.8c0.7-1.9,1.5-3.7,2.2-5.2c0.7-1.5,1.5-3,2.6-4.5
		c1.1-1.5,2.2-2.6,3.4-3.7c1.5-1.1,3-2.2,4.8-3c-0.4-1.1-0.7-2.6-1.1-3.7s-0.4-2.2-0.7-3.7c0-1.1-0.4-2.6-0.4-3.7
		c0-1.5-0.4-3-0.4-4.5c1.9,0,4.1-0.4,6.3-0.4s4.1,0,6,0c0,1.9,0.4,3.7,0.4,5.2c0,1.5,0.4,3,0.7,4.5s0.7,3,1.1,4.5
		c0.4,1.5,1.1,3.4,1.9,5.2l5.2,13.4c1.1-0.4,1.9-1.1,3-1.9c0.7-0.7,1.9-1.9,3-3c0.4-0.4,0.7-1.1,1.1-1.5c0.4-0.7,0.7-1.1,1.1-1.9
		l3-5.2l-6.3-3.4l4.8-9.3l16,8.9l-2.2,6L589,73.8z"/>
	<path d="M659.4,97.2l-30.6,41l-10.8-7.8L642.3,98l-7.1-5.2l6.3-8.6L659.4,97.2z"/>
	<path d="M684.7,115.9c1.5,2.6,3,5.2,4.1,7.5c1.1,2.2,2.2,4.1,3,6c0.7,1.9,1.9,3.4,2.6,5.2c0.7,1.5,1.5,3,2.2,4.8
		c0.7,1.5,1.1,3.4,1.1,4.8c0,1.5,0,3-0.4,4.1s-1.1,2.6-1.9,3.7c-0.7,1.1-1.9,2.2-3.4,3.7l-14.5,13.4c-0.7,0.7-1.1,1.1-1.9,1.5
		s-1.1,0.7-1.9,1.5c-0.7,0.4-1.9,1.1-3,1.9c-1.1,0.7-2.6,1.5-4.5,2.6l-30.2-32.4l7.8-7.5l22.7,24.6l14.9-13.8
		c0.7-0.7,1.5-1.5,2.2-2.2s0.7-1.1,1.1-1.9s0.4-1.1,0.4-1.9s-0.4-1.5-0.7-2.6c-0.4-1.1-1.1-2.6-1.9-4.1c-0.7-1.5-1.5-3-2.6-4.8
		l-10.1,3l1.5,7.5l-11.2,2.2l-3.7-17.9L684.7,115.9z"/>
	<path d="M735,189.3c1.1,1.9,1.9,3.7,2.2,5.6c0.7,1.9,0.7,4.1,0.4,6c-0.4,1.9-1.1,4.1-2.6,6c-1.5,1.9-3.7,3.7-6.7,5.6l-29.8,16.8
		l-6.7-11.6l26.8-14.9c1.9-1.1,3-1.9,4.1-2.6c1.1-0.7,1.9-1.5,1.9-2.6c0.4-0.7,0.4-1.9,0-3c-0.4-1.1-1.1-2.6-1.9-4.5l-3.7-6.3
		c-2.6,0-4.8,0.7-7.5,1.5s-4.8,1.9-7.1,3.4c-1.1,0.7-2.2,1.5-3.4,2.2s-2.2,1.5-3,2.2c-1.1,0.7-1.9,1.5-3,2.2
		c-0.7,0.7-1.9,1.9-2.6,2.6l-2.2,2.2c-1.1,0.7-2.6,1.1-3.7,1.5c-1.1,0.4-2.2,0.7-3.4,1.1l-11.9-20.9l9.3-5.2l5.6,9.7
		c1.9-1.9,3.7-3.7,5.2-5.2c1.9-1.5,3.7-3,5.6-4.1c1.5-0.7,3.4-1.5,4.8-2.2c1.9-0.7,3.4-1.1,5.2-1.9c0.7-0.4,1.9-0.4,2.6-0.4
		c0.7,0,1.9-0.4,2.6-0.4c-0.7-1.5-1.1-2.6-1.5-4.1c-0.4-1.5-0.7-3-1.1-4.8c1.9-0.4,3.7-0.7,5.2-1.1c1.9-0.4,3.4-0.7,5.2-1.1
		c0.4,1.9,0.7,3,1.1,4.1s0.7,2.2,1.1,3.4c0.4,1.1,0.7,2.2,1.5,3c0.7,1.1,1.1,2.2,2.2,3.7L735,189.3z"/>
	<path d="M715.7,249.3c0,0.7,0.4,1.5,0.4,1.9c0,0.7,0.4,1.5,0.4,2.2c0.4,1.9,1.1,3.7,1.9,5.6c0.7,1.9,1.9,3.7,3.4,5.6
		c1.5,1.9,3,3.4,4.8,4.5c1.9,1.1,4.1,2.2,6.7,3c3.7,1.1,7.1,1.5,10.8,1.1c3.7,0,7.1-0.7,10.4-1.5c1.5-0.4,2.6-0.7,4.1-1.1
		c1.5-0.4,2.6-0.7,4.1-1.5c0.7,1.1,1.1,2.2,1.9,3.4c0.4,0.7,0.7,1.9,1.5,2.6c0.7,0.7,0.7,1.9,1.1,3c0.4,1.1,0.7,2.2,1.5,3.7
		c-1.1,0.7-2.6,1.1-4.5,1.9c-1.5,0.4-3.4,1.1-4.8,1.5s-3,0.7-4.5,1.1c-1.5,0.4-3,0.4-4.1,0.7c-12.3,1.5-22-0.7-29.4-6.3
		c-7.5-5.6-12.7-14.2-15.6-26.5c-0.4-2.2-1.1-4.5-1.5-6.7c-0.4-2.2-0.7-4.8-1.1-7.1l28.3-9.3c1.5-0.4,3-1.1,4.5-1.5
		c1.1-0.4,2.2-0.7,3.4-1.1c1.1-0.4,1.9-0.7,2.6-1.1c0.7-0.4,1.5-0.7,2.2-1.1c0.7-0.4,1.5-0.7,2.6-1.5c0.7-0.4,1.9-1.1,3-1.9
		c1.1,1.9,2.6,3.4,3.7,5.2c1.5,1.9,2.6,3.4,3.7,5.2c-1.5,1.5-3,2.2-4.5,3.4c-1.5,0.7-3,1.5-4.5,2.2c-1.5,0.7-3,1.1-4.8,1.9
		c-1.9,0.7-3.7,1.1-6,1.9L715.7,249.3z M740.6,248.1c1.5,0,2.6,0.4,3.7,0.4c1.1,0,1.9,0,2.6,0.4c0.7,0.4,1.5,0,2.2,0
		c0.7,0,1.5-0.4,2.2-0.4c0.4,0,0.4,0,0.7,0c0.4,0,0.4,0,0.7-0.4c0.4,0,1.1-0.4,1.5-0.4c0.4,0,1.1-0.4,1.9-0.7c1.1,1.9,2.2,3.7,3.4,6
		s1.9,3.7,3,6c-1.5,0.7-2.6,1.5-3.7,1.9s-2.2,0.7-3.4,1.1c-0.7,0.4-1.9,0.4-3,0.4s-1.9,0-3,0s-2.2,0-3.7-0.4c-1.5,0-3-0.4-4.5-0.4
		l-9.3-1.1c0-1.5,0-2.6,0-3.7c0-1.1,0-1.9,0-2.6c0-0.7,0.4-1.9,0.4-2.6c0-1.1,0.4-2.2,0.7-3.4L740.6,248.1z"/>
</g>
</svg>
