<?xml version="1.0" encoding="utf-8"?>
<!-- Generator: Adobe Illustrator 18.0.0, SVG Export Plug-In . SVG Version: 6.00 Build 0)  -->
<!DOCTYPE svg PUBLIC "-//W3C//DTD SVG 1.1//EN" "http://www.w3.org/Graphics/SVG/1.1/DTD/svg11.dtd">
<svg version="1.1" id="Layer_1" xmlns="http://www.w3.org/2000/svg" xmlns:xlink="http://www.w3.org/1999/xlink" x="0px" y="0px"
	 viewBox="0 0 172.1 150.3" enable-background="new 0 0 172.1 150.3" xml:space="preserve">
<circle fill="#FFFFFF" cx="85.9" cy="86.6" r="51.4"/>
<g>
	<path d="M70.4,66c2.4-1.2,5-2,7.9-2.6c2.9-0.6,5.7-0.9,8.5-0.9c2.1,0,4.1,0.2,5.9,0.6c1.8,0.4,3.4,1,4.8,1.9
		c1.4,0.9,2.4,2.1,3.2,3.6c0.8,1.5,1.2,3.3,1.2,5.5c0,2.1-0.3,3.8-0.8,5.3c-0.6,1.4-1.4,2.6-2.5,3.6c-1.1,1-2.5,1.9-4.1,2.7
		c-1.6,0.8-3.5,1.7-5.7,2.6c-1.3,0.5-2.3,1-3.2,1.4c-0.9,0.4-1.7,0.8-2.3,1.1c-0.6,0.3-1.1,0.7-1.5,1c-0.4,0.3-0.7,0.7-0.9,1.2
		c-0.2,0.4-0.3,0.9-0.4,1.5c-0.1,0.6-0.1,1.2-0.2,2h21.1v7.5H69.9v-5.3c0-2.5,0.3-4.6,1-6.4c0.6-1.8,1.6-3.3,2.8-4.6
		c1.2-1.3,2.7-2.4,4.4-3.4c1.7-1,3.6-1.9,5.8-2.7c1.2-0.5,2.3-0.9,3.2-1.3c1-0.4,1.8-0.8,2.4-1.3c0.7-0.5,1.2-1.1,1.5-1.8
		c0.4-0.7,0.5-1.6,0.5-2.8c0-0.9-0.2-1.6-0.5-2.2s-0.7-1.1-1.3-1.4s-1.2-0.6-1.9-0.7c-0.7-0.1-1.5-0.2-2.3-0.2
		c-0.8,0-1.8,0.1-2.8,0.2s-2.1,0.3-3.1,0.6c-1.1,0.3-2.2,0.6-3.2,1c-1.1,0.4-2.1,0.8-3.1,1.3L70.4,66z"/>
</g>
<g>
	<circle fill="none" cx="85.9" cy="86.6" r="63.7"/>
	<path d="M11.5,65.2c0.1-0.5,0.3-1,0.6-1.5c0.3-0.5,0.6-0.9,1-1.2c0.4-0.3,1-0.5,1.6-0.6c0.6-0.1,1.4,0,2.4,0.2l8.8,2.3l-3.2,12.4
		l-7.3-1.9c-0.5-0.1-1.1-0.3-1.6-0.5c-0.5-0.2-1.1-0.5-1.6-0.8c-0.1,0.3-0.3,0.6-0.4,0.9s-0.4,0.6-0.6,1c-0.4-0.3-0.8-0.5-1.3-0.8
		c-0.4-0.3-0.8-0.5-1.2-0.8c0.2-0.4,0.4-0.8,0.6-1s0.3-0.6,0.4-0.9c0.1-0.3,0.2-0.6,0.3-0.9c0.1-0.3,0.2-0.7,0.3-1.1L11.5,65.2z
		 M22.2,67L17,65.6c-0.5-0.1-1-0.2-1.3-0.3s-0.6,0-0.9,0.1s-0.4,0.3-0.6,0.6c-0.1,0.3-0.3,0.7-0.4,1.2l-0.7,2.9
		c0.6,0.3,1.1,0.5,1.6,0.7c0.5,0.2,1,0.3,1.5,0.4l4.6,1.2L22.2,67z"/>
	<path d="M19.4,53c-0.2,0.4-0.4,0.7-0.6,1c-0.2,0.3-0.3,0.6-0.5,0.8c-0.2,0.3-0.4,0.5-0.6,0.8s-0.5,0.5-0.8,0.8
		c-0.4-0.3-0.7-0.7-1-1s-0.7-0.7-1-1c0.3-0.3,0.6-0.6,0.8-0.9c0.2-0.3,0.4-0.5,0.6-0.7s0.3-0.5,0.5-0.8c0.2-0.3,0.3-0.6,0.6-1l0.5-1
		c0.2-0.5,0.6-0.9,0.9-1.3c0.4-0.4,0.8-0.7,1.3-0.9c0.5-0.2,1.1-0.3,1.7-0.3c0.7,0,1.4,0.2,2.3,0.6c0.4,0.2,0.9,0.4,1.3,0.6
		c0.4,0.2,0.9,0.4,1.4,0.7c0.5,0.2,1,0.5,1.5,0.8c0.5,0.3,1,0.5,1.6,0.9c0.2,0.1,0.4,0.2,0.5,0.3c0.1,0.1,0.3,0.2,0.5,0.3
		c0.2,0.1,0.3,0.2,0.5,0.4c0.2,0.2,0.4,0.3,0.7,0.6l-5.3,10.2L24,61.3l3.9-7.4c-0.4-0.2-0.8-0.4-1.2-0.6c-0.4-0.2-0.8-0.4-1.2-0.6
		c-0.4-0.2-0.8-0.4-1.2-0.6c-0.4-0.2-0.8-0.4-1.2-0.6c-0.5-0.3-0.9-0.4-1.2-0.6c-0.3-0.1-0.6-0.1-0.9-0.1c-0.2,0.1-0.5,0.2-0.7,0.5
		c-0.2,0.2-0.4,0.6-0.7,1.1L19.4,53z"/>
	<path d="M26.7,36.7l4,3.1c0.4,0.3,0.7,0.5,0.9,0.7c0.2,0.2,0.5,0.4,0.7,0.6s0.4,0.4,0.5,0.6s0.3,0.4,0.5,0.6l-2.6,2.5
		c-0.2-0.2-0.3-0.4-0.5-0.5c-0.2-0.2-0.3-0.3-0.5-0.5s-0.4-0.4-0.6-0.6s-0.5-0.4-0.9-0.7l-1.5-1.2l-1.9,2.4l-2.3-1.8L26.7,36.7z"/>
	<path d="M34.7,32.5c-0.3,0.3-0.6,0.6-0.9,0.8c-0.3,0.2-0.5,0.4-0.8,0.6s-0.5,0.4-0.8,0.5c-0.3,0.2-0.7,0.3-1.1,0.5
		c-0.2-0.4-0.4-0.9-0.6-1.3c-0.2-0.4-0.4-0.9-0.6-1.3c0.4-0.2,0.8-0.4,1-0.6c0.3-0.2,0.5-0.3,0.8-0.5c0.2-0.2,0.5-0.4,0.7-0.6
		s0.5-0.5,0.9-0.8l1.2-1.1c0.4-0.4,0.9-0.7,1.3-1c0.5-0.3,1-0.4,1.5-0.5c0.5,0,1.1,0.1,1.7,0.3s1.2,0.7,1.8,1.4l6.1,6.8l-2.7,2.4
		l-5.5-6.1c-0.4-0.4-0.7-0.7-0.9-0.9c-0.3-0.2-0.5-0.3-0.8-0.4c-0.3,0-0.5,0-0.8,0.2c-0.3,0.2-0.6,0.4-1,0.8L34.7,32.5z"/>
	<path d="M51,23.7c-0.3-0.5-0.5-0.8-0.7-1.1c-0.2-0.3-0.4-0.5-0.7-0.5c-0.2-0.1-0.5-0.1-0.8,0c-0.3,0.1-0.7,0.3-1.1,0.5
		c-0.4,0.2-0.7,0.4-1,0.6s-0.6,0.3-0.9,0.4c-0.3,0.1-0.6,0.2-0.9,0.3c-0.3,0.1-0.7,0.2-1.2,0.3c-0.1-0.5-0.2-1-0.3-1.4
		c-0.1-0.5-0.2-0.9-0.3-1.4c0.5-0.1,0.8-0.2,1.1-0.3c0.3-0.1,0.6-0.2,0.9-0.3c0.3-0.1,0.6-0.2,0.8-0.4s0.6-0.3,1-0.6l0.6-0.3
		c0.5-0.3,1-0.5,1.5-0.7s1.1-0.2,1.6-0.1c0.5,0.1,1.1,0.3,1.6,0.7s1,1,1.5,1.8l3.1,5.4l2.1-1.2l1.4,2.5l-11.9,6.8l-1.4-2.5l6.6-3.8
		L51,23.7z"/>
	<path d="M66.4,11.7c0.5-0.2,1.1-0.2,1.6-0.3c0.5,0,1.1,0.1,1.6,0.3c0.5,0.2,1,0.6,1.4,1c0.4,0.5,0.8,1.2,1,2.1l2.5,8.8l-3.4,1
		l-2.3-7.9c-0.2-0.5-0.3-0.9-0.4-1.3s-0.3-0.5-0.5-0.7s-0.5-0.2-0.8-0.2c-0.3,0-0.7,0.1-1.2,0.3l-2.6,0.7c0,0.6,0.1,1.2,0.2,1.7
		c0.1,0.5,0.2,1,0.4,1.5l2.1,7.3l-3.4,1l-2.1-7.2c-0.2-0.5-0.3-1.1-0.4-1.6c-0.1-0.6-0.1-1.2-0.2-1.8c-0.3,0-0.6,0.1-1,0.1
		c-0.3,0-0.7,0-1.1,0c0-0.5,0-1,0-1.5c0-0.5,0-1,0.1-1.4c0.5,0,0.9,0,1.2,0c0.3,0,0.6-0.1,0.9-0.1c0.3,0,0.6-0.1,0.9-0.2
		c0.3-0.1,0.7-0.2,1.1-0.3L66.4,11.7z"/>
	<path d="M94.5,9.7c0.6,0,1.1,0.1,1.6,0.3c0.5,0.2,1,0.4,1.4,0.8c0.4,0.4,0.7,0.9,0.9,1.5c0.2,0.6,0.3,1.4,0.2,2.3l-0.7,9.1
		l-3.6-0.3l0.6-8.2c0-0.5,0.1-1,0-1.3c0-0.3-0.1-0.6-0.3-0.8c-0.2-0.2-0.4-0.4-0.7-0.5c-0.3-0.1-0.7-0.2-1.3-0.2l-2-0.2
		c-0.3,0.6-0.6,1.2-0.8,1.9c-0.2,0.7-0.3,1.4-0.3,2c0,0.4-0.1,0.7-0.1,1.1c0,0.3,0,0.7,0,1s0.1,0.7,0.1,1c0,0.3,0.1,0.7,0.2,1
		l0.2,0.8c-0.1,0.4-0.1,0.7-0.2,1c-0.1,0.3-0.2,0.7-0.3,1l-6.5-0.5l0.2-2.9l3,0.2c-0.2-0.7-0.3-1.4-0.4-2c-0.1-0.6-0.1-1.2,0-1.9
		c0-0.5,0.1-1,0.2-1.4s0.2-1,0.4-1.5c0.1-0.2,0.2-0.4,0.3-0.7s0.2-0.4,0.3-0.6c-0.4-0.1-0.8-0.2-1.1-0.3s-0.8-0.3-1.3-0.5
		c0.2-0.5,0.4-0.9,0.5-1.4c0.2-0.4,0.4-0.9,0.6-1.3c0.4,0.2,0.8,0.3,1.1,0.4c0.3,0.1,0.6,0.2,0.9,0.2c0.3,0.1,0.6,0.1,0.9,0.1
		c0.3,0,0.7,0.1,1.2,0.1L94.5,9.7z"/>
	<path d="M115.3,19.8c-0.3,0.5-0.6,0.9-0.9,1.3c-0.3,0.4-0.6,0.7-0.9,0.9c-0.3,0.3-0.6,0.5-1,0.7c-0.4,0.2-0.8,0.4-1.2,0.5l1.7,4.1
		l-2.8,1.2l-3.9-9.7c-0.2,0.2-0.4,0.4-0.6,0.7c-0.2,0.3-0.4,0.7-0.5,1.1s-0.3,0.8-0.5,1.2c-0.2,0.4-0.3,0.8-0.4,1.2
		c0,0.1-0.1,0.3-0.2,0.5c-0.1,0.2-0.1,0.4-0.2,0.6s-0.2,0.5-0.3,0.7c-0.1,0.2-0.2,0.5-0.2,0.7l-3.2-1.1c0.1-0.2,0.2-0.5,0.3-0.8
		s0.2-0.6,0.3-0.9c0.1-0.3,0.2-0.7,0.4-1.1c0.2-0.4,0.3-0.8,0.5-1.3c0.2-0.5,0.4-1,0.6-1.4s0.4-0.8,0.7-1.2s0.6-0.7,0.9-1
		c0.4-0.3,0.8-0.6,1.3-0.8c-0.1-0.3-0.2-0.7-0.3-1c-0.1-0.3-0.1-0.6-0.2-1c0-0.3-0.1-0.7-0.1-1c0-0.4-0.1-0.8-0.1-1.2
		c0.5,0,1.1-0.1,1.7-0.1c0.6,0,1.1,0,1.6,0c0,0.5,0.1,1,0.1,1.4s0.1,0.8,0.2,1.2s0.2,0.8,0.3,1.2c0.1,0.4,0.3,0.9,0.5,1.4l1.4,3.6
		c0.3-0.1,0.5-0.3,0.8-0.5c0.2-0.2,0.5-0.5,0.8-0.8c0.1-0.1,0.2-0.3,0.3-0.4c0.1-0.2,0.2-0.3,0.3-0.5l0.8-1.4l-1.7-0.9l1.3-2.5
		l4.3,2.4l-0.6,1.6L115.3,19.8z"/>
	<path d="M134.2,26.1l-8.2,11l-2.9-2.1l6.5-8.7l-1.9-1.4l1.7-2.3L134.2,26.1z"/>
	<path d="M141,31.1c0.4,0.7,0.8,1.4,1.1,2c0.3,0.6,0.6,1.1,0.8,1.6c0.2,0.5,0.5,0.9,0.7,1.4c0.2,0.4,0.4,0.8,0.6,1.3
		c0.2,0.4,0.3,0.9,0.3,1.3c0,0.4,0,0.8-0.1,1.1s-0.3,0.7-0.5,1s-0.5,0.6-0.9,1l-3.9,3.6c-0.2,0.2-0.3,0.3-0.5,0.4
		c-0.2,0.1-0.3,0.2-0.5,0.4c-0.2,0.1-0.5,0.3-0.8,0.5c-0.3,0.2-0.7,0.4-1.2,0.7l-8.1-8.7l2.1-2l6.1,6.6l4-3.7
		c0.2-0.2,0.4-0.4,0.6-0.6s0.2-0.3,0.3-0.5s0.1-0.3,0.1-0.5c0-0.2-0.1-0.4-0.2-0.7c-0.1-0.3-0.3-0.7-0.5-1.1s-0.4-0.8-0.7-1.3
		l-2.7,0.8l0.4,2l-3,0.6l-1-4.8L141,31.1z"/>
	<path d="M154.5,50.8c0.3,0.5,0.5,1,0.6,1.5c0.2,0.5,0.2,1.1,0.1,1.6c-0.1,0.5-0.3,1.1-0.7,1.6s-1,1-1.8,1.5l-8,4.5l-1.8-3.1l7.2-4
		c0.5-0.3,0.8-0.5,1.1-0.7c0.3-0.2,0.5-0.4,0.5-0.7c0.1-0.2,0.1-0.5,0-0.8c-0.1-0.3-0.3-0.7-0.5-1.2l-1-1.7c-0.7,0-1.3,0.2-2,0.4
		c-0.7,0.2-1.3,0.5-1.9,0.9c-0.3,0.2-0.6,0.4-0.9,0.6s-0.6,0.4-0.8,0.6c-0.3,0.2-0.5,0.4-0.8,0.6c-0.2,0.2-0.5,0.5-0.7,0.7l-0.6,0.6
		c-0.3,0.2-0.7,0.3-1,0.4c-0.3,0.1-0.6,0.2-0.9,0.3l-3.2-5.6l2.5-1.4l1.5,2.6c0.5-0.5,1-1,1.4-1.4c0.5-0.4,1-0.8,1.5-1.1
		c0.4-0.2,0.9-0.4,1.3-0.6c0.5-0.2,0.9-0.3,1.4-0.5c0.2-0.1,0.5-0.1,0.7-0.1s0.5-0.1,0.7-0.1c-0.2-0.4-0.3-0.7-0.4-1.1
		c-0.1-0.4-0.2-0.8-0.3-1.3c0.5-0.1,1-0.2,1.4-0.3c0.5-0.1,0.9-0.2,1.4-0.3c0.1,0.5,0.2,0.8,0.3,1.1c0.1,0.3,0.2,0.6,0.3,0.9
		c0.1,0.3,0.2,0.6,0.4,0.8c0.2,0.3,0.3,0.6,0.6,1L154.5,50.8z"/>
	<path d="M149.3,66.9c0,0.2,0.1,0.4,0.1,0.5c0,0.2,0.1,0.4,0.1,0.6c0.1,0.5,0.3,1,0.5,1.5s0.5,1,0.9,1.5c0.4,0.5,0.8,0.9,1.3,1.2
		s1.1,0.6,1.8,0.8c1,0.3,1.9,0.4,2.9,0.3c1,0,1.9-0.2,2.8-0.4c0.4-0.1,0.7-0.2,1.1-0.3c0.4-0.1,0.7-0.2,1.1-0.4
		c0.2,0.3,0.3,0.6,0.5,0.9c0.1,0.2,0.2,0.5,0.4,0.7s0.2,0.5,0.3,0.8c0.1,0.3,0.2,0.6,0.4,1c-0.3,0.2-0.7,0.3-1.2,0.5
		c-0.4,0.1-0.9,0.3-1.3,0.4c-0.4,0.1-0.8,0.2-1.2,0.3c-0.4,0.1-0.8,0.1-1.1,0.2c-3.3,0.4-5.9-0.2-7.9-1.7s-3.4-3.8-4.2-7.1
		c-0.1-0.6-0.3-1.2-0.4-1.8c-0.1-0.6-0.2-1.3-0.3-1.9l7.6-2.5c0.4-0.1,0.8-0.3,1.2-0.4c0.3-0.1,0.6-0.2,0.9-0.3s0.5-0.2,0.7-0.3
		c0.2-0.1,0.4-0.2,0.6-0.3c0.2-0.1,0.4-0.2,0.7-0.4c0.2-0.1,0.5-0.3,0.8-0.5c0.3,0.5,0.7,0.9,1,1.4c0.4,0.5,0.7,0.9,1,1.4
		c-0.4,0.4-0.8,0.6-1.2,0.9c-0.4,0.2-0.8,0.4-1.2,0.6c-0.4,0.2-0.8,0.3-1.3,0.5c-0.5,0.2-1,0.3-1.6,0.5L149.3,66.9z M156,66.6
		c0.4,0,0.7,0.1,1,0.1c0.3,0,0.5,0,0.7,0.1s0.4,0,0.6,0c0.2,0,0.4-0.1,0.6-0.1c0.1,0,0.1,0,0.2,0c0.1,0,0.1,0,0.2-0.1
		c0.1,0,0.3-0.1,0.4-0.1s0.3-0.1,0.5-0.2c0.3,0.5,0.6,1,0.9,1.6s0.5,1,0.8,1.6c-0.4,0.2-0.7,0.4-1,0.5c-0.3,0.1-0.6,0.2-0.9,0.3
		c-0.2,0.1-0.5,0.1-0.8,0.1c-0.3,0-0.5,0-0.8,0c-0.3,0-0.6,0-1-0.1c-0.4,0-0.8-0.1-1.2-0.1l-2.5-0.3c0-0.4,0-0.7,0-1
		c0-0.3,0-0.5,0-0.7c0-0.2,0.1-0.5,0.1-0.7c0-0.3,0.1-0.6,0.2-0.9L156,66.6z"/>
</g>
<g>
</g>
<g>
</g>
<g>
</g>
<g>
</g>
<g>
</g>
<g>
</g>
<g>
</g>
<g>
</g>
<g>
</g>
<g>
</g>
<g>
</g>
<g>
</g>
<g>
</g>
<g>
</g>
<g>
</g>
</svg>
