<?xml version="1.0" encoding="utf-8"?>
<!-- Generator: Adobe Illustrator 18.0.0, SVG Export Plug-In . SVG Version: 6.00 Build 0)  -->
<!DOCTYPE svg PUBLIC "-//W3C//DTD SVG 1.1//EN" "http://www.w3.org/Graphics/SVG/1.1/DTD/svg11.dtd">
<svg version="1.1" id="Layer_1" xmlns="http://www.w3.org/2000/svg" xmlns:xlink="http://www.w3.org/1999/xlink" x="0px" y="0px"
	 viewBox="0 0 155.2 129.5" enable-background="new 0 0 155.2 129.5" xml:space="preserve">
<circle fill="#FFFFFF" cx="77.7" cy="78.1" r="51.4"/>
<g>
	<path d="M81.5,56.6l4.1,3.2v38.7H75.1V66.9l-7.8,3l-2.6-6.8L81.5,56.6z"/>
</g>
<polygon points="0.5,73.2 14.2,73.5 14.1,77.1 3.2,76.8 3.2,79.1 0.3,79.1 "/>
<path d="M2.3,60.7L4.1,61c0.2,0,0.3,0.1,0.5,0.1s0.5,0,0.8,0.1s0.7,0,1.1,0.1c0.4,0,0.9,0.1,1.6,0.1c0.6,0,1.3,0.1,2.1,0.2
	c0.8,0.1,1.8,0.1,2.8,0.2c0.1,0,0.3,0,0.4,0.1s0.2,0,0.4,0.1c0.2,0,0.4,0.1,0.5,0.1c0.2,0,0.3,0.1,0.5,0.1s0.3,0.1,0.5,0.2
	c0.2,0.1,0.4,0.1,0.6,0.2l-1.6,8.8l-2.8-0.5l1-5.6c-0.2,0-0.5-0.1-0.9-0.1c-0.4,0-0.9-0.1-1.4-0.1S9,64.9,8.4,64.8
	c-0.6,0-1.2-0.1-1.7-0.1c-0.5,0-1-0.1-1.4-0.1c-0.4,0-0.7-0.1-0.9-0.1l-0.6,3.3L1,67.3L2.3,60.7z"/>
<path d="M1.3,50.5l3.6,1.4l2.7-7c0.2,0,0.4,0,0.5,0.1c0.2,0,0.3,0,0.4,0.1c0.2,0,0.4,0.1,0.6,0.1s0.4,0.1,0.6,0.2l2.6,1
	c1,0.4,1.8,0.9,2.5,1.7c0.7,0.7,1.3,1.6,1.9,2.8l2.2,4.5l-3,1.6l-1-2c-0.4-0.8-0.8-1.6-1.1-2.1c-0.3-0.6-0.6-1-0.8-1.4
	c-0.3-0.4-0.5-0.7-0.8-0.9c-0.3-0.2-0.6-0.4-1.1-0.6L9.1,49l-2.9,7.3L0,53.8L1.3,50.5z"/>
<path d="M21.7,42.5c0.1-0.1,0.2-0.3,0.3-0.4c0.1-0.1,0.2-0.3,0.4-0.5c0.3-0.4,0.6-0.9,0.8-1.4c0.2-0.5,0.4-1,0.5-1.6
	s0.1-1.2,0.1-1.8c-0.1-0.6-0.2-1.3-0.5-1.9c-0.4-0.9-1-1.7-1.6-2.4c-0.6-0.7-1.4-1.3-2.1-1.9c-0.3-0.2-0.6-0.4-0.9-0.6
	c-0.3-0.2-0.6-0.4-1-0.6c0.1-0.4,0.3-0.7,0.4-0.9c0.1-0.3,0.2-0.5,0.3-0.7c0.1-0.2,0.2-0.5,0.4-0.7c0.1-0.3,0.3-0.6,0.5-0.9
	c0.4,0.1,0.7,0.3,1.1,0.6c0.4,0.2,0.8,0.5,1.1,0.8c0.3,0.3,0.7,0.5,1,0.8c0.3,0.3,0.6,0.5,0.9,0.8c2.4,2.3,3.7,4.6,3.8,7.1
	c0.2,2.5-0.7,5.1-2.7,7.8c-0.3,0.5-0.7,0.9-1.1,1.4c-0.4,0.5-0.8,1-1.3,1.5l-6.8-4.2c-0.4-0.2-0.7-0.5-1-0.6
	c-0.3-0.2-0.6-0.3-0.8-0.5c-0.2-0.1-0.5-0.3-0.7-0.4s-0.4-0.2-0.6-0.3c-0.2-0.1-0.5-0.2-0.7-0.3s-0.6-0.2-0.9-0.2
	c0.1-0.5,0.3-1.1,0.4-1.7c0.1-0.6,0.3-1.1,0.4-1.6c0.6,0.1,1,0.2,1.5,0.4c0.4,0.1,0.8,0.3,1.2,0.5c0.4,0.2,0.8,0.4,1.2,0.7
	c0.4,0.3,0.9,0.5,1.4,0.9L21.7,42.5z M17.1,37.6c-0.2-0.3-0.4-0.6-0.6-0.8c-0.2-0.2-0.3-0.4-0.4-0.6c-0.1-0.2-0.3-0.3-0.4-0.4
	c-0.1-0.1-0.3-0.2-0.4-0.4c-0.1,0-0.1-0.1-0.2-0.1c-0.1,0-0.1-0.1-0.2-0.1c-0.1-0.1-0.2-0.2-0.4-0.2c-0.1-0.1-0.3-0.2-0.5-0.2
	c0.2-0.6,0.4-1.1,0.6-1.7c0.2-0.5,0.5-1.1,0.7-1.6c0.4,0.1,0.7,0.3,1,0.4c0.3,0.1,0.6,0.3,0.8,0.5c0.2,0.1,0.4,0.3,0.6,0.5
	c0.2,0.2,0.4,0.4,0.6,0.6c0.2,0.2,0.4,0.5,0.6,0.8s0.4,0.6,0.7,1l1.4,2.1c-0.3,0.2-0.5,0.4-0.7,0.6c-0.2,0.2-0.4,0.3-0.6,0.4
	s-0.4,0.3-0.6,0.4c-0.2,0.1-0.5,0.3-0.8,0.5L17.1,37.6z"/>
<polygon points="35,13.5 45.5,28 42.5,30.1 33.8,18 31.6,19.5 29.9,17.2 "/>
<path d="M44.7,8.1l2.3,4.4c0.2,0.4,0.4,0.8,0.5,1.1c0.1,0.3,0.3,0.5,0.4,0.8c0.1,0.2,0.2,0.5,0.3,0.7c0.1,0.2,0.2,0.5,0.2,0.8
	l-3.4,1.2c-0.1-0.3-0.2-0.5-0.2-0.7c-0.1-0.2-0.2-0.4-0.2-0.7c-0.1-0.2-0.2-0.5-0.3-0.8c-0.1-0.3-0.3-0.6-0.5-1l-0.9-1.7l-2.7,1.4
	l-1.3-2.5L44.7,8.1z"/>
<path d="M55,4.1l1.7,4.7c0.2,0.4,0.3,0.8,0.4,1.1c0.1,0.3,0.2,0.6,0.2,0.8c0.1,0.3,0.1,0.5,0.2,0.8c0,0.2,0.1,0.5,0.1,0.8L54,13.1
	c0-0.3-0.1-0.5-0.1-0.7c0-0.2-0.1-0.4-0.1-0.7c-0.1-0.2-0.1-0.5-0.2-0.8c-0.1-0.3-0.2-0.6-0.3-1.1L52.6,8l-2.8,1l-1-2.7L55,4.1z"/>
<path d="M62.7,1.3c0.8,0.1,1.6,0.1,2.2,0.2c0.7,0.1,1.2,0.1,1.8,0.2c0.5,0.1,1,0.1,1.5,0.2c0.5,0.1,0.9,0.2,1.4,0.3
	c0.5,0.1,0.9,0.3,1.2,0.5s0.6,0.4,0.8,0.7s0.4,0.6,0.5,1c0.1,0.4,0.2,0.8,0.3,1.2l0.8,5.2c0,0.2,0.1,0.4,0.1,0.6c0,0.2,0,0.4,0,0.6
	c0,0.3,0,0.6,0,0.9c0,0.4-0.1,0.8-0.1,1.4l-11.7,1.8l-0.4-2.8L70,12l-0.8-5.4c0-0.3-0.1-0.6-0.2-0.8c-0.1-0.2-0.1-0.4-0.2-0.5
	c-0.1-0.1-0.2-0.3-0.4-0.3S68,4.8,67.7,4.8c-0.4-0.1-0.8-0.1-1.2-0.2c-0.4-0.1-0.9-0.1-1.5-0.2l-0.8,2.7l1.9,0.8l-1.2,2.8l-4.5-1.8
	L62.7,1.3z"/>
<path d="M77.1,1.5c0.5-0.3,1-0.5,1.5-0.8C79,0.5,79.5,0.2,80,0c0.2,0.3,0.3,0.6,0.5,0.8s0.2,0.4,0.3,0.6C80.9,1.6,81,1.8,81.1,2
	s0.1,0.4,0.2,0.6c0.8-0.7,1.6-1.2,2.5-1.5c0.8-0.3,1.7-0.4,2.4-0.3c0.6,0,1.1,0.2,1.6,0.4c0.5,0.2,0.9,0.5,1.3,0.8
	c0.4,0.3,0.7,0.8,0.9,1.2s0.4,1,0.5,1.6c0.1,0.5,0.1,1,0,1.6s-0.1,1.3-0.1,2c0,0.3-0.1,0.7-0.1,1.1s-0.1,0.8-0.1,1.3
	c0,0.6-0.1,1.2-0.2,1.7s-0.1,1-0.2,1.4c0,0.2-0.1,0.4-0.1,0.6c0,0.2-0.1,0.4-0.1,0.7l-6.9-0.6l0.2-2.9l3.5,0.3c0-0.1,0-0.1,0-0.3
	c0-0.1,0-0.3,0.1-0.6c0-0.3,0.1-0.6,0.1-1c0-0.4,0.1-0.9,0.1-1.6c0-0.2,0-0.4,0.1-0.6s0-0.5,0.1-0.8c0-0.3,0-0.5,0.1-0.8
	c0-0.3,0-0.5,0-0.6c0-0.7-0.2-1.2-0.5-1.6s-0.8-0.5-1.4-0.6c-0.3,0-0.7,0-1,0.1c-0.3,0.1-0.7,0.3-1.1,0.5c-0.2,0.1-0.4,0.3-0.6,0.4
	c-0.2,0.2-0.4,0.3-0.6,0.5c-0.2,1-0.4,1.8-0.6,2.5c-0.2,0.7-0.3,1.3-0.4,1.8c-0.1,0.5-0.2,1-0.3,1.4c-0.1,0.4-0.2,0.8-0.3,1.2
	c-0.1,0.4-0.2,0.8-0.3,1.2c-0.1,0.4-0.2,0.9-0.3,1.4l-3.6-0.3l0.5-2.3c0.1-0.6,0.2-1.1,0.4-1.6c0.1-0.5,0.2-1,0.4-1.5
	c0.1-0.5,0.2-1,0.4-1.5s0.3-1,0.4-1.6c0-0.2,0.1-0.3,0.1-0.4c0-0.1,0-0.3,0-0.4c0-0.2,0-0.5,0-0.7c0-0.2-0.1-0.4-0.1-0.6
	C78,3.6,78,3.4,77.9,3.2c-0.1-0.2-0.2-0.4-0.3-0.6L77.1,1.5z"/>
<path d="M93.5,12c0.1-0.4,0.2-0.7,0.3-1c0.1-0.3,0.2-0.6,0.3-0.8s0.2-0.5,0.4-0.8c0.1-0.3,0.3-0.5,0.5-0.8c0.5,0.2,1.1,0.5,1.6,0.8
	c0.5,0.3,1,0.6,1.6,0.9c-0.3,0.4-0.5,0.9-0.7,1.3c-0.2,0.5-0.4,1-0.6,1.6l-2.6,7.6l-3.4-1.2L93.5,12z M99.6,6.8
	c-0.4-0.1-0.8-0.3-1.1-0.4c-0.3-0.1-0.6-0.3-0.9-0.4c-0.3-0.1-0.6-0.3-0.9-0.5c-0.3-0.2-0.6-0.4-1-0.7c0.3-0.4,0.6-0.8,0.9-1.2
	s0.6-0.8,0.9-1.1c0.4,0.2,0.7,0.4,0.9,0.6c0.3,0.2,0.5,0.3,0.8,0.4c0.2,0.1,0.5,0.2,0.8,0.3c0.3,0.1,0.6,0.2,0.9,0.3l0.4,0.1
	l7.4,2.5c0,0.2,0,0.3,0,0.5c0,0.1,0,0.3,0,0.4c0,0.2-0.1,0.5-0.1,0.6c-0.1,0.2-0.1,0.4-0.2,0.7l-0.9,2.7c-0.2,0.5-0.3,0.9-0.5,1.3
	c-0.2,0.4-0.4,0.7-0.6,1c-0.2,0.3-0.5,0.6-0.8,0.9c-0.3,0.3-0.6,0.5-1,0.8c-0.3,0.2-0.7,0.5-1.1,0.8s-0.9,0.6-1.4,0.9
	s-1,0.6-1.5,0.9c-0.5,0.3-0.9,0.5-1.3,0.7l-1.7-2.9l2.3-1.3c0.6-0.3,1.1-0.6,1.5-0.9c0.4-0.2,0.8-0.5,1-0.7c0.2-0.2,0.4-0.4,0.6-0.5
	c0.2-0.2,0.3-0.4,0.4-0.5c0.1-0.2,0.2-0.4,0.3-0.6c0.1-0.2,0.2-0.5,0.3-0.7l0.8-2.2L99.6,6.8z"/>
<path d="M117,17.9c0.3-0.5,0.5-0.8,0.7-1.2c0.1-0.3,0.2-0.6,0.2-0.9c0-0.3-0.2-0.5-0.4-0.7c-0.2-0.2-0.6-0.5-1-0.8
	c-0.4-0.2-0.7-0.5-1-0.7c-0.3-0.2-0.5-0.4-0.8-0.6c-0.2-0.2-0.5-0.4-0.7-0.7c-0.2-0.2-0.5-0.5-0.8-0.9c0.4-0.3,0.7-0.6,1.1-1
	c0.4-0.3,0.7-0.6,1.1-0.9c0.3,0.3,0.6,0.6,0.8,0.9c0.2,0.2,0.5,0.4,0.7,0.6c0.2,0.2,0.5,0.4,0.7,0.6c0.3,0.2,0.6,0.4,1,0.6l0.6,0.4
	c0.5,0.3,0.9,0.6,1.3,1c0.4,0.4,0.7,0.8,0.9,1.4c0.2,0.5,0.2,1.1,0.1,1.7c-0.1,0.6-0.4,1.4-0.9,2.2l-3.4,5.3l2.1,1.3l-1.5,2.4
	l-11.6-7.3l1.5-2.4l6.5,4.1L117,17.9z"/>
<polygon points="138.2,29.7 127.8,38.7 125.4,36 133.6,28.9 132.1,27.1 134.3,25.3 "/>
<path d="M141.3,39.2c-0.2-0.4-0.4-0.7-0.6-1s-0.3-0.6-0.4-0.9c-0.1-0.3-0.2-0.6-0.3-0.9c-0.1-0.3-0.2-0.7-0.3-1.1
	c0.5-0.1,1-0.2,1.4-0.3c0.5-0.1,0.9-0.2,1.4-0.3c0.1,0.4,0.2,0.8,0.3,1.1c0.1,0.3,0.2,0.6,0.3,0.9s0.3,0.6,0.4,0.8
	c0.2,0.3,0.4,0.6,0.6,1l0.6,1c0.3,0.5,0.5,1,0.6,1.5c0.1,0.5,0.2,1,0.1,1.6s-0.3,1.1-0.7,1.6c-0.4,0.5-0.9,1.1-1.7,1.6
	c-0.4,0.3-0.8,0.5-1.2,0.8s-0.8,0.5-1.3,0.8s-0.9,0.6-1.4,0.8c-0.5,0.3-1,0.6-1.6,0.9c-0.2,0.1-0.3,0.2-0.5,0.3
	c-0.2,0.1-0.3,0.2-0.5,0.2c-0.2,0.1-0.4,0.2-0.6,0.2c-0.2,0.1-0.5,0.2-0.8,0.3l-5.9-9.9l2.5-1.5L136,46c0.4-0.2,0.7-0.4,1.1-0.7
	s0.8-0.5,1.2-0.7s0.8-0.5,1.2-0.7c0.4-0.2,0.8-0.5,1.1-0.7c0.5-0.3,0.8-0.5,1.1-0.7c0.3-0.2,0.4-0.4,0.5-0.7s0.1-0.5,0-0.8
	c-0.1-0.3-0.3-0.7-0.6-1.1L141.3,39.2z"/>
<path d="M148.5,48.7c0.4,0.4,0.8,0.7,1.2,1.1c0.4,0.4,0.8,0.7,1.2,1.1c-0.2,0.3-0.4,0.5-0.5,0.7s-0.3,0.4-0.5,0.6
	c-0.1,0.2-0.3,0.3-0.5,0.5c-0.2,0.1-0.3,0.3-0.5,0.4c0.9,0.5,1.7,1.1,2.3,1.7c0.6,0.7,1,1.4,1.2,2.1c0.2,0.5,0.2,1.1,0.2,1.6
	c0,0.5-0.1,1-0.3,1.5c-0.2,0.5-0.4,0.9-0.8,1.3c-0.4,0.4-0.8,0.8-1.3,1.1c-0.4,0.2-0.9,0.5-1.5,0.7c-0.6,0.2-1.2,0.4-1.9,0.6
	c-0.3,0.1-0.7,0.2-1,0.3c-0.4,0.1-0.8,0.2-1.3,0.4c-0.6,0.2-1.1,0.3-1.7,0.5s-1,0.3-1.3,0.3c-0.2,0-0.4,0.1-0.6,0.1
	c-0.2,0-0.4,0.1-0.7,0.1l-2.1-6.6l2.7-0.9l1.1,3.4c0.1,0,0.1,0,0.3-0.1c0.1,0,0.3-0.1,0.6-0.2c0.3-0.1,0.6-0.2,1-0.3
	c0.4-0.1,0.9-0.3,1.5-0.5c0.2-0.1,0.4-0.1,0.6-0.2c0.2-0.1,0.5-0.2,0.8-0.2s0.5-0.2,0.8-0.3c0.2-0.1,0.4-0.2,0.6-0.2
	c0.7-0.3,1.1-0.7,1.3-1.1c0.2-0.4,0.2-0.9,0-1.5c-0.1-0.3-0.3-0.6-0.5-0.9c-0.2-0.3-0.5-0.6-0.8-0.8c-0.2-0.2-0.4-0.3-0.6-0.4
	c-0.2-0.1-0.5-0.2-0.7-0.4c-1,0.1-1.8,0.3-2.5,0.4c-0.7,0.1-1.3,0.2-1.8,0.3s-1,0.2-1.4,0.2s-0.8,0.1-1.2,0.2s-0.8,0.1-1.2,0.2
	c-0.4,0.1-0.9,0.1-1.4,0.2l-1.1-3.4l2.3-0.4c0.6-0.1,1.1-0.2,1.6-0.3s1-0.2,1.5-0.2c0.5-0.1,1-0.1,1.5-0.2c0.5-0.1,1.1-0.1,1.6-0.2
	c0.2,0,0.3-0.1,0.4-0.1c0.1,0,0.3-0.1,0.4-0.1c0.2-0.1,0.4-0.2,0.6-0.2c0.2-0.1,0.3-0.2,0.5-0.3c0.2-0.1,0.3-0.3,0.4-0.4
	c0.1-0.2,0.3-0.3,0.5-0.5L148.5,48.7z"/>
<path d="M155.1,76.5c0,0.6,0,1.1-0.1,1.6c-0.1,0.5-0.3,1-0.6,1.5c-0.3,0.4-0.8,0.8-1.3,1.1c-0.6,0.3-1.3,0.5-2.3,0.5l-9.1,0.5
	l-0.2-3.6l8.2-0.4c0.5,0,1-0.1,1.3-0.1c0.3-0.1,0.6-0.2,0.8-0.4c0.2-0.2,0.3-0.4,0.4-0.7c0.1-0.3,0.1-0.7,0-1.3l-0.1-2
	c-0.6-0.3-1.3-0.4-2-0.5c-0.7-0.1-1.4-0.1-2-0.1c-0.4,0-0.7,0-1.1,0.1c-0.3,0-0.7,0.1-1,0.1c-0.3,0.1-0.6,0.1-1,0.2
	c-0.3,0.1-0.6,0.2-1,0.3l-0.8,0.3c-0.4,0-0.7,0-1.1-0.1c-0.3,0-0.7-0.1-1-0.1l-0.3-6.5l2.9-0.1l0.2,3c0.7-0.3,1.3-0.5,1.9-0.6
	c0.6-0.1,1.2-0.2,1.8-0.3c0.5,0,1,0,1.5,0s1,0.1,1.5,0.2c0.2,0.1,0.5,0.1,0.7,0.2c0.2,0.1,0.4,0.1,0.7,0.2c0-0.4,0.1-0.8,0.1-1.1
	c0.1-0.4,0.2-0.8,0.3-1.3c0.5,0.1,1,0.2,1.4,0.4c0.5,0.1,0.9,0.3,1.4,0.4c-0.1,0.5-0.2,0.8-0.2,1.2s-0.1,0.6-0.1,0.9
	c0,0.3,0,0.6,0,0.9c0,0.3,0,0.7,0,1.2L155.1,76.5z"/>
<g>
</g>
<g>
</g>
<g>
</g>
<g>
</g>
<g>
</g>
<g>
</g>
<g>
</g>
<g>
</g>
<g>
</g>
<g>
</g>
<g>
</g>
<g>
</g>
<g>
</g>
<g>
</g>
<g>
</g>
</svg>
