<?xml version="1.0" encoding="utf-8"?>
<!-- Generator: Adobe Illustrator 18.0.0, SVG Export Plug-In . SVG Version: 6.00 Build 0)  -->
<!DOCTYPE svg PUBLIC "-//W3C//DTD SVG 1.1//EN" "http://www.w3.org/Graphics/SVG/1.1/DTD/svg11.dtd">
<svg version="1.1" id="Layer_1" xmlns="http://www.w3.org/2000/svg" xmlns:xlink="http://www.w3.org/1999/xlink" x="0px" y="0px"
	 viewBox="0 0 172.055 150.268" enable-background="new 0 0 172.055 150.268" xml:space="preserve">
<circle fill="#FFFFFF" cx="85.874" cy="86.607" r="51.36"/>
<g>
	<path d="M90.613,65.076l4.141,3.222v38.653H84.246v-31.56l-7.784,2.991l-2.607-6.826L90.613,65.076z"/>
</g>
<g>
	<circle fill="none" cx="85.874" cy="86.607" r="63.66"/>
	<path d="M36.52,20.319c0.845-0.601,1.658-1.111,2.438-1.531c0.78-0.42,1.55-0.732,2.309-0.938c0.897-0.239,1.743-0.31,2.536-0.21
		c0.793,0.1,1.547,0.348,2.261,0.746c0.714,0.397,1.398,0.928,2.053,1.59c0.654,0.661,1.292,1.43,1.913,2.303
		c0.622,0.874,1.137,1.731,1.546,2.573c0.409,0.841,0.683,1.669,0.819,2.482c0.137,0.814,0.126,1.615-0.032,2.401
		c-0.158,0.786-0.487,1.562-0.989,2.328c-0.438,0.657-0.981,1.289-1.629,1.896c-0.648,0.605-1.394,1.209-2.239,1.811l-4.19,2.979
		L32.33,23.299L36.52,20.319z M45.204,34.123c1.182-0.841,2.084-1.611,2.707-2.313c0.623-0.701,0.995-1.413,1.117-2.137
		c0.122-0.723,0.011-1.493-0.333-2.312c-0.344-0.817-0.898-1.763-1.663-2.838c-0.764-1.074-1.478-1.914-2.141-2.521
		c-0.663-0.606-1.343-0.982-2.041-1.129c-0.697-0.146-1.446-0.069-2.246,0.23c-0.801,0.3-1.717,0.816-2.748,1.55l-0.967,0.688
		l7.885,11.088L45.204,34.123z"/>
	<path d="M58.528,13.887c1.078-0.406,2.075-0.589,2.991-0.55c0.917,0.04,1.744,0.262,2.483,0.664
		c0.739,0.403,1.388,0.966,1.947,1.69c0.559,0.724,1.02,1.566,1.382,2.529c0.362,0.962,0.573,1.901,0.632,2.818
		c0.059,0.917-0.056,1.771-0.346,2.561s-0.765,1.502-1.428,2.137s-1.533,1.155-2.61,1.561c-1.078,0.406-2.075,0.589-2.991,0.55
		c-0.917-0.04-1.744-0.262-2.483-0.664s-1.388-0.968-1.949-1.696c-0.561-0.728-1.022-1.573-1.385-2.535
		c-0.362-0.963-0.572-1.9-0.63-2.813c-0.057-0.912,0.059-1.764,0.348-2.554s0.766-1.502,1.428-2.137S57.451,14.292,58.528,13.887z
		 M59.439,16.305c-0.592,0.223-1.036,0.517-1.331,0.881c-0.295,0.365-0.476,0.781-0.544,1.248s-0.043,0.977,0.076,1.528
		c0.118,0.552,0.289,1.123,0.512,1.716c0.226,0.601,0.477,1.147,0.751,1.64c0.275,0.493,0.592,0.893,0.952,1.198
		c0.359,0.307,0.77,0.499,1.232,0.579c0.462,0.079,0.989,0.008,1.582-0.216c0.592-0.223,1.036-0.517,1.33-0.881
		c0.295-0.365,0.476-0.78,0.544-1.248c0.068-0.467,0.043-0.977-0.075-1.528c-0.119-0.552-0.291-1.128-0.517-1.729
		c-0.223-0.592-0.472-1.134-0.747-1.627s-0.592-0.893-0.951-1.198c-0.36-0.307-0.771-0.499-1.232-0.579
		C60.559,16.01,60.031,16.081,59.439,16.305z"/>
	<path d="M74.593,12.391c0.236-0.471,0.489-0.888,0.76-1.252s0.57-0.679,0.896-0.943c0.327-0.266,0.695-0.478,1.105-0.637
		c0.41-0.16,0.873-0.271,1.388-0.332c0.576-0.069,1.094-0.066,1.554,0.007c0.46,0.073,0.866,0.211,1.218,0.412
		s0.66,0.465,0.925,0.792c0.265,0.327,0.489,0.705,0.673,1.135c0.175,0.431,0.322,0.901,0.441,1.414s0.214,1.07,0.286,1.672
		l0.952,7.959l-3.587,0.429l-1.075-8.993c-0.089-0.75-0.33-1.302-0.722-1.653c-0.392-0.351-0.884-0.491-1.478-0.421
		c-0.332,0.04-0.647,0.157-0.947,0.353s-0.583,0.439-0.849,0.732c-0.266,0.293-0.506,0.616-0.721,0.969
		c-0.214,0.354-0.402,0.708-0.563,1.063l1.026,8.587l-3.586,0.429l-1.003-8.391c-0.084-0.707-0.162-1.297-0.232-1.771
		c-0.07-0.474-0.144-0.893-0.223-1.255c-0.04-0.181-0.076-0.34-0.11-0.478s-0.07-0.271-0.107-0.399
		c-0.038-0.128-0.08-0.258-0.126-0.39s-0.102-0.282-0.167-0.451c0.549-0.216,1.099-0.417,1.647-0.602
		c0.549-0.186,1.105-0.365,1.668-0.538c0.083,0.176,0.161,0.35,0.235,0.522s0.14,0.359,0.2,0.561s0.117,0.422,0.172,0.663
		c0.055,0.241,0.115,0.518,0.179,0.828L74.593,12.391z"/>
	<path d="M89.458,9.824c0.338-0.095,0.721-0.176,1.148-0.243c0.428-0.066,0.881-0.12,1.357-0.159
		c0.479-0.04,0.971-0.058,1.479-0.054c0.509,0.004,1.021,0.035,1.535,0.093c0.726,0.081,1.398,0.214,2.02,0.398
		c0.619,0.184,1.125,0.431,1.516,0.739c0.389,0.31,0.678,0.702,0.863,1.178c0.186,0.477,0.24,1.056,0.162,1.736l-0.594,5.319
		c-0.068,0.612-0.125,1.156-0.17,1.633c-0.045,0.478-0.08,0.944-0.104,1.401c-0.002,0.168-0.002,0.32,0.002,0.458
		c0.002,0.138,0.006,0.271,0.014,0.399s0.02,0.266,0.035,0.408c0.014,0.144,0.033,0.301,0.059,0.472
		c-0.555,0.062-1.107,0.119-1.656,0.172c-0.551,0.054-1.106,0.103-1.668,0.146c-0.069-0.256-0.117-0.515-0.146-0.779
		c-0.028-0.264-0.046-0.564-0.052-0.901l-0.196-0.021c-0.341,0.28-0.677,0.508-1.005,0.684c-0.33,0.175-0.668,0.31-1.014,0.403
		c-0.348,0.094-0.702,0.147-1.066,0.159c-0.363,0.013-0.742-0.003-1.135-0.047c-0.604-0.067-1.154-0.202-1.653-0.404
		s-0.923-0.473-1.269-0.812c-0.348-0.34-0.602-0.751-0.765-1.233s-0.209-1.033-0.14-1.654c0.059-0.523,0.166-0.984,0.32-1.383
		c0.155-0.398,0.352-0.748,0.589-1.049s0.509-0.558,0.815-0.771c0.307-0.213,0.641-0.393,1.002-0.537
		c0.723-0.291,1.511-0.457,2.364-0.498c0.854-0.042,1.718-0.014,2.591,0.084l1.127,0.126l0.19-1.703
		c0.036-0.323,0.015-0.584-0.065-0.783c-0.078-0.199-0.198-0.356-0.357-0.472c-0.16-0.115-0.352-0.2-0.575-0.257
		c-0.224-0.056-0.467-0.099-0.729-0.128c-0.708-0.079-1.432-0.069-2.173,0.029c-0.74,0.099-1.453,0.242-2.137,0.431L89.458,9.824z
		 M95.61,17.212l-0.262-0.029c-0.622-0.061-1.218-0.081-1.791-0.061c-0.573,0.02-1.085,0.106-1.534,0.259
		c-0.451,0.153-0.823,0.379-1.117,0.678c-0.295,0.299-0.47,0.697-0.525,1.195c-0.062,0.55,0.051,0.991,0.336,1.324
		c0.285,0.332,0.717,0.531,1.293,0.596c0.271,0.03,0.555,0.024,0.852-0.018c0.296-0.042,0.592-0.115,0.887-0.219
		c0.294-0.104,0.574-0.243,0.842-0.417s0.508-0.381,0.721-0.622L95.61,17.212z"/>
	<path d="M111.679,10.325l-0.98,2.98l4.383,1.442l-0.823,2.505l-4.384-1.442l-2.056,6.249c-0.135,0.409-0.227,0.754-0.277,1.033
		s-0.051,0.513-0.001,0.7c0.049,0.188,0.151,0.342,0.306,0.462c0.155,0.12,0.37,0.226,0.646,0.316
		c0.267,0.088,0.588,0.161,0.962,0.219c0.374,0.059,0.821,0.113,1.341,0.164c0.001,0.167-0.001,0.36-0.004,0.581
		c-0.003,0.222-0.009,0.448-0.016,0.682c-0.008,0.234-0.015,0.458-0.021,0.674c-0.007,0.216-0.009,0.406-0.009,0.573
		c-0.261,0.007-0.56-0.006-0.896-0.038c-0.336-0.032-0.684-0.079-1.042-0.142c-0.359-0.062-0.718-0.14-1.077-0.229
		c-0.358-0.091-0.692-0.187-1.002-0.288c-0.292-0.096-0.576-0.203-0.852-0.321c-0.275-0.119-0.53-0.251-0.765-0.397
		c-0.233-0.146-0.442-0.306-0.627-0.478c-0.185-0.171-0.329-0.362-0.436-0.573c-0.25-0.479-0.329-1.054-0.238-1.723
		c0.09-0.669,0.296-1.492,0.618-2.469l2.014-6.124l-1.878-0.618l0.824-2.504l1.878,0.617l0.98-2.98L111.679,10.325z"/>
	<path d="M123.198,33.965c-0.387-0.053-0.792-0.138-1.218-0.255s-0.859-0.26-1.301-0.427c-0.442-0.167-0.881-0.354-1.316-0.558
		s-0.851-0.422-1.244-0.653c-1.994-1.169-3.221-2.531-3.678-4.089c-0.458-1.557-0.106-3.324,1.054-5.304
		c0.515-0.879,1.106-1.653,1.773-2.322c0.667-0.668,1.404-1.166,2.212-1.492s1.687-0.445,2.639-0.356
		c0.951,0.09,1.969,0.451,3.053,1.087c1.896,1.111,3.016,2.442,3.359,3.994s-0.089,3.358-1.298,5.421l-0.526,0.898l-8.405-4.927
		c-0.287,0.524-0.493,1.015-0.618,1.472c-0.125,0.456-0.144,0.892-0.055,1.305c0.089,0.414,0.293,0.809,0.612,1.185
		c0.32,0.376,0.783,0.741,1.39,1.097c0.531,0.312,1.143,0.581,1.834,0.808c0.692,0.228,1.445,0.411,2.259,0.553L123.198,33.965z
		 M124.777,26.058c1.044-1.903,0.752-3.334-0.879-4.289c-0.841-0.493-1.622-0.625-2.343-0.396s-1.395,0.767-2.021,1.611
		L124.777,26.058z"/>
	<path d="M130.102,36.127c0.212,0.185,0.372,0.389,0.48,0.612c0.109,0.223,0.168,0.452,0.179,0.688
		c0.01,0.235-0.025,0.467-0.106,0.693s-0.205,0.437-0.373,0.629c-0.167,0.192-0.361,0.341-0.581,0.446
		c-0.221,0.105-0.451,0.166-0.693,0.183c-0.241,0.017-0.479-0.012-0.711-0.086c-0.232-0.075-0.445-0.195-0.638-0.363
		c-0.191-0.167-0.341-0.361-0.446-0.581c-0.105-0.221-0.166-0.451-0.183-0.693c-0.017-0.241,0.012-0.479,0.087-0.711
		c0.074-0.232,0.194-0.445,0.362-0.637c0.179-0.206,0.382-0.361,0.608-0.468c0.226-0.105,0.457-0.163,0.693-0.174
		c0.235-0.01,0.469,0.024,0.698,0.102C129.708,35.846,129.917,35.966,130.102,36.127z M137.337,23.39
		c0.551-0.15,1.086-0.159,1.605-0.026c0.521,0.133,0.966,0.36,1.337,0.684c0.231,0.202,0.422,0.436,0.571,0.699
		c0.148,0.264,0.238,0.546,0.269,0.846c0.029,0.3-0.007,0.609-0.109,0.928c-0.103,0.319-0.29,0.634-0.562,0.945l-7.778,8.103
		l-2.472-1.559l6.498-8.258L137.337,23.39z"/>
</g>
<g>
</g>
<g>
</g>
<g>
</g>
<g>
</g>
<g>
</g>
<g>
</g>
<g>
</g>
<g>
</g>
<g>
</g>
<g>
</g>
<g>
</g>
<g>
</g>
<g>
</g>
<g>
</g>
<g>
</g>
</svg>
