<?xml version="1.0" encoding="utf-8"?>
<!-- Generator: Adobe Illustrator 18.0.0, SVG Export Plug-In . SVG Version: 6.00 Build 0)  -->
<!DOCTYPE svg PUBLIC "-//W3C//DTD SVG 1.1//EN" "http://www.w3.org/Graphics/SVG/1.1/DTD/svg11.dtd">
<svg version="1.1" id="Layer_1" xmlns="http://www.w3.org/2000/svg" xmlns:xlink="http://www.w3.org/1999/xlink" x="0px" y="0px"
	 viewBox="0 0 144.411 144.412" width="144.411" height="144.412" enable-background="new 0 0 144.411 144.412" xml:space="preserve">
<g>
	<path fill="#355E1F" d="M141.887,53.217c1.645,6.051,2.525,12.416,2.525,18.989c0,39.881-32.325,72.206-72.206,72.206
		c-1.236,0-2.467-0.029-3.686-0.092l-40.64-40.641c5.066,4.767,16.453,7.873,25.752,9.115c3.036,0,6.072,0,9.109,0
		c17.867-1.875,30.099-9.478,38.034-18.621c7.603-8.764,13.163-19.627,14.659-34.066c0.195-1.91-0.242-4.837,0.396-6.74
		c0.708-2.117,3.33-3.256,5.148-5.147c1.835-1.91,2.967-3.905,4.756-5.551c0-0.131,0-0.264,0-0.39
		c-3.232,1.517-7.137,2.362-11.094,3.168c3.387-2.956,6.619-6.061,8.322-10.696l0.379-0.08L141.887,53.217z"/>
	<path fill="#4B7A35" d="M141.887,53.217l-18.546-18.545l-0.379,0.08c-3.169,0.794-7.735,3.623-12.284,4.353
		c-3.583-2.754-7.339-5.335-12.675-6.337c-1.72,0-3.434,0-5.152,0C81.291,35.172,73.77,43.401,75.42,57.726
		C56.166,56.11,43.871,47.547,33.819,36.73c-6.165,9.156-0.155,22.774,5.55,26.546c-3.566-0.006-5.912-1.219-8.322-2.381
		c0.673,11.22,6.338,17.436,15.85,19.811c-1.604,1.432-5.532,0.547-8.321,0.795c1.8,7.309,8.447,13.203,18.224,13.863
		c-6.693,5.47-16.705,9.686-28.92,8.317l40.64,40.641C30.352,142.399,0,110.851,0,72.206C0,32.325,32.324,0,72.205,0
		C105.514,0,133.554,22.549,141.887,53.217z"/>
	<path fill="#FFFFFF" d="M125.733,42.28c0,0.126,0,0.259,0,0.39c-1.789,1.645-2.921,3.641-4.756,5.551
		c-1.817,1.891-4.44,3.029-5.148,5.147c-0.639,1.903-0.201,4.83-0.396,6.74c-1.496,14.439-7.057,25.303-14.659,34.066
		c-7.936,9.143-20.167,16.746-38.034,18.621c-3.037,0-6.073,0-9.109,0c-9.299-1.242-20.686-4.348-25.752-9.115
		c12.215,1.369,22.227-2.847,28.92-8.317c-9.776-0.66-16.424-6.555-18.224-13.863c2.789-0.248,6.717,0.637,8.321-0.795
		c-9.512-2.375-15.177-8.591-15.85-19.811c2.41,1.162,4.756,2.375,8.322,2.381c-5.705-3.771-11.715-17.39-5.55-26.546
		C43.871,47.547,56.166,56.11,75.42,57.726c-1.65-14.324,5.871-22.554,17.431-24.958c1.719,0,3.433,0,5.152,0
		c5.336,1.002,9.092,3.583,12.675,6.337c4.549-0.73,9.115-3.559,12.284-4.353c-1.703,4.635-4.935,7.74-8.322,10.696
		C118.597,44.643,122.501,43.797,125.733,42.28z"/>
</g>
<g>
</g>
<g>
</g>
<g>
</g>
<g>
</g>
<g>
</g>
<g>
</g>
<g>
</g>
<g>
</g>
<g>
</g>
<g>
</g>
<g>
</g>
<g>
</g>
<g>
</g>
<g>
</g>
<g>
</g>
</svg>
