<?xml version="1.0" encoding="utf-8"?>
<!-- Generator: Adobe Illustrator 18.0.0, SVG Export Plug-In . SVG Version: 6.00 Build 0)  -->
<!DOCTYPE svg PUBLIC "-//W3C//DTD SVG 1.1//EN" "http://www.w3.org/Graphics/SVG/1.1/DTD/svg11.dtd">
<svg version="1.1" id="Layer_1" xmlns="http://www.w3.org/2000/svg" xmlns:xlink="http://www.w3.org/1999/xlink" x="0px" y="0px"
	 viewBox="400 0 560 560" enable-background="new 400 0 560 560" xml:space="preserve">
<g>
	
		<image overflow="visible" opacity="0.3" enable-background="new    " width="133" height="133" xlink:href="B7A4928D4574F01D.png"  transform="matrix(4.2103 0 0 4.2103 400.013 1.304051e-02)">
	</image>
	<g>
		<g>
			<g id="XMLID_9_">
				<g>
					<path fill="#D3C037" d="M922.9,264.4c0,1.7,0,3.8,0,5.5c0,139.4-112.9,252.6-252.6,252.6c-2.1,0-3.8,0-5.9,0L546.5,404.3
						c32.4,30.3,76.2,48.8,124.2,48.8c100.6,0,182.7-82.1,182.7-182.7c0-47.2-18.1-90.5-47.5-123L922.9,264.4z"/>
					<path fill="#FFE62E" d="M536.4,394.5c3,3.3,6.3,6.8,9.7,9.7l118.3,118.3c-136.9-3-246.8-114.9-246.8-252.6
						c0-139.4,113.2-252.6,252.6-252.6c137.7,0,249.3,109.9,252.6,246.8l-117-116.7l-0.5-0.8c-3.3-3.8-7.1-7.6-11.4-10.9l-0.8-0.5
						c-32.4-29.5-75.3-47.5-123-47.5c-100.6,0-182.7,82.1-182.7,182.7C487.6,317.9,506.1,361.7,536.4,394.5z"/>
					<path fill="#A3BF00" d="M805.1,146.5l-11.4-10.9C797.9,139,801.6,142.7,805.1,146.5z"/>
					<path fill="#A3BF00" d="M536.4,394.5l9.7,9.7C542.7,400.9,539.8,397.9,536.4,394.5z"/>
				</g>
			</g>
			<g>
				<g>
					<path fill="#FFFFFF" d="M839.2,270.3c0,93-75.3,168.4-168.4,168.4c-93,0-168.4-75.3-168.4-168.4s75.3-168.4,168.4-168.4
						C763.4,101.5,839.2,177.3,839.2,270.3z"/>
				</g>
				<g>
					<path fill="#BAAE45" d="M670.3,317.9c-26.1,0-47.5-21.5-47.5-47.5c0-26.1,21.5-47.5,47.5-47.5c26.1,0,47.5,21.5,47.5,47.5
						C718.3,296.4,696.8,317.9,670.3,317.9z M670.3,243c-15.2,0-27.3,12.2-27.3,27.3c0,15.1,12.2,27.3,27.3,27.3
						s27.3-12.2,27.3-27.3C697.7,255.2,685.4,243,670.3,243z"/>
				</g>
				<g>
					<path fill="#BAAE45" d="M671.2,242.1c-5.5,0-10.1-4.6-10.1-10.1v-61.1c0-5.5,4.6-10.1,10.1-10.1s10.1,4.6,10.1,10.1V232
						C681.3,237.9,677.1,242.1,671.2,242.1z"/>
				</g>
				<g>
					<path fill="#BAAE45" d="M767.2,378.1c-2.5,0-5.1-0.8-7.1-3L689.8,304c-4.2-4.2-3.8-10.6,0-14.3c3.8-3.8,10.6-3.8,14.3,0
						l70.3,71.2c3.8,3.8,3.8,10.6,0,14.3C772.6,376.9,769.7,378.1,767.2,378.1z"/>
				</g>
				<g>
					<path fill="#BAAE45" d="M688.4,270.3c0,10.1-8,18.1-18.1,18.1s-18.1-8-18.1-18.1s8-18.1,18.1-18.1S688.4,260.2,688.4,270.3z"/>
				</g>
				<g>
					<path fill="#BAAE45" d="M587.8,357c-0.8,0-2.1-0.5-3-1.3c-1.7-1.7-1.7-4.2,0-5.9l82.6-82.6c1.7-1.7,4.2-1.7,5.9,0
						s1.7,4.2,0,5.9l-82.6,82.6C589.9,356.7,589.1,357,587.8,357z"/>
				</g>
				<g>
					<g>
						<path fill="#BAAE45" d="M671.2,148.6c-1.3,0-2.1-0.8-2.1-2.1v-16.4c0-1.3,0.8-2.1,2.1-2.1s2.1,0.8,2.1,2.1v16.4
							C673.3,147.8,672.4,148.6,671.2,148.6z"/>
					</g>
					<g>
						<path fill="#BAAE45" d="M671.2,417.3c-1.3,0-2.1-0.8-2.1-2.1v-16.4c0-1.3,0.8-2.1,2.1-2.1s2.1,0.8,2.1,2.1v16.4
							C673.3,416.4,672.4,417.3,671.2,417.3z"/>
					</g>
				</g>
				<g>
					<g>
						<path fill="#BAAE45" d="M811.8,277.1h-16.4c-1.3,0-2.1-0.8-2.1-2.1c0-1.3,0.8-2.1,2.1-2.1h16.4c1.3,0,2.1,0.8,2.1,2.1
							C813.9,275.8,813,277.1,811.8,277.1z"/>
					</g>
					<g>
						<path fill="#BAAE45" d="M542.7,277.1h-16.4c-1.3,0-2.1-0.8-2.1-2.1c0-1.3,0.8-2.1,2.1-2.1h16.4c1.3,0,2.1,0.8,2.1,2.1
							C544.9,275.8,544,277.1,542.7,277.1z"/>
					</g>
				</g>
				<g>
					<g>
						<path fill="#BAAE45" d="M761.2,188.7c-0.5,0-1.3,0-1.3-0.5c-0.8-0.8-0.8-2.1,0-3l11.8-11.4c0.8-0.8,2.1-0.8,3,0
							c0.8,0.8,0.8,2.1,0,3l-11.8,11.4C762.1,188.2,761.7,188.7,761.2,188.7z"/>
					</g>
					<g>
						<path fill="#BAAE45" d="M568.4,375.6c-0.5,0-0.8,0-1.3-0.5c-0.8-0.8-0.8-2.1,0-3l11.8-11.4c0.8-0.8,2.1-0.8,3,0
							c0.8,0.8,0.8,2.1,0,3l-11.8,11.4C569.2,375.6,568.9,375.6,568.4,375.6z"/>
					</g>
				</g>
				<g>
					<g>
						<path fill="#BAAE45" d="M579.8,185.7c-0.5,0-0.8,0-1.3-0.5l-11.4-11.8c-0.8-0.8-0.8-2.1,0-3c0.8-0.9,2.1-0.8,3,0l11.4,11.8
							c0.8,0.8,0.8,2.1,0,3C581.1,185.2,580.2,185.7,579.8,185.7z"/>
					</g>
				</g>
				<g opacity="0.45">
					<g opacity="0.44">
						<path fill="#999999" d="M501.9,270.3c0,92.7,75,168,167.2,168.4V101.9C576.8,102.3,501.9,177.7,501.9,270.3z"/>
					</g>
				</g>
			</g>
			<g>
				<path fill="#BAAE45" d="M670.3,453c-100.6,0-182.7-82.1-182.7-182.7S569.7,87.6,670.3,87.6S853,169.7,853,270.3
					C853.1,370.9,771.3,453,670.3,453z M670.3,115.8c-85.1,0-154.1,69-154.1,154.1S585.2,424,670.3,424s154.1-69,154.1-154.1
					C824.8,185.2,755.4,115.8,670.3,115.8z"/>
			</g>
		</g>
	</g>
</g>
</svg>
