<?xml version="1.0" encoding="utf-8"?>
<!-- Generator: Adobe Illustrator 18.0.0, SVG Export Plug-In . SVG Version: 6.00 Build 0)  -->
<!DOCTYPE svg PUBLIC "-//W3C//DTD SVG 1.1//EN" "http://www.w3.org/Graphics/SVG/1.1/DTD/svg11.dtd">
<svg version="1.1" id="Layer_1" xmlns="http://www.w3.org/2000/svg" xmlns:xlink="http://www.w3.org/1999/xlink" x="0px" y="0px"
	 viewBox="400 0 559.6 560" enable-background="new 400 0 559.6 560" xml:space="preserve">
<g>
	<path fill="#FFFFFF" d="M709.8,178.8c0,0,0.5-0.9,0.9-0.9c4.1-2.7,19.4-15.8,23.9-24.8c0-14.9,0-25.7,0-28.9c0-0.5,0-0.9,0-0.9
		c0-1.4-0.5-2.3-0.9-3.6c-1.8-6.8-7.7-11.3-14.5-11.3c-6.3,0-11.7,4.1-13.5,9.9c-1.8-5.4-7.2-9.9-13.5-9.9s-11.7,4.1-13.5,9.9
		c-1.8-5.4-7.2-9.9-13.5-9.9s-11.7,4.1-13.5,9.9c-1.8-5.9-5.9-9.9-12.2-9.9c-8.1,0-13.5,6.3-13.5,14.5c0,0,0,11.7,0,30.3
		c4.5,9,19.4,22.1,23,24.8v0.9h0.5L709.8,178.8L709.8,178.8z"/>
	<path fill="#FFFFFF" d="M704.8,422.7c88.5,0,79.5-12.2,79.5-61.9c12.2-132.3-54.6-169.4-72.7-177.5v4.5h-63.2v-2.7
		c-22.6,9-83.5,46.5-71.8,175.2c0,24.8-2.7,41.1,5.9,50.1c8.6,9,28,12.6,72.3,12.6h50.1v-0.3H704.8z M622.6,301.7
		c0-31.6,25.7-57.4,57.4-57.4c0.5,0,0.9,0,1.8,0c31.2,0.9,56,26.2,56,57.4s-24.8,56.5-56,57.4c-0.5,0-0.9,0-1.8,0
		C648.4,359,622.6,333.3,622.6,301.7z"/>
	<polygon fill="#2F5E19" points="711.6,187.9 711.6,183.4 711.6,183.4 705.7,183.4 685.4,183.4 648.4,183.4 648.4,185.2 
		648.4,187.9 	"/>
	<path fill="#3F7F25" d="M733.3,120.1c0.5,0,0.9,1.8,0.9,3.2c0,0.5,0,0.5,0,0.5c0,3.2,0,14,0,28.9c-4.5,9-19.9,22.1-23.9,24.8
		c0,0-0.5,0.9-0.9,0.9l0,0v0.5v-0.5h-61V177l0.5,1.4h-0.5v4.5h37h20.3h5.9l0,0c18.1,8.1,84.9,45.2,72.7,177.5
		c0,49.7,9,61.9-79.5,61.9h-49.7c-44.3,0-64.1-3.6-72.7-12.6l-0.9,0.5l145.9,145.4c112.9-19,202.3-105.2,226.3-216.3L733.3,120.1
		L733.3,120.1z"/>
	<path fill="#D8B419" d="M709.8,177L709.8,177C709.4,177.5,709.8,177.5,709.8,177L709.8,177z"/>
	<path fill="#3F7F25" d="M697.2,319.7c2.7-5.4-3.6-11.7-8.1-13.5v17.2C693.5,322.9,696.3,321.5,697.2,319.7z"/>
	<path fill="#3F7F25" d="M667.4,283.6c-1.8,3.2-0.5,8.1,3.6,8.6c1.8,0.5,4.5,0.5,4.5,0.5v-13.1C671,280.5,668.7,281.4,667.4,283.6z"
		/>
	<path fill="#FFFFFF" d="M689,339.6V336c13.5-2.3,21.2-9.5,20.3-21.2c-0.5-8.6-7.2-15.8-14.5-19.4c-2.3-0.9-1.4-1.8-5.9-1.8v-14
		c4.5,0.5,5,1.4,7.2,2.7c6.8,4.5,13.5-6.3,6.8-10.8c-4.1-2.7-9.5-4.1-14-4.5v-3.6c0-4.5-3.6-6.8-6.8-6.8c-3.2,0-6.8,1.8-6.8,6.3v4.1
		c-4.5,0.5-5.4,1.4-8.1,2.3c-11.3,4.5-18.5,20.3-8.6,30.7c4.5,4.5,12.2,5.4,16.7,5.4v18.5c-4.5-0.5-8.1-1.8-7.7-3.6
		c0.5-8.1-11.7-8.1-12.2,0c-0.5,9.9,6.8,15.8,20.3,16.7v3.2c0,4.5,3.6,6.8,6.8,6.8C685.9,346.8,689,344.1,689,339.6z M689,306.2
		c4.5,1.8,10.8,8.1,8.1,13.5c-0.9,1.8-3.6,3.2-8.1,3.6V306.2z M675.5,293.1c0,0-3.2,0-5-0.5c-4.1-0.9-4.5-5.9-2.7-8.6
		c1.4-2.7,3.2-3.6,7.7-4.1V293.1L675.5,293.1z"/>
	<path fill="#3F7F25" d="M681.8,359c31.2-0.9,56-26.2,56-57.4s-24.8-56.5-56-57.4c-0.5,0-0.9,0-1.8,0c-31.6,0-57.4,25.7-57.4,57.4
		S648.4,359,680,359C680.5,359,680.9,359,681.8,359z M675.5,339.6v-3.2c-13.5-0.9-21.2-6.8-20.3-16.7c0.5-8.1,13.5-8.1,13.1,0
		c0,2.3,3.2,3.2,7.7,3.6v-18.5c-4.5,0-12.2-0.9-16.7-5.4c-9.9-9.9-2.7-25.7,9-30.7c2.3-0.9,3.2-1.8,7.7-2.3v-4.1
		c0-4.5,3.6-6.8,6.8-6.8c3.2,0,6.8,2.3,6.8,6.8v4.1c4.5,0.5,9.5,2.3,13.5,4.5c6.8,4.5,0.5,15.4-6.3,10.8c-2.3-1.4-3.2-2.3-7.7-2.7
		v14.5c4.5,0.5,3.6,0.9,5.4,2.3c7.2,4.1,14.5,10.8,15.4,19.4c0.9,11.7-7.2,19-20.8,21.2v3.6c0,4.5-3.6,6.8-6.8,6.8
		C679.1,346.8,675.5,344.1,675.5,339.6z"/>
	<path fill="#D8B419" d="M649.3,177h-0.5C648.8,177.5,649.3,177.5,649.3,177L649.3,177z"/>
	<path fill="#4FAA2D" d="M680,0C525.5,0,400,125.5,400,280s125.5,280,280,280c16.3,0,32.1-1.4,47.4-4.1L581.5,410.5l0.9-0.9
		c-8.6-9-5.9-24.4-5.9-49.2c-11.7-128.7,49.2-166.2,71.8-175.2V182v-2.7h0.5v-0.9c-3.6-2.7-18.5-15.8-23-24.8c0-18.1,0-30.3,0-30.3
		c0-8.1,5.4-14.5,13.5-14.5c6.3,0,10.8,4.1,12.6,9.9c1.8-5.4,7.2-9.9,13.5-9.9c6.3,0,11.7,4.1,13.5,9.9c1.8-5.4,7.2-9.9,13.5-9.9
		c6.3,0,11.7,4.1,13.5,9.9c1.8-5.4,7.2-9.9,13.5-9.9c6.8,0,12.2,4.5,13.5,10.8l0,0L953.3,340c4.1-19,6.3-39.3,6.3-59.6
		C960,125.5,834.5,0,680,0z"/>
</g>
</svg>
