<?xml version="1.0" encoding="utf-8"?>
<!-- Generator: Adobe Illustrator 18.0.0, SVG Export Plug-In . SVG Version: 6.00 Build 0)  -->
<!DOCTYPE svg PUBLIC "-//W3C//DTD SVG 1.1//EN" "http://www.w3.org/Graphics/SVG/1.1/DTD/svg11.dtd">
<svg version="1.1" id="Layer_1" xmlns="http://www.w3.org/2000/svg" xmlns:xlink="http://www.w3.org/1999/xlink" x="0px" y="0px"
	 viewBox="0 0 146 80" enable-background="new 0 0 146 80" xml:space="preserve">
<rect x="-708" y="-116" fill="#515151" width="1660" height="361"/>
<g>
	<g opacity="0.62">
		<path fill="#FFFFFF" d="M73,39.9l64.2-38.7c-1.9-0.8-4-1.2-6.2-1.2H15c-2.2,0-4.3,0.4-6.2,1.2L73,39.9z"/>
		<path fill="#FFFFFF" d="M146,13.6c0-2.9-1-5.6-2.8-7.9L97.7,33.2l47,38.8c0.8-1.7,1.3-3.6,1.3-5.6V13.6z"/>
		<path fill="#FFFFFF" d="M2.8,5.8C1,8,0,10.7,0,13.6v52.8c0,2,0.5,3.9,1.3,5.6l47-38.8L2.8,5.8z"/>
		<path fill="#FFFFFF" d="M91.3,37L73,48.1L54.7,37L5.9,77.2C8.5,79,11.6,80,15,80h116c3.4,0,6.5-1,9.1-2.8L91.3,37z"/>
	</g>
</g>
</svg>
