<?xml version="1.0" encoding="utf-8"?>
<!-- Generator: Adobe Illustrator 18.0.0, SVG Export Plug-In . SVG Version: 6.00 Build 0)  -->
<!DOCTYPE svg PUBLIC "-//W3C//DTD SVG 1.1//EN" "http://www.w3.org/Graphics/SVG/1.1/DTD/svg11.dtd">
<svg version="1.1" id="Layer_1" xmlns="http://www.w3.org/2000/svg" xmlns:xlink="http://www.w3.org/1999/xlink" x="0px" y="0px"
	 viewBox="200 0 560 560" enable-background="new 200 0 560 560" xml:space="preserve">
<g>
	<g id="XMLID_36_">
		<path fill="#448927" d="M756.1,233.1c2.7,15.1,3.9,31,3.9,46.9c0,129.9-88,238.9-207.9,270.7L516.5,515V348.3h75.6l11.2-87.6
			h-86.9v-57c0-31,14-41.5,43.4-41.5h46.5V83.4L756.1,233.1z"/>
		<path fill="#4FAA2D" d="M756.1,233.1L606,83c0,0-27.9-3.1-69-3.1c-68.3,0-112.1,43.4-112.1,113.6v66.7h-75.6v87.3v0.4h0.4
			l75.6,75.6v131.1C297,529.4,200,416.1,200,280C200,125.3,325.3,0,480,0C618.8,0,734,100.8,756.1,233.1z"/>
		<path fill="#FFFFFF" d="M606,83.4v79.1h-46.5c-29.5,0-43.4,10.5-43.4,41.5v56.6h87.3l-11.2,87.6h-75.6V515l-91.1-91.1v-75.6h-75.6
			l-0.4-0.4v-87.3h76v-67.1c0-70.2,43.4-113.6,112.1-113.6C578.5,79.9,606,83.4,606,83.4z"/>
		<path fill="#4FAA2D" d="M516.5,515l35.7,35.7c-11.6,3.1-23.3,5.4-35.7,7V515z"/>
		<path fill="#FFFFFF" d="M516.5,515v42.7c-12,1.6-24,2.3-36.5,2.3c-18.6,0-36.8-1.9-54.7-5.4V423.9L516.5,515z"/>
		<polygon fill="#448927" points="425.3,348.3 425.3,423.9 349.7,348.3 		"/>
		<polygon fill="#FFFFFF" points="349.7,348.3 349.3,348.3 349.3,347.9 		"/>
	</g>
</g>
</svg>
