<?xml version="1.0" encoding="utf-8"?>
<!-- Generator: Adobe Illustrator 18.0.0, SVG Export Plug-In . SVG Version: 6.00 Build 0)  -->
<!DOCTYPE svg PUBLIC "-//W3C//DTD SVG 1.1//EN" "http://www.w3.org/Graphics/SVG/1.1/DTD/svg11.dtd">
<svg version="1.1" id="Layer_1" xmlns="http://www.w3.org/2000/svg" xmlns:xlink="http://www.w3.org/1999/xlink" x="0px" y="0px"
	 viewBox="200 0 560 560" enable-background="new 200 0 560 560" xml:space="preserve">
<g>
	<g id="XMLID_34_">
		<path fill="#1E1E1E" d="M759.6,262.9c0.4,5.8,0.4,11.2,0.4,17.1c0,20.6-2.3,40.7-6.6,59.7L615,201.3c0-5.4,0.4-10.5,1.9-14.3
			c14,0,28.3,0,42.3,0c0-7.8,0-15.1,0-22.9l0.8-0.8L759.6,262.9z"/>
		<path fill="#383838" d="M615.7,119.1l-0.8,0.8c-7.8,0-15.1,0-22.9,0c0,14.7,0,29.5,0,43.8c-5,0-9.7,0-14.7,0l-48.5-48.5
			c-79.1-2.3-171.4-7.8-182.7,60.1c-8.9,55.8,30.2,88.4,79.9,89.6c-8.5,16.3,2.7,34.9,6.6,42.3c-59.3,3.1-114,18.2-109.4,76.8
			c0.8,11.2,5.4,21.3,12.4,29.5c1.9,2.3,4.3,4.7,7,7l0,0L482.3,560c-0.8,0-1.6,0-2.7,0C325.3,560,200,434.7,200,280S325.3,0,480,0
			c148.9,0,270.7,116.3,279.6,262.9l-99.7-99.7L615.7,119.1z"/>
		<path fill="#1E1E1E" d="M615,201.3l138.8,138.8c-3.1,14-7,27.5-12,40.7L592.5,231.5l0.4-0.4c7.8,0,15.1,0,22.9,0
			C615.7,221.4,615,210.6,615,201.3z"/>
		<path fill="#1E1E1E" d="M547.9,186.9l43.8,43.8L741,380.1c-39.9,104.3-140.8,178.4-258.7,179.6L342.7,420
			c43,36.8,144.3,33,177.6-10.5c17.5-22.5,15.9-61.7,0-83c-13.6-18.6-56.6-35.7-55.1-58.2c1.6-22.9,43.8-31.8,47.3-70.2
			c2.3-27.5-12.4-49.6-24.4-60.1c7,0,14,0,21.3,0c5.8-6.6,23.3-17.8,19.4-22.9l48.9,48.9c-9.7,0-19.4,0-29.5,0
			C548.3,171.4,548.3,179.2,547.9,186.9L547.9,186.9z"/>
		<path fill="#FFFFFF" d="M659.2,164c0,7.8,0,15.1,0,22.9c-14,0-28.3,0-42.3,0c-1.2,4.3-1.9,8.9-1.9,14.3l-18.6-18.6L577.7,164
			c5,0,9.7,0,14.7,0c0-14.7,0-29.5,0-43.8c7.8,0,15.1,0,22.9,0c0,14,0,28.3,0,42.3C626.6,166,645.2,162.9,659.2,164z"/>
		<path fill="#1E1E1E" d="M659.2,164c-14-1.2-32.6,2.3-43.8-1.6c0-14,0-28.3,0-42.3l0.8-0.8l43.8,43.8L659.2,164z"/>
		<path fill="#FFFFFF" d="M615,201.3c0,9.7,0.8,20.6,0.4,29.5c-7.8,0-15.1,0-22.9,0c0-14.7,0-29.5,0-43.8l4.3-4.3L615,201.3z"/>
		<path fill="#FFFFFF" d="M596.3,182.7l-4.3,4.3c-14.7,0-29.5,0-43.8,0c0-7.8,0-15.1,0-22.9c9.7,0,19.4,0,29.5,0L596.3,182.7z"/>
		<path fill="#1E1E1E" d="M592.5,186.5c0,14.7,0,29.5,0,43.8l-0.4,0.4l-44.2-43.8l0.4-0.4C563,186.5,577.7,186.5,592.5,186.5z"/>
		<path fill="#FFFFFF" d="M528.9,115.2c3.5,5-14,16.3-19.4,22.9c-7,0-14,0-21.3,0c12,10.5,27.1,33,24.4,60.1
			c-3.5,38.4-45.8,47.3-47.3,70.2c-1.6,22.5,41.5,39.6,55.5,58.6c15.9,21.7,17.5,60.5,0,83c-33.4,43.4-134.6,47.3-177.6,10.5l0,0
			l-7-7c-7-8.1-11.6-17.8-12.4-29.5c-5-58.6,49.6-73.7,109-76.8c-3.9-7.8-15.1-26-6.6-42.3c-49.6-1.6-89.2-33.7-79.9-89.6
			C357.5,107,449.8,112.9,528.9,115.2z M497.8,392.1c17.8-48.1-31-75.2-73.3-71.7c-31.4,2.7-58.6,15.5-63.6,42.3
			C346.2,439.4,477.7,446,497.8,392.1z M470.3,230.7c20.6-43-16.3-107.4-58.6-97.7c-57.8,12.8-27.5,127.2,37.6,115.6
			C455.2,247.4,466.8,237.7,470.3,230.7z"/>
		<path fill="#1E1E1E" d="M424.5,320.3c42.3-3.5,91.1,23.3,73.3,71.7c-20.2,53.9-151.6,47.3-136.9-29.5
			C366,335.8,393.1,323,424.5,320.3z"/>
		<path fill="#1E1E1E" d="M411.4,133c42.3-9.7,79.5,54.7,58.9,97.7c-3.5,7-15.1,16.7-21.3,17.8C383.8,260.2,354,145.8,411.4,133z"/>
		<path fill="#FFFFFF" d="M335.7,413.4l7,7C340.4,418.1,338.1,415.7,335.7,413.4z"/>
	</g>
</g>
</svg>
