<?xml version="1.0" encoding="utf-8"?>
<!-- Generator: Adobe Illustrator 18.0.0, SVG Export Plug-In . SVG Version: 6.00 Build 0)  -->
<!DOCTYPE svg PUBLIC "-//W3C//DTD SVG 1.1//EN" "http://www.w3.org/Graphics/SVG/1.1/DTD/svg11.dtd">
<svg version="1.1" id="Layer_1" xmlns="http://www.w3.org/2000/svg" xmlns:xlink="http://www.w3.org/1999/xlink" x="0px" y="0px"
	 viewBox="200 0 560 560" enable-background="new 200 0 560 560" xml:space="preserve">
<g>
	<g id="XMLID_35_">
		<path fill="#355E1F" d="M750.3,206.3c6.2,23.7,9.7,48.1,9.7,73.7c0,154.7-125.3,280-280,280c-4.7,0-9.7,0-14.3-0.4L308.2,402.2
			c19.8,18.6,64,30.6,100.1,35.3c11.6,0,23.7,0,35.3,0c69.4-7.4,116.7-36.8,147.4-72.1c29.5-34.1,51.2-76,57-132.2
			c0.8-7.4-0.8-18.6,1.6-26c2.7-8.1,12.8-12.8,19.8-19.8c7-7.4,11.6-15.1,18.6-21.7c0-0.4,0-1.2,0-1.6c-12.4,5.8-27.5,9.3-43,12.4
			c13.2-11.6,25.6-23.7,32.2-41.5l1.6-0.4L750.3,206.3z"/>
		<path fill="#4B7A35" d="M750.3,206.3l-71.7-71.7L677,135c-12.4,3.1-29.9,14-47.7,17.1c-14-10.9-28.3-20.6-49.3-24.4
			c-6.6,0-13.2,0-20.2,0c-45,9.3-74.1,41.1-67.5,97c-74.8-6.2-122.2-39.6-161.3-81.4c-24,35.7-0.8,88.4,21.3,102.8
			c-14,0-22.9-4.7-32.2-9.3c2.7,43.4,24.4,67.5,61.3,76.8c-6.2,5.4-21.3,1.9-32.2,3.1c7,28.3,32.6,51.2,70.6,53.9
			c-26,21.3-64.8,37.6-112.1,32.2L465.3,560C317.9,552.2,200,430.1,200,280C200,125.3,325.3,0,480,0C609.1,0,718.1,87.3,750.3,206.3
			z"/>
		<path fill="#FFFFFF" d="M687.5,164c0,0.4,0,1.2,0,1.6c-7,6.2-11.2,14-18.6,21.7c-7,7.4-17.1,11.6-19.8,19.8
			c-2.3,7.4-0.8,18.6-1.6,26c-5.8,55.8-27.5,98.1-57,132.2c-30.6,35.3-78.3,64.8-147.4,72.1c-11.6,0-23.7,0-35.3,0
			c-36.1-4.7-80.3-16.7-100.1-35.3c47.3,5.4,86.1-10.9,112.1-32.2c-38-2.7-63.6-25.6-70.6-53.9c10.9-0.8,26,2.3,32.2-3.1
			c-36.8-9.3-58.9-33.4-61.3-76.8c9.3,4.7,18.6,9.3,32.2,9.3c-22.1-14.7-45.4-67.5-21.3-102.8c39.2,41.9,86.5,75.2,161.3,81.4
			c-6.6-55.5,22.9-87.6,67.5-97c6.6,0,13.2,0,20.2,0c20.6,3.9,35.3,14,49.3,24.4c17.5-2.7,35.3-14,47.7-17.1
			c-6.6,17.8-19,29.9-32.2,41.5C659.9,173,675.1,169.9,687.5,164z"/>
	</g>
</g>
</svg>
